<svg width="496" height="130" viewBox="0 0 496 130" fill="none" xmlns="http://www.w3.org/2000/svg">
<rect width="496" height="130" rx="16" fill="white"/>
<path d="M30.08 42.14C29.1467 42.14 28.3067 41.98 27.56 41.66C26.8133 41.3267 26.2267 40.86 25.8 40.26C25.3733 39.66 25.16 38.96 25.16 38.16H27.6C27.6533 38.76 27.8867 39.2533 28.3 39.64C28.7267 40.0267 29.32 40.22 30.08 40.22C30.8667 40.22 31.48 40.0333 31.92 39.66C32.36 39.2733 32.58 38.78 32.58 38.18C32.58 37.7133 32.44 37.3333 32.16 37.04C31.8933 36.7467 31.5533 36.52 31.14 36.36C30.74 36.2 30.18 36.0267 29.46 35.84C28.5533 35.6 27.8133 35.36 27.24 35.12C26.68 34.8667 26.2 34.48 25.8 33.96C25.4 33.44 25.2 32.7467 25.2 31.88C25.2 31.08 25.4 30.38 25.8 29.78C26.2 29.18 26.76 28.72 27.48 28.4C28.2 28.08 29.0333 27.92 29.98 27.92C31.3267 27.92 32.4267 28.26 33.28 28.94C34.1467 29.6067 34.6267 30.5267 34.72 31.7H32.2C32.16 31.1933 31.92 30.76 31.48 30.4C31.04 30.04 30.46 29.86 29.74 29.86C29.0867 29.86 28.5533 30.0267 28.14 30.36C27.7267 30.6933 27.52 31.1733 27.52 31.8C27.52 32.2267 27.6467 32.58 27.9 32.86C28.1667 33.1267 28.5 33.34 28.9 33.5C29.3 33.66 29.8467 33.8333 30.54 34.02C31.46 34.2733 32.2067 34.5267 32.78 34.78C33.3667 35.0333 33.86 35.4267 34.26 35.96C34.6733 36.48 34.88 37.18 34.88 38.06C34.88 38.7667 34.6867 39.4333 34.3 40.06C33.9267 40.6867 33.3733 41.1933 32.64 41.58C31.92 41.9533 31.0667 42.14 30.08 42.14ZM42.3503 42.18C41.3103 42.18 40.3703 41.9467 39.5303 41.48C38.6903 41 38.0303 40.3333 37.5503 39.48C37.0703 38.6133 36.8303 37.6133 36.8303 36.48C36.8303 35.36 37.077 34.3667 37.5703 33.5C38.0636 32.6333 38.737 31.9667 39.5903 31.5C40.4436 31.0333 41.397 30.8 42.4503 30.8C43.5036 30.8 44.457 31.0333 45.3103 31.5C46.1636 31.9667 46.837 32.6333 47.3303 33.5C47.8236 34.3667 48.0703 35.36 48.0703 36.48C48.0703 37.6 47.817 38.5933 47.3103 39.46C46.8036 40.3267 46.1103 41 45.2303 41.48C44.3636 41.9467 43.4036 42.18 42.3503 42.18ZM42.3503 40.2C42.937 40.2 43.4836 40.06 43.9903 39.78C44.5103 39.5 44.9303 39.08 45.2503 38.52C45.5703 37.96 45.7303 37.28 45.7303 36.48C45.7303 35.68 45.577 35.0067 45.2703 34.46C44.9636 33.9 44.557 33.48 44.0503 33.2C43.5436 32.92 42.997 32.78 42.4103 32.78C41.8236 32.78 41.277 32.92 40.7703 33.2C40.277 33.48 39.8836 33.9 39.5903 34.46C39.297 35.0067 39.1503 35.68 39.1503 36.48C39.1503 37.6667 39.4503 38.5867 40.0503 39.24C40.6636 39.88 41.4303 40.2 42.3503 40.2ZM49.5642 36.48C49.5642 35.3467 49.7909 34.3533 50.2442 33.5C50.7109 32.6333 51.3509 31.9667 52.1642 31.5C52.9776 31.0333 53.9109 30.8 54.9642 30.8C56.2976 30.8 57.3976 31.12 58.2642 31.76C59.1442 32.3867 59.7376 33.2867 60.0442 34.46H57.5842C57.3842 33.9133 57.0642 33.4867 56.6242 33.18C56.1842 32.8733 55.6309 32.72 54.9642 32.72C54.0309 32.72 53.2842 33.0533 52.7242 33.72C52.1776 34.3733 51.9042 35.2933 51.9042 36.48C51.9042 37.6667 52.1776 38.5933 52.7242 39.26C53.2842 39.9267 54.0309 40.26 54.9642 40.26C56.2842 40.26 57.1576 39.68 57.5842 38.52H60.0442C59.7242 39.64 59.1242 40.5333 58.2442 41.2C57.3642 41.8533 56.2709 42.18 54.9642 42.18C53.9109 42.18 52.9776 41.9467 52.1642 41.48C51.3509 41 50.7109 40.3333 50.2442 39.48C49.7909 38.6133 49.5642 37.6133 49.5642 36.48ZM63.4764 29.52C63.0631 29.52 62.7164 29.38 62.4364 29.1C62.1564 28.82 62.0164 28.4733 62.0164 28.06C62.0164 27.6467 62.1564 27.3 62.4364 27.02C62.7164 26.74 63.0631 26.6 63.4764 26.6C63.8764 26.6 64.2164 26.74 64.4964 27.02C64.7764 27.3 64.9164 27.6467 64.9164 28.06C64.9164 28.4733 64.7764 28.82 64.4964 29.1C64.2164 29.38 63.8764 29.52 63.4764 29.52ZM64.5964 30.98V42H62.3164V30.98H64.5964ZM66.8298 36.44C66.8298 35.3333 67.0565 34.3533 67.5098 33.5C67.9765 32.6467 68.6032 31.9867 69.3898 31.52C70.1898 31.04 71.0698 30.8 72.0298 30.8C72.8965 30.8 73.6498 30.9733 74.2898 31.32C74.9432 31.6533 75.4632 32.0733 75.8498 32.58V30.98H78.1498V42H75.8498V40.36C75.4632 40.88 74.9365 41.3133 74.2698 41.66C73.6032 42.0067 72.8432 42.18 71.9898 42.18C71.0432 42.18 70.1765 41.94 69.3898 41.46C68.6032 40.9667 67.9765 40.2867 67.5098 39.42C67.0565 38.54 66.8298 37.5467 66.8298 36.44ZM75.8498 36.48C75.8498 35.72 75.6898 35.06 75.3698 34.5C75.0632 33.94 74.6565 33.5133 74.1498 33.22C73.6432 32.9267 73.0965 32.78 72.5098 32.78C71.9232 32.78 71.3765 32.9267 70.8698 33.22C70.3632 33.5 69.9498 33.92 69.6298 34.48C69.3232 35.0267 69.1698 35.68 69.1698 36.44C69.1698 37.2 69.3232 37.8667 69.6298 38.44C69.9498 39.0133 70.3632 39.4533 70.8698 39.76C71.3898 40.0533 71.9365 40.2 72.5098 40.2C73.0965 40.2 73.6432 40.0533 74.1498 39.76C74.6565 39.4667 75.0632 39.04 75.3698 38.48C75.6898 37.9067 75.8498 37.24 75.8498 36.48ZM83.4245 27.2V42H81.1445V27.2H83.4245ZM90.8533 36.48C90.8533 35.3467 91.0799 34.3533 91.5333 33.5C91.9999 32.6333 92.6399 31.9667 93.4533 31.5C94.2666 31.0333 95.1999 30.8 96.2533 30.8C97.5866 30.8 98.6866 31.12 99.5533 31.76C100.433 32.3867 101.027 33.2867 101.333 34.46H98.8733C98.6733 33.9133 98.3533 33.4867 97.9133 33.18C97.4733 32.8733 96.9199 32.72 96.2533 32.72C95.3199 32.72 94.5733 33.0533 94.0133 33.72C93.4666 34.3733 93.1933 35.2933 93.1933 36.48C93.1933 37.6667 93.4666 38.5933 94.0133 39.26C94.5733 39.9267 95.3199 40.26 96.2533 40.26C97.5733 40.26 98.4466 39.68 98.8733 38.52H101.333C101.013 39.64 100.413 40.5333 99.5333 41.2C98.6533 41.8533 97.5599 42.18 96.2533 42.18C95.1999 42.18 94.2666 41.9467 93.4533 41.48C92.6399 41 91.9999 40.3333 91.5333 39.48C91.0799 38.6133 90.8533 37.6133 90.8533 36.48ZM109.305 30.8C110.145 30.8 110.892 30.98 111.545 31.34C112.212 31.7 112.732 32.2333 113.105 32.94C113.492 33.6467 113.685 34.5 113.685 35.5V42H111.425V35.84C111.425 34.8533 111.179 34.1 110.685 33.58C110.192 33.0467 109.519 32.78 108.665 32.78C107.812 32.78 107.132 33.0467 106.625 33.58C106.132 34.1 105.885 34.8533 105.885 35.84V42H103.605V27.2H105.885V32.26C106.272 31.7933 106.759 31.4333 107.345 31.18C107.945 30.9267 108.599 30.8 109.305 30.8ZM115.834 36.44C115.834 35.3333 116.06 34.3533 116.514 33.5C116.98 32.6467 117.607 31.9867 118.394 31.52C119.194 31.04 120.074 30.8 121.034 30.8C121.9 30.8 122.654 30.9733 123.294 31.32C123.947 31.6533 124.467 32.0733 124.854 32.58V30.98H127.154V42H124.854V40.36C124.467 40.88 123.94 41.3133 123.274 41.66C122.607 42.0067 121.847 42.18 120.994 42.18C120.047 42.18 119.18 41.94 118.394 41.46C117.607 40.9667 116.98 40.2867 116.514 39.42C116.06 38.54 115.834 37.5467 115.834 36.44ZM124.854 36.48C124.854 35.72 124.694 35.06 124.374 34.5C124.067 33.94 123.66 33.5133 123.154 33.22C122.647 32.9267 122.1 32.78 121.514 32.78C120.927 32.78 120.38 32.9267 119.874 33.22C119.367 33.5 118.954 33.92 118.634 34.48C118.327 35.0267 118.174 35.68 118.174 36.44C118.174 37.2 118.327 37.8667 118.634 38.44C118.954 39.0133 119.367 39.4533 119.874 39.76C120.394 40.0533 120.94 40.2 121.514 40.2C122.1 40.2 122.647 40.0533 123.154 39.76C123.66 39.4667 124.067 39.04 124.374 38.48C124.694 37.9067 124.854 37.24 124.854 36.48ZM135.708 30.8C136.575 30.8 137.348 30.98 138.028 31.34C138.722 31.7 139.262 32.2333 139.648 32.94C140.035 33.6467 140.228 34.5 140.228 35.5V42H137.968V35.84C137.968 34.8533 137.722 34.1 137.228 33.58C136.735 33.0467 136.062 32.78 135.208 32.78C134.355 32.78 133.675 33.0467 133.168 33.58C132.675 34.1 132.428 34.8533 132.428 35.84V42H130.148V30.98H132.428V32.24C132.802 31.7867 133.275 31.4333 133.848 31.18C134.435 30.9267 135.055 30.8 135.708 30.8ZM148.697 30.8C149.563 30.8 150.337 30.98 151.017 31.34C151.71 31.7 152.25 32.2333 152.637 32.94C153.023 33.6467 153.217 34.5 153.217 35.5V42H150.957V35.84C150.957 34.8533 150.71 34.1 150.217 33.58C149.723 33.0467 149.05 32.78 148.197 32.78C147.343 32.78 146.663 33.0467 146.157 33.58C145.663 34.1 145.417 34.8533 145.417 35.84V42H143.137V30.98H145.417V32.24C145.79 31.7867 146.263 31.4333 146.837 31.18C147.423 30.9267 148.043 30.8 148.697 30.8ZM166.225 36.22C166.225 36.6333 166.198 37.0067 166.145 37.34H157.725C157.792 38.22 158.118 38.9267 158.705 39.46C159.292 39.9933 160.012 40.26 160.865 40.26C162.092 40.26 162.958 39.7467 163.465 38.72H165.925C165.592 39.7333 164.985 40.5667 164.105 41.22C163.238 41.86 162.158 42.18 160.865 42.18C159.812 42.18 158.865 41.9467 158.025 41.48C157.198 41 156.545 40.3333 156.065 39.48C155.598 38.6133 155.365 37.6133 155.365 36.48C155.365 35.3467 155.592 34.3533 156.045 33.5C156.512 32.6333 157.158 31.9667 157.985 31.5C158.825 31.0333 159.785 30.8 160.865 30.8C161.905 30.8 162.832 31.0267 163.645 31.48C164.458 31.9333 165.092 32.5733 165.545 33.4C165.998 34.2133 166.225 35.1533 166.225 36.22ZM163.845 35.5C163.832 34.66 163.532 33.9867 162.945 33.48C162.358 32.9733 161.632 32.72 160.765 32.72C159.978 32.72 159.305 32.9733 158.745 33.48C158.185 33.9733 157.852 34.6467 157.745 35.5H163.845ZM170.749 27.2V42H168.469V27.2H170.749ZM193.738 30.98L190.318 42H187.918L185.698 33.86L183.478 42H181.078L177.638 30.98H179.958L182.258 39.84L184.598 30.98H186.978L189.218 39.8L191.498 30.98H193.738ZM205.541 36.22C205.541 36.6333 205.515 37.0067 205.461 37.34H197.041C197.108 38.22 197.435 38.9267 198.021 39.46C198.608 39.9933 199.328 40.26 200.181 40.26C201.408 40.26 202.275 39.7467 202.781 38.72H205.241C204.908 39.7333 204.301 40.5667 203.421 41.22C202.555 41.86 201.475 42.18 200.181 42.18C199.128 42.18 198.181 41.9467 197.341 41.48C196.515 41 195.861 40.3333 195.381 39.48C194.915 38.6133 194.681 37.6133 194.681 36.48C194.681 35.3467 194.908 34.3533 195.361 33.5C195.828 32.6333 196.475 31.9667 197.301 31.5C198.141 31.0333 199.101 30.8 200.181 30.8C201.221 30.8 202.148 31.0267 202.961 31.48C203.775 31.9333 204.408 32.5733 204.861 33.4C205.315 34.2133 205.541 35.1533 205.541 36.22ZM203.161 35.5C203.148 34.66 202.848 33.9867 202.261 33.48C201.675 32.9733 200.948 32.72 200.081 32.72C199.295 32.72 198.621 32.9733 198.061 33.48C197.501 33.9733 197.168 34.6467 197.061 35.5H203.161ZM227.78 30.98L224.36 42H221.96L219.74 33.86L217.52 42H215.12L211.68 30.98H214L216.3 39.84L218.64 30.98H221.02L223.26 39.8L225.54 30.98H227.78ZM234.264 42.18C233.224 42.18 232.284 41.9467 231.444 41.48C230.604 41 229.944 40.3333 229.464 39.48C228.984 38.6133 228.744 37.6133 228.744 36.48C228.744 35.36 228.991 34.3667 229.484 33.5C229.978 32.6333 230.651 31.9667 231.504 31.5C232.358 31.0333 233.311 30.8 234.364 30.8C235.418 30.8 236.371 31.0333 237.224 31.5C238.078 31.9667 238.751 32.6333 239.244 33.5C239.738 34.3667 239.984 35.36 239.984 36.48C239.984 37.6 239.731 38.5933 239.224 39.46C238.718 40.3267 238.024 41 237.144 41.48C236.278 41.9467 235.318 42.18 234.264 42.18ZM234.264 40.2C234.851 40.2 235.398 40.06 235.904 39.78C236.424 39.5 236.844 39.08 237.164 38.52C237.484 37.96 237.644 37.28 237.644 36.48C237.644 35.68 237.491 35.0067 237.184 34.46C236.878 33.9 236.471 33.48 235.964 33.2C235.458 32.92 234.911 32.78 234.324 32.78C233.738 32.78 233.191 32.92 232.684 33.2C232.191 33.48 231.798 33.9 231.504 34.46C231.211 35.0067 231.064 35.68 231.064 36.48C231.064 37.6667 231.364 38.5867 231.964 39.24C232.578 39.88 233.344 40.2 234.264 40.2ZM244.518 32.58C244.852 32.02 245.292 31.5867 245.838 31.28C246.398 30.96 247.058 30.8 247.818 30.8V33.16H247.238C246.345 33.16 245.665 33.3867 245.198 33.84C244.745 34.2933 244.518 35.08 244.518 36.2V42H242.238V30.98H244.518V32.58ZM254.274 36.5L259.354 42H256.274L252.194 37.26V42H249.914V27.2H252.194V35.8L256.194 30.98H259.354L254.274 36.5ZM280.984 30.98L277.564 42H275.164L272.944 33.86L270.724 42H268.324L264.884 30.98H267.204L269.504 39.84L271.844 30.98H274.224L276.464 39.8L278.744 30.98H280.984ZM283.848 29.52C283.434 29.52 283.088 29.38 282.808 29.1C282.528 28.82 282.388 28.4733 282.388 28.06C282.388 27.6467 282.528 27.3 282.808 27.02C283.088 26.74 283.434 26.6 283.848 26.6C284.248 26.6 284.588 26.74 284.868 27.02C285.148 27.3 285.288 27.6467 285.288 28.06C285.288 28.4733 285.148 28.82 284.868 29.1C284.588 29.38 284.248 29.52 283.848 29.52ZM284.968 30.98V42H282.688V30.98H284.968ZM290.621 32.84V38.94C290.621 39.3533 290.714 39.6533 290.901 39.84C291.101 40.0133 291.434 40.1 291.901 40.1H293.301V42H291.501C290.474 42 289.688 41.76 289.141 41.28C288.594 40.8 288.321 40.02 288.321 38.94V32.84H287.021V30.98H288.321V28.24H290.621V30.98H293.301V32.84H290.621ZM301.102 30.8C301.942 30.8 302.689 30.98 303.342 31.34C304.009 31.7 304.529 32.2333 304.902 32.94C305.289 33.6467 305.482 34.5 305.482 35.5V42H303.222V35.84C303.222 34.8533 302.976 34.1 302.482 33.58C301.989 33.0467 301.316 32.78 300.462 32.78C299.609 32.78 298.929 33.0467 298.422 33.58C297.929 34.1 297.682 34.8533 297.682 35.84V42H295.402V27.2H297.682V32.26C298.069 31.7933 298.556 31.4333 299.142 31.18C299.742 30.9267 300.396 30.8 301.102 30.8Z" fill="black"/>
<circle cx="48" cy="86" r="24" fill="#E6E6E6"/>
<path d="M48.5337 101.533C56.818 101.533 63.5337 94.8175 63.5337 86.5332C63.5337 78.2489 56.818 71.5332 48.5337 71.5332C40.2494 71.5332 33.5337 78.2489 33.5337 86.5332C33.5337 94.8175 40.2494 101.533 48.5337 101.533Z" fill="url(#paint0_linear_449_887)"/>
<path d="M51.7204 78.2H45.3537C42.5137 78.2 40.207 80.5066 40.207 83.3466V89.7133C40.207 92.5533 42.5137 94.86 45.3537 94.86H51.7204C54.5604 94.86 56.867 92.5533 56.867 89.7133V83.3466C56.867 80.5066 54.5604 78.2 51.7204 78.2ZM55.007 89.72C55.007 91.5333 53.5337 93.0133 51.7137 93.0133H45.347C43.5337 93.0133 42.0537 91.54 42.0537 89.72V83.3533C42.0537 81.54 43.527 80.06 45.347 80.06H51.7137C53.527 80.06 55.007 81.5333 55.007 83.3533V89.72Z" fill="white"/>
<path d="M48.5339 82.2732C46.1873 82.2732 44.2739 84.1865 44.2739 86.5332C44.2739 88.8799 46.1873 90.7932 48.5339 90.7932C50.8806 90.7932 52.7939 88.8799 52.7939 86.5332C52.7939 84.1865 50.8806 82.2732 48.5339 82.2732ZM48.5339 89.1199C47.1073 89.1199 45.9473 87.9599 45.9473 86.5332C45.9473 85.1065 47.1073 83.9465 48.5339 83.9465C49.9606 83.9465 51.1206 85.1065 51.1206 86.5332C51.1206 87.9599 49.9606 89.1199 48.5339 89.1199Z" fill="white"/>
<path d="M53.1189 82.7404C53.5113 82.6764 53.7777 82.3065 53.7138 81.914C53.6498 81.5215 53.2799 81.2552 52.8874 81.3191C52.4949 81.383 52.2286 81.753 52.2925 82.1455C52.3564 82.5379 52.7264 82.8043 53.1189 82.7404Z" fill="white"/>
<circle cx="128" cy="86" r="24" fill="#E6E6E6"/>
<path d="M143.467 86.5332C143.467 93.987 138.006 100.165 130.867 101.285V90.8499H134.346L135.008 86.5332H130.867V83.732C130.867 82.5508 131.445 81.3999 133.3 81.3999H135.183V77.7249C135.183 77.7249 133.474 77.4332 131.84 77.4332C128.43 77.4332 126.2 79.5005 126.2 83.2432V86.5332H122.408V90.8499H126.2V101.285C119.061 100.165 113.6 93.987 113.6 86.5332C113.6 78.286 120.286 71.5999 128.533 71.5999C136.781 71.5999 143.467 78.286 143.467 86.5332Z" fill="#1877F2"/>
<path d="M134.346 90.8498L135.008 86.5331H130.867V83.7319C130.867 82.5509 131.445 81.3998 133.3 81.3998H135.183V77.7248C135.183 77.7248 133.474 77.4331 131.84 77.4331C128.429 77.4331 126.2 79.5004 126.2 83.2431V86.5331H122.408V90.8498H126.2V101.285C126.96 101.404 127.739 101.466 128.533 101.466C129.327 101.466 130.106 101.404 130.867 101.285V90.8498H134.346Z" fill="white"/>
<circle cx="208" cy="86" r="24" fill="#E6E6E6"/>
<path d="M208 71.5999C200.047 71.5999 193.6 78.0472 193.6 85.9999C193.6 93.9525 200.047 100.4 208 100.4C215.953 100.4 222.4 93.9525 222.4 85.9999C222.4 78.0472 215.953 71.5999 208 71.5999Z" fill="black"/>
<path d="M209.576 84.6967L215.74 77.531H214.279L208.927 83.7529L204.652 77.531H199.721L206.185 86.9396L199.721 94.4539H201.182L206.834 87.8834L211.349 94.4539H216.28L209.575 84.6967H209.576ZM201.708 78.6307H203.952L214.28 93.4042H212.036L201.708 78.6307Z" fill="white"/>
<circle cx="288" cy="86" r="24" fill="#E6E6E6"/>
<path d="M296.165 76.5898H280.302C277.19 76.5898 274.667 79.1128 274.667 82.225V90.1547C274.667 93.2669 277.19 95.7898 280.302 95.7898H296.165C299.277 95.7898 301.8 93.2669 301.8 90.1547V82.225C301.8 79.1128 299.277 76.5898 296.165 76.5898ZM292.354 86.5756L284.934 90.1143C284.737 90.2086 284.508 90.0644 284.508 89.8454V82.547C284.508 82.3248 284.743 82.1809 284.941 82.2813L292.36 86.0411C292.581 86.1529 292.577 86.4692 292.354 86.5756Z" fill="#F61C0D"/>
<circle cx="368" cy="86" r="24" fill="#E6E6E6"/>
<path d="M368 100.4C375.953 100.4 382.4 93.9525 382.4 85.9996C382.4 78.0467 375.953 71.5996 368 71.5996C360.047 71.5996 353.6 78.0467 353.6 85.9996C353.6 93.9525 360.047 100.4 368 100.4Z" fill="#007AB9"/>
<path d="M376.604 87.1582V93.095H373.162V87.5561C373.162 86.1653 372.665 85.2156 371.419 85.2156C370.468 85.2156 369.903 85.855 369.653 86.4741C369.563 86.6954 369.539 87.0027 369.539 87.313V93.0948H366.097C366.097 93.0948 366.143 83.7136 366.097 82.7426H369.54V84.2096C369.533 84.2211 369.523 84.2324 369.517 84.2435H369.54V84.2096C369.997 83.5057 370.813 82.4995 372.642 82.4995C374.906 82.4995 376.604 83.9791 376.604 87.1582ZM362.496 77.7524C361.319 77.7524 360.548 78.5253 360.548 79.5408C360.548 80.5347 361.296 81.33 362.451 81.33H362.473C363.674 81.33 364.42 80.5347 364.42 79.5408C364.397 78.5253 363.674 77.7524 362.496 77.7524ZM360.753 93.095H364.194V82.7426H360.753V93.095Z" fill="#F1F2F2"/>
<circle cx="448" cy="86" r="24" fill="#E6E6E6"/>
<path d="M448 100.4C455.953 100.4 462.4 93.9525 462.4 85.9996C462.4 78.0467 455.953 71.5996 448 71.5996C440.047 71.5996 433.6 78.0467 433.6 85.9996C433.6 93.9525 440.047 100.4 448 100.4Z" fill="#007AB9"/>
<path d="M456.604 87.1582V93.095H453.162V87.5561C453.162 86.1653 452.665 85.2156 451.419 85.2156C450.468 85.2156 449.903 85.855 449.653 86.4741C449.563 86.6954 449.539 87.0027 449.539 87.313V93.0948H446.097C446.097 93.0948 446.143 83.7136 446.097 82.7426H449.54V84.2096C449.533 84.2211 449.523 84.2324 449.517 84.2435H449.54V84.2096C449.997 83.5057 450.813 82.4995 452.642 82.4995C454.906 82.4995 456.604 83.9791 456.604 87.1582ZM442.496 77.7524C441.319 77.7524 440.548 78.5253 440.548 79.5408C440.548 80.5347 441.296 81.33 442.451 81.33H442.473C443.674 81.33 444.42 80.5347 444.42 79.5408C444.397 78.5253 443.674 77.7524 442.496 77.7524ZM440.753 93.095H444.194V82.7426H440.753V93.095Z" fill="#F1F2F2"/>
<defs>
<linearGradient id="paint0_linear_449_887" x1="37.1123" y1="97.9546" x2="58.429" y2="76.6379" gradientUnits="userSpaceOnUse">
<stop stop-color="#FEE411"/>
<stop offset="0.052" stop-color="#FEDB16"/>
<stop offset="0.138" stop-color="#FEC125"/>
<stop offset="0.248" stop-color="#FE983D"/>
<stop offset="0.376" stop-color="#FE5F5E"/>
<stop offset="0.5" stop-color="#FE2181"/>
<stop offset="1" stop-color="#9000DC"/>
</linearGradient>
</defs>
</svg>
