<svg width="188" height="27" viewBox="0 0 188 27" fill="none" xmlns="http://www.w3.org/2000/svg">
<circle cx="9" cy="13.5" r="9" fill="#1E9500"/>
<g clip-path="url(#clip0_449_953)">
<path d="M12.375 9.28125L7.14375 15.0341L5.625 13.8838H4.78125L7.14375 17.7188L13.2188 9.28125H12.375Z" fill="white"/>
</g>
<path d="M38.712 7.49V9.164H33.402V12.854H37.542V14.528H33.402V20H31.35V7.49H38.712ZM49.5957 10.082V20H47.5437V18.83C47.2197 19.238 46.7937 19.562 46.2657 19.802C45.7497 20.03 45.1977 20.144 44.6097 20.144C43.8297 20.144 43.1277 19.982 42.5037 19.658C41.8917 19.334 41.4057 18.854 41.0457 18.218C40.6977 17.582 40.5237 16.814 40.5237 15.914V10.082H42.5577V15.608C42.5577 16.496 42.7797 17.18 43.2237 17.66C43.6677 18.128 44.2737 18.362 45.0417 18.362C45.8097 18.362 46.4157 18.128 46.8597 17.66C47.3157 17.18 47.5437 16.496 47.5437 15.608V10.082H49.5957ZM54.3551 6.68V20H52.3031V6.68H54.3551ZM59.1012 6.68V20H57.0492V6.68H59.1012ZM68.8651 11.756V17.246C68.8651 17.618 68.9491 17.888 69.1171 18.056C69.2971 18.212 69.5971 18.29 70.0171 18.29H71.2771V20H69.6571C68.7331 20 68.0251 19.784 67.5331 19.352C67.0411 18.92 66.7951 18.218 66.7951 17.246V11.756H65.6251V10.082H66.7951V7.616H68.8651V10.082H71.2771V11.756H68.8651ZM75.2204 11.522C75.5204 11.018 75.9164 10.628 76.4084 10.352C76.9124 10.064 77.5064 9.92 78.1904 9.92V12.044H77.6684C76.8644 12.044 76.2524 12.248 75.8324 12.656C75.4244 13.064 75.2204 13.772 75.2204 14.78V20H73.1684V10.082H75.2204V11.522ZM79.3926 14.996C79.3926 14 79.5966 13.118 80.0046 12.35C80.4246 11.582 80.9886 10.988 81.6966 10.568C82.4166 10.136 83.2086 9.92 84.0726 9.92C84.8526 9.92 85.5306 10.076 86.1066 10.388C86.6946 10.688 87.1626 11.066 87.5106 11.522V10.082H89.5806V20H87.5106V18.524C87.1626 18.992 86.6886 19.382 86.0886 19.694C85.4886 20.006 84.8046 20.162 84.0366 20.162C83.1846 20.162 82.4046 19.946 81.6966 19.514C80.9886 19.07 80.4246 18.458 80.0046 17.678C79.5966 16.886 79.3926 15.992 79.3926 14.996ZM87.5106 15.032C87.5106 14.348 87.3666 13.754 87.0786 13.25C86.8026 12.746 86.4366 12.362 85.9806 12.098C85.5246 11.834 85.0326 11.702 84.5046 11.702C83.9766 11.702 83.4846 11.834 83.0286 12.098C82.5726 12.35 82.2006 12.728 81.9126 13.232C81.6366 13.724 81.4986 14.312 81.4986 14.996C81.4986 15.68 81.6366 16.28 81.9126 16.796C82.2006 17.312 82.5726 17.708 83.0286 17.984C83.4966 18.248 83.9886 18.38 84.5046 18.38C85.0326 18.38 85.5246 18.248 85.9806 17.984C86.4366 17.72 86.8026 17.336 87.0786 16.832C87.3666 16.316 87.5106 15.716 87.5106 15.032ZM97.2798 9.92C98.0598 9.92 98.7558 10.082 99.3678 10.406C99.9918 10.73 100.478 11.21 100.826 11.846C101.174 12.482 101.348 13.25 101.348 14.15V20H99.3138V14.456C99.3138 13.568 99.0918 12.89 98.6478 12.422C98.2038 11.942 97.5978 11.702 96.8298 11.702C96.0618 11.702 95.4498 11.942 94.9938 12.422C94.5498 12.89 94.3278 13.568 94.3278 14.456V20H92.2758V10.082H94.3278V11.216C94.6638 10.808 95.0898 10.49 95.6058 10.262C96.1338 10.034 96.6918 9.92 97.2798 9.92ZM107.565 20.162C106.785 20.162 106.083 20.024 105.459 19.748C104.847 19.46 104.361 19.076 104.001 18.596C103.641 18.104 103.449 17.558 103.425 16.958H105.549C105.585 17.378 105.783 17.732 106.143 18.02C106.515 18.296 106.977 18.434 107.529 18.434C108.105 18.434 108.549 18.326 108.861 18.11C109.185 17.882 109.347 17.594 109.347 17.246C109.347 16.874 109.167 16.598 108.807 16.418C108.459 16.238 107.901 16.04 107.133 15.824C106.389 15.62 105.783 15.422 105.315 15.23C104.847 15.038 104.439 14.744 104.091 14.348C103.755 13.952 103.587 13.43 103.587 12.782C103.587 12.254 103.743 11.774 104.055 11.342C104.367 10.898 104.811 10.55 105.387 10.298C105.975 10.046 106.647 9.92 107.403 9.92C108.531 9.92 109.437 10.208 110.121 10.784C110.817 11.348 111.189 12.122 111.237 13.106H109.185C109.149 12.662 108.969 12.308 108.645 12.044C108.321 11.78 107.883 11.648 107.331 11.648C106.791 11.648 106.377 11.75 106.089 11.954C105.801 12.158 105.657 12.428 105.657 12.764C105.657 13.028 105.753 13.25 105.945 13.43C106.137 13.61 106.371 13.754 106.647 13.862C106.923 13.958 107.331 14.084 107.871 14.24C108.591 14.432 109.179 14.63 109.635 14.834C110.103 15.026 110.505 15.314 110.841 15.698C111.177 16.082 111.351 16.592 111.363 17.228C111.363 17.792 111.207 18.296 110.895 18.74C110.583 19.184 110.139 19.532 109.563 19.784C108.999 20.036 108.333 20.162 107.565 20.162ZM115.632 11.54C115.98 11.084 116.454 10.7 117.054 10.388C117.654 10.076 118.332 9.92 119.088 9.92C119.952 9.92 120.738 10.136 121.446 10.568C122.166 10.988 122.73 11.582 123.138 12.35C123.546 13.118 123.75 14 123.75 14.996C123.75 15.992 123.546 16.886 123.138 17.678C122.73 18.458 122.166 19.07 121.446 19.514C120.738 19.946 119.952 20.162 119.088 20.162C118.332 20.162 117.66 20.012 117.072 19.712C116.484 19.4 116.004 19.016 115.632 18.56V24.716H113.58V10.082H115.632V11.54ZM121.662 14.996C121.662 14.312 121.518 13.724 121.23 13.232C120.954 12.728 120.582 12.35 120.114 12.098C119.658 11.834 119.166 11.702 118.638 11.702C118.122 11.702 117.63 11.834 117.162 12.098C116.706 12.362 116.334 12.746 116.046 13.25C115.77 13.754 115.632 14.348 115.632 15.032C115.632 15.716 115.77 16.316 116.046 16.832C116.334 17.336 116.706 17.72 117.162 17.984C117.63 18.248 118.122 18.38 118.638 18.38C119.166 18.38 119.658 18.248 120.114 17.984C120.582 17.708 120.954 17.312 121.23 16.796C121.518 16.28 121.662 15.68 121.662 14.996ZM125.096 14.996C125.096 14 125.3 13.118 125.708 12.35C126.128 11.582 126.692 10.988 127.4 10.568C128.12 10.136 128.912 9.92 129.776 9.92C130.556 9.92 131.234 10.076 131.81 10.388C132.398 10.688 132.866 11.066 133.214 11.522V10.082H135.284V20H133.214V18.524C132.866 18.992 132.392 19.382 131.792 19.694C131.192 20.006 130.508 20.162 129.74 20.162C128.888 20.162 128.108 19.946 127.4 19.514C126.692 19.07 126.128 18.458 125.708 17.678C125.3 16.886 125.096 15.992 125.096 14.996ZM133.214 15.032C133.214 14.348 133.07 13.754 132.782 13.25C132.506 12.746 132.14 12.362 131.684 12.098C131.228 11.834 130.736 11.702 130.208 11.702C129.68 11.702 129.188 11.834 128.732 12.098C128.276 12.35 127.904 12.728 127.616 13.232C127.34 13.724 127.202 14.312 127.202 14.996C127.202 15.68 127.34 16.28 127.616 16.796C127.904 17.312 128.276 17.708 128.732 17.984C129.2 18.248 129.692 18.38 130.208 18.38C130.736 18.38 131.228 18.248 131.684 17.984C132.14 17.72 132.506 17.336 132.782 16.832C133.07 16.316 133.214 15.716 133.214 15.032ZM140.031 11.522C140.331 11.018 140.727 10.628 141.219 10.352C141.723 10.064 142.317 9.92 143.001 9.92V12.044H142.479C141.675 12.044 141.063 12.248 140.643 12.656C140.235 13.064 140.031 13.772 140.031 14.78V20H137.979V10.082H140.031V11.522ZM153.977 14.798C153.977 15.17 153.953 15.506 153.905 15.806H146.327C146.387 16.598 146.681 17.234 147.209 17.714C147.737 18.194 148.385 18.434 149.153 18.434C150.257 18.434 151.037 17.972 151.493 17.048H153.707C153.407 17.96 152.861 18.71 152.069 19.298C151.289 19.874 150.317 20.162 149.153 20.162C148.205 20.162 147.353 19.952 146.597 19.532C145.853 19.1 145.265 18.5 144.833 17.732C144.413 16.952 144.203 16.052 144.203 15.032C144.203 14.012 144.407 13.118 144.815 12.35C145.235 11.57 145.817 10.97 146.561 10.55C147.317 10.13 148.181 9.92 149.153 9.92C150.089 9.92 150.923 10.124 151.655 10.532C152.387 10.94 152.957 11.516 153.365 12.26C153.773 12.992 153.977 13.838 153.977 14.798ZM151.835 14.15C151.823 13.394 151.553 12.788 151.025 12.332C150.497 11.876 149.843 11.648 149.063 11.648C148.355 11.648 147.749 11.876 147.245 12.332C146.741 12.776 146.441 13.382 146.345 14.15H151.835ZM161 9.92C161.78 9.92 162.476 10.082 163.088 10.406C163.712 10.73 164.198 11.21 164.546 11.846C164.894 12.482 165.068 13.25 165.068 14.15V20H163.034V14.456C163.034 13.568 162.812 12.89 162.368 12.422C161.924 11.942 161.318 11.702 160.55 11.702C159.782 11.702 159.17 11.942 158.714 12.422C158.27 12.89 158.048 13.568 158.048 14.456V20H155.996V10.082H158.048V11.216C158.384 10.808 158.81 10.49 159.326 10.262C159.854 10.034 160.412 9.92 161 9.92ZM167.002 15.032C167.002 14.012 167.206 13.118 167.614 12.35C168.034 11.57 168.61 10.97 169.342 10.55C170.074 10.13 170.914 9.92 171.862 9.92C173.062 9.92 174.052 10.208 174.832 10.784C175.624 11.348 176.158 12.158 176.434 13.214H174.22C174.04 12.722 173.752 12.338 173.356 12.062C172.96 11.786 172.462 11.648 171.862 11.648C171.022 11.648 170.35 11.948 169.846 12.548C169.354 13.136 169.108 13.964 169.108 15.032C169.108 16.1 169.354 16.934 169.846 17.534C170.35 18.134 171.022 18.434 171.862 18.434C173.05 18.434 173.836 17.912 174.22 16.868H176.434C176.146 17.876 175.606 18.68 174.814 19.28C174.022 19.868 173.038 20.162 171.862 20.162C170.914 20.162 170.074 19.952 169.342 19.532C168.61 19.1 168.034 18.5 167.614 17.732C167.206 16.952 167.002 16.052 167.002 15.032ZM187.407 10.082L181.323 24.662H179.199L181.215 19.838L177.309 10.082H179.595L182.385 17.642L185.283 10.082H187.407Z" fill="#101828"/>
<defs>
<clipPath id="clip0_449_953">
<rect width="9" height="9" fill="white" transform="translate(4.5 9)"/>
</clipPath>
</defs>
</svg>
