<svg width="1318" height="130" viewBox="0 0 1318 130" fill="none" xmlns="http://www.w3.org/2000/svg">
<path d="M17.376 41.544H7.008V47.016C7.456 46.4613 8.096 46.0133 8.928 45.672C9.76 45.3093 10.6453 45.128 11.584 45.128C13.2907 45.128 14.688 45.5013 15.776 46.248C16.864 46.9947 17.6533 47.9547 18.144 49.128C18.6347 50.28 18.88 51.5173 18.88 52.84C18.88 55.2933 18.176 57.2667 16.768 58.76C15.3813 60.2533 13.3973 61 10.816 61C8.384 61 6.44267 60.392 4.992 59.176C3.54133 57.96 2.72 56.3707 2.528 54.408H6.88C7.072 55.2613 7.49867 55.944 8.16 56.456C8.84267 56.968 9.70667 57.224 10.752 57.224C12.0107 57.224 12.96 56.8293 13.6 56.04C14.24 55.2507 14.56 54.2053 14.56 52.904C14.56 51.5813 14.2293 50.5787 13.568 49.896C12.928 49.192 11.9787 48.84 10.72 48.84C9.824 48.84 9.07733 49.064 8.48 49.512C7.88267 49.96 7.456 50.5573 7.2 51.304H2.912V37.608H17.376V41.544ZM22.2898 49.032C22.2898 45.3413 22.9511 42.4507 24.2738 40.36C25.6178 38.2693 27.8364 37.224 30.9298 37.224C34.0231 37.224 36.2311 38.2693 37.5538 40.36C38.8978 42.4507 39.5698 45.3413 39.5698 49.032C39.5698 52.744 38.8978 55.656 37.5538 57.768C36.2311 59.88 34.0231 60.936 30.9298 60.936C27.8364 60.936 25.6178 59.88 24.2738 57.768C22.9511 55.656 22.2898 52.744 22.2898 49.032ZM35.1538 49.032C35.1538 47.4533 35.0471 46.1307 34.8338 45.064C34.6418 43.976 34.2364 43.0907 33.6178 42.408C33.0204 41.7253 32.1244 41.384 30.9298 41.384C29.7351 41.384 28.8284 41.7253 28.2098 42.408C27.6124 43.0907 27.2071 43.976 26.9938 45.064C26.8018 46.1307 26.7058 47.4533 26.7058 49.032C26.7058 50.6533 26.8018 52.0187 26.9938 53.128C27.1858 54.216 27.5911 55.1013 28.2098 55.784C28.8284 56.4453 29.7351 56.776 30.9298 56.776C32.1244 56.776 33.0311 56.4453 33.6498 55.784C34.2684 55.1013 34.6738 54.216 34.8658 53.128C35.0578 52.0187 35.1538 50.6533 35.1538 49.032ZM60.2253 51.56H54.1773V57.768H49.9533V51.56H43.9053V47.656H49.9533V41.448H54.1773V47.656H60.2253V51.56Z" fill="black"/>
<path d="M7.86 96.14C6.56667 96.14 5.38667 95.84 4.32 95.24C3.25333 94.6267 2.40667 93.78 1.78 92.7C1.16667 91.6067 0.86 90.38 0.86 89.02C0.86 87.66 1.16667 86.44 1.78 85.36C2.40667 84.2667 3.25333 83.42 4.32 82.82C5.38667 82.2067 6.56667 81.9 7.86 81.9C9.16667 81.9 10.3533 82.2067 11.42 82.82C12.4867 83.42 13.3267 84.26 13.94 85.34C14.5533 86.42 14.86 87.6467 14.86 89.02C14.86 90.3933 14.5533 91.62 13.94 92.7C13.3267 93.78 12.4867 94.6267 11.42 95.24C10.3533 95.84 9.16667 96.14 7.86 96.14ZM7.86 94.56C8.83333 94.56 9.70667 94.3333 10.48 93.88C11.2667 93.4267 11.88 92.78 12.32 91.94C12.7733 91.1 13 90.1267 13 89.02C13 87.9 12.7733 86.9267 12.32 86.1C11.88 85.26 11.2733 84.6133 10.5 84.16C9.72667 83.7067 8.84667 83.48 7.86 83.48C6.87333 83.48 5.99333 83.7067 5.22 84.16C4.44667 84.6133 3.83333 85.26 3.38 86.1C2.94 86.9267 2.72 87.9 2.72 89.02C2.72 90.1267 2.94 91.1 3.38 91.94C3.83333 92.78 4.44667 93.4267 5.22 93.88C6.00667 94.3333 6.88667 94.56 7.86 94.56ZM26.9827 85.04V96H25.1627V94.38C24.816 94.94 24.3293 95.38 23.7027 95.7C23.0893 96.0067 22.4093 96.16 21.6627 96.16C20.8093 96.16 20.0427 95.9867 19.3627 95.64C18.6827 95.28 18.1427 94.7467 17.7427 94.04C17.356 93.3333 17.1627 92.4733 17.1627 91.46V85.04H18.9627V91.22C18.9627 92.3 19.236 93.1333 19.7827 93.72C20.3293 94.2933 21.076 94.58 22.0227 94.58C22.996 94.58 23.7627 94.28 24.3227 93.68C24.8827 93.08 25.1627 92.2067 25.1627 91.06V85.04H26.9827ZM31.8756 86.82C32.1956 86.1933 32.649 85.7067 33.2356 85.36C33.8356 85.0133 34.5623 84.84 35.4156 84.84V86.72H34.9356C32.8956 86.72 31.8756 87.8267 31.8756 90.04V96H30.0556V85.04H31.8756V86.82ZM42.1686 90.5C42.1686 89.3667 42.3953 88.38 42.8486 87.54C43.3019 86.6867 43.9286 86.0267 44.7286 85.56C45.5419 85.0933 46.4686 84.86 47.5086 84.86C48.8553 84.86 49.9619 85.1867 50.8286 85.84C51.7086 86.4933 52.2886 87.4 52.5686 88.56H50.6086C50.4219 87.8933 50.0553 87.3667 49.5086 86.98C48.9753 86.5933 48.3086 86.4 47.5086 86.4C46.4686 86.4 45.6286 86.76 44.9886 87.48C44.3486 88.1867 44.0286 89.1933 44.0286 90.5C44.0286 91.82 44.3486 92.84 44.9886 93.56C45.6286 94.28 46.4686 94.64 47.5086 94.64C48.3086 94.64 48.9753 94.4533 49.5086 94.08C50.0419 93.7067 50.4086 93.1733 50.6086 92.48H52.5686C52.2753 93.6 51.6886 94.5 50.8086 95.18C49.9286 95.8467 48.8286 96.18 47.5086 96.18C46.4686 96.18 45.5419 95.9467 44.7286 95.48C43.9286 95.0133 43.3019 94.3533 42.8486 93.5C42.3953 92.6467 42.1686 91.6467 42.1686 90.5ZM56.817 81.2V96H54.997V81.2H56.817ZM60.8589 83.26C60.5122 83.26 60.2189 83.14 59.9789 82.9C59.7389 82.66 59.6189 82.3667 59.6189 82.02C59.6189 81.6733 59.7389 81.38 59.9789 81.14C60.2189 80.9 60.5122 80.78 60.8589 80.78C61.1922 80.78 61.4722 80.9 61.6989 81.14C61.9389 81.38 62.0589 81.6733 62.0589 82.02C62.0589 82.3667 61.9389 82.66 61.6989 82.9C61.4722 83.14 61.1922 83.26 60.8589 83.26ZM61.7389 85.04V96H59.9189V85.04H61.7389ZM74.8408 90.1C74.8408 90.4467 74.8208 90.8133 74.7808 91.2H66.0208C66.0874 92.28 66.4541 93.1267 67.1208 93.74C67.8008 94.34 68.6208 94.64 69.5808 94.64C70.3674 94.64 71.0208 94.46 71.5408 94.1C72.0741 93.7267 72.4474 93.2333 72.6608 92.62H74.6208C74.3274 93.6733 73.7408 94.5333 72.8608 95.2C71.9808 95.8533 70.8874 96.18 69.5808 96.18C68.5408 96.18 67.6074 95.9467 66.7808 95.48C65.9674 95.0133 65.3274 94.3533 64.8608 93.5C64.3941 92.6333 64.1608 91.6333 64.1608 90.5C64.1608 89.3667 64.3874 88.3733 64.8408 87.52C65.2941 86.6667 65.9274 86.0133 66.7408 85.56C67.5674 85.0933 68.5141 84.86 69.5808 84.86C70.6208 84.86 71.5408 85.0867 72.3408 85.54C73.1408 85.9933 73.7541 86.62 74.1808 87.42C74.6208 88.2067 74.8408 89.1 74.8408 90.1ZM72.9608 89.72C72.9608 89.0267 72.8074 88.4333 72.5008 87.94C72.1941 87.4333 71.7741 87.0533 71.2408 86.8C70.7208 86.5333 70.1408 86.4 69.5008 86.4C68.5808 86.4 67.7941 86.6933 67.1408 87.28C66.5008 87.8667 66.1341 88.68 66.0408 89.72H72.9608ZM82.5831 84.84C83.9165 84.84 84.9965 85.2467 85.8231 86.06C86.6498 86.86 87.0631 88.02 87.0631 89.54V96H85.2631V89.8C85.2631 88.7067 84.9898 87.8733 84.4431 87.3C83.8965 86.7133 83.1498 86.42 82.2031 86.42C81.2431 86.42 80.4765 86.72 79.9031 87.32C79.3431 87.92 79.0631 88.7933 79.0631 89.94V96H77.2431V85.04H79.0631V86.6C79.4231 86.04 79.9098 85.6067 80.5231 85.3C81.1498 84.9933 81.8365 84.84 82.5831 84.84ZM92.2561 86.54V93C92.2561 93.5333 92.3694 93.9133 92.5961 94.14C92.8228 94.3533 93.2161 94.46 93.7761 94.46H95.1161V96H93.4761C92.4628 96 91.7028 95.7667 91.1961 95.3C90.6894 94.8333 90.4361 94.0667 90.4361 93V86.54H89.0161V85.04H90.4361V82.28H92.2561V85.04H95.1161V86.54H92.2561ZM101.201 96.18C100.361 96.18 99.6079 96.04 98.9413 95.76C98.2746 95.4667 97.7479 95.0667 97.3613 94.56C96.9746 94.04 96.7613 93.4467 96.7213 92.78H98.6013C98.6546 93.3267 98.9079 93.7733 99.3613 94.12C99.8279 94.4667 100.435 94.64 101.181 94.64C101.875 94.64 102.421 94.4867 102.821 94.18C103.221 93.8733 103.421 93.4867 103.421 93.02C103.421 92.54 103.208 92.1867 102.781 91.96C102.355 91.72 101.695 91.4867 100.801 91.26C99.9879 91.0467 99.3213 90.8333 98.8013 90.62C98.2946 90.3933 97.8546 90.0667 97.4813 89.64C97.1213 89.2 96.9413 88.6267 96.9413 87.92C96.9413 87.36 97.1079 86.8467 97.4413 86.38C97.7746 85.9133 98.2479 85.5467 98.8613 85.28C99.4746 85 100.175 84.86 100.961 84.86C102.175 84.86 103.155 85.1667 103.901 85.78C104.648 86.3933 105.048 87.2333 105.101 88.3H103.281C103.241 87.7267 103.008 87.2667 102.581 86.92C102.168 86.5733 101.608 86.4 100.901 86.4C100.248 86.4 99.7279 86.54 99.3413 86.82C98.9546 87.1 98.7613 87.4667 98.7613 87.92C98.7613 88.28 98.8746 88.58 99.1013 88.82C99.3413 89.0467 99.6346 89.2333 99.9813 89.38C100.341 89.5133 100.835 89.6667 101.461 89.84C102.248 90.0533 102.888 90.2667 103.381 90.48C103.875 90.68 104.295 90.9867 104.641 91.4C105.001 91.8133 105.188 92.3533 105.201 93.02C105.201 93.62 105.035 94.16 104.701 94.64C104.368 95.12 103.895 95.5 103.281 95.78C102.681 96.0467 101.988 96.18 101.201 96.18ZM112.423 90.48C112.423 89.36 112.649 88.38 113.103 87.54C113.556 86.6867 114.176 86.0267 114.963 85.56C115.763 85.0933 116.649 84.86 117.623 84.86C118.583 84.86 119.416 85.0667 120.123 85.48C120.829 85.8933 121.356 86.4133 121.703 87.04V85.04H123.543V96H121.703V93.96C121.343 94.6 120.803 95.1333 120.083 95.56C119.376 95.9733 118.549 96.18 117.603 96.18C116.629 96.18 115.749 95.94 114.963 95.46C114.176 94.98 113.556 94.3067 113.103 93.44C112.649 92.5733 112.423 91.5867 112.423 90.48ZM121.703 90.5C121.703 89.6733 121.536 88.9533 121.203 88.34C120.869 87.7267 120.416 87.26 119.843 86.94C119.283 86.6067 118.663 86.44 117.983 86.44C117.303 86.44 116.683 86.6 116.123 86.92C115.563 87.24 115.116 87.7067 114.783 88.32C114.449 88.9333 114.283 89.6533 114.283 90.48C114.283 91.32 114.449 92.0533 114.783 92.68C115.116 93.2933 115.563 93.7667 116.123 94.1C116.683 94.42 117.303 94.58 117.983 94.58C118.663 94.58 119.283 94.42 119.843 94.1C120.416 93.7667 120.869 93.2933 121.203 92.68C121.536 92.0533 121.703 91.3267 121.703 90.5ZM128.438 86.82C128.758 86.1933 129.211 85.7067 129.798 85.36C130.398 85.0133 131.125 84.84 131.978 84.84V86.72H131.498C129.458 86.72 128.438 87.8267 128.438 90.04V96H126.618V85.04H128.438V86.82ZM144.079 90.1C144.079 90.4467 144.059 90.8133 144.019 91.2H135.259C135.326 92.28 135.692 93.1267 136.359 93.74C137.039 94.34 137.859 94.64 138.819 94.64C139.606 94.64 140.259 94.46 140.779 94.1C141.312 93.7267 141.686 93.2333 141.899 92.62H143.859C143.566 93.6733 142.979 94.5333 142.099 95.2C141.219 95.8533 140.126 96.18 138.819 96.18C137.779 96.18 136.846 95.9467 136.019 95.48C135.206 95.0133 134.566 94.3533 134.099 93.5C133.632 92.6333 133.399 91.6333 133.399 90.5C133.399 89.3667 133.626 88.3733 134.079 87.52C134.532 86.6667 135.166 86.0133 135.979 85.56C136.806 85.0933 137.752 84.86 138.819 84.86C139.859 84.86 140.779 85.0867 141.579 85.54C142.379 85.9933 142.992 86.62 143.419 87.42C143.859 88.2067 144.079 89.1 144.079 90.1ZM142.199 89.72C142.199 89.0267 142.046 88.4333 141.739 87.94C141.432 87.4333 141.012 87.0533 140.479 86.8C139.959 86.5333 139.379 86.4 138.739 86.4C137.819 86.4 137.032 86.6933 136.379 87.28C135.739 87.8667 135.372 88.68 135.279 89.72H142.199ZM156.273 86.54H153.973V96H152.153V86.54H150.733V85.04H152.153V84.26C152.153 83.0333 152.467 82.14 153.093 81.58C153.733 81.0067 154.753 80.72 156.153 80.72V82.24C155.353 82.24 154.787 82.4 154.453 82.72C154.133 83.0267 153.973 83.54 153.973 84.26V85.04H156.273V86.54ZM168.395 90.1C168.395 90.4467 168.375 90.8133 168.335 91.2H159.575C159.642 92.28 160.009 93.1267 160.675 93.74C161.355 94.34 162.175 94.64 163.135 94.64C163.922 94.64 164.575 94.46 165.095 94.1C165.629 93.7267 166.002 93.2333 166.215 92.62H168.175C167.882 93.6733 167.295 94.5333 166.415 95.2C165.535 95.8533 164.442 96.18 163.135 96.18C162.095 96.18 161.162 95.9467 160.335 95.48C159.522 95.0133 158.882 94.3533 158.415 93.5C157.949 92.6333 157.715 91.6333 157.715 90.5C157.715 89.3667 157.942 88.3733 158.395 87.52C158.849 86.6667 159.482 86.0133 160.295 85.56C161.122 85.0933 162.069 84.86 163.135 84.86C164.175 84.86 165.095 85.0867 165.895 85.54C166.695 85.9933 167.309 86.62 167.735 87.42C168.175 88.2067 168.395 89.1 168.395 90.1ZM166.515 89.72C166.515 89.0267 166.362 88.4333 166.055 87.94C165.749 87.4333 165.329 87.0533 164.795 86.8C164.275 86.5333 163.695 86.4 163.055 86.4C162.135 86.4 161.349 86.6933 160.695 87.28C160.055 87.8667 159.689 88.68 159.595 89.72H166.515ZM170.118 90.48C170.118 89.36 170.344 88.38 170.798 87.54C171.251 86.6867 171.871 86.0267 172.658 85.56C173.458 85.0933 174.344 84.86 175.318 84.86C176.278 84.86 177.111 85.0667 177.818 85.48C178.524 85.8933 179.051 86.4133 179.398 87.04V85.04H181.238V96H179.398V93.96C179.038 94.6 178.498 95.1333 177.778 95.56C177.071 95.9733 176.244 96.18 175.298 96.18C174.324 96.18 173.444 95.94 172.658 95.46C171.871 94.98 171.251 94.3067 170.798 93.44C170.344 92.5733 170.118 91.5867 170.118 90.48ZM179.398 90.5C179.398 89.6733 179.231 88.9533 178.898 88.34C178.564 87.7267 178.111 87.26 177.538 86.94C176.978 86.6067 176.358 86.44 175.678 86.44C174.998 86.44 174.378 86.6 173.818 86.92C173.258 87.24 172.811 87.7067 172.478 88.32C172.144 88.9333 171.978 89.6533 171.978 90.48C171.978 91.32 172.144 92.0533 172.478 92.68C172.811 93.2933 173.258 93.7667 173.818 94.1C174.378 94.42 174.998 94.58 175.678 94.58C176.358 94.58 176.978 94.42 177.538 94.1C178.111 93.7667 178.564 93.2933 178.898 92.68C179.231 92.0533 179.398 91.3267 179.398 90.5ZM186.533 86.54V93C186.533 93.5333 186.647 93.9133 186.873 94.14C187.1 94.3533 187.493 94.46 188.053 94.46H189.393V96H187.753C186.74 96 185.98 95.7667 185.473 95.3C184.967 94.8333 184.713 94.0667 184.713 93V86.54H183.293V85.04H184.713V82.28H186.533V85.04H189.393V86.54H186.533ZM201.319 85.04V96H199.499V94.38C199.152 94.94 198.665 95.38 198.039 95.7C197.425 96.0067 196.745 96.16 195.999 96.16C195.145 96.16 194.379 95.9867 193.699 95.64C193.019 95.28 192.479 94.7467 192.079 94.04C191.692 93.3333 191.499 92.4733 191.499 91.46V85.04H193.299V91.22C193.299 92.3 193.572 93.1333 194.119 93.72C194.665 94.2933 195.412 94.58 196.359 94.58C197.332 94.58 198.099 94.28 198.659 93.68C199.219 93.08 199.499 92.2067 199.499 91.06V85.04H201.319ZM206.212 86.82C206.532 86.1933 206.985 85.7067 207.572 85.36C208.172 85.0133 208.898 84.84 209.752 84.84V86.72H209.272C207.232 86.72 206.212 87.8267 206.212 90.04V96H204.392V85.04H206.212V86.82ZM221.853 90.1C221.853 90.4467 221.833 90.8133 221.793 91.2H213.033C213.099 92.28 213.466 93.1267 214.133 93.74C214.813 94.34 215.633 94.64 216.593 94.64C217.379 94.64 218.033 94.46 218.553 94.1C219.086 93.7267 219.459 93.2333 219.673 92.62H221.633C221.339 93.6733 220.753 94.5333 219.873 95.2C218.993 95.8533 217.899 96.18 216.593 96.18C215.553 96.18 214.619 95.9467 213.793 95.48C212.979 95.0133 212.339 94.3533 211.873 93.5C211.406 92.6333 211.173 91.6333 211.173 90.5C211.173 89.3667 211.399 88.3733 211.853 87.52C212.306 86.6667 212.939 86.0133 213.753 85.56C214.579 85.0933 215.526 84.86 216.593 84.86C217.633 84.86 218.553 85.0867 219.353 85.54C220.153 85.9933 220.766 86.62 221.193 87.42C221.633 88.2067 221.853 89.1 221.853 90.1ZM219.973 89.72C219.973 89.0267 219.819 88.4333 219.513 87.94C219.206 87.4333 218.786 87.0533 218.253 86.8C217.733 86.5333 217.153 86.4 216.513 86.4C215.593 86.4 214.806 86.6933 214.153 87.28C213.513 87.8667 213.146 88.68 213.053 89.72H219.973ZM223.575 90.48C223.575 89.36 223.802 88.38 224.255 87.54C224.708 86.6867 225.328 86.0267 226.115 85.56C226.915 85.0933 227.808 84.86 228.795 84.86C229.648 84.86 230.442 85.06 231.175 85.46C231.908 85.8467 232.468 86.36 232.855 87V81.2H234.695V96H232.855V93.94C232.495 94.5933 231.962 95.1333 231.255 95.56C230.548 95.9733 229.722 96.18 228.775 96.18C227.802 96.18 226.915 95.94 226.115 95.46C225.328 94.98 224.708 94.3067 224.255 93.44C223.802 92.5733 223.575 91.5867 223.575 90.48ZM232.855 90.5C232.855 89.6733 232.688 88.9533 232.355 88.34C232.022 87.7267 231.568 87.26 230.995 86.94C230.435 86.6067 229.815 86.44 229.135 86.44C228.455 86.44 227.835 86.6 227.275 86.92C226.715 87.24 226.268 87.7067 225.935 88.32C225.602 88.9333 225.435 89.6533 225.435 90.48C225.435 91.32 225.602 92.0533 225.935 92.68C226.268 93.2933 226.715 93.7667 227.275 94.1C227.835 94.42 228.455 94.58 229.135 94.58C229.815 94.58 230.435 94.42 230.995 94.1C231.568 93.7667 232.022 93.2933 232.355 92.68C232.688 92.0533 232.855 91.3267 232.855 90.5ZM244.043 83.26C243.696 83.26 243.403 83.14 243.163 82.9C242.923 82.66 242.803 82.3667 242.803 82.02C242.803 81.6733 242.923 81.38 243.163 81.14C243.403 80.9 243.696 80.78 244.043 80.78C244.376 80.78 244.656 80.9 244.883 81.14C245.123 81.38 245.243 81.6733 245.243 82.02C245.243 82.3667 245.123 82.66 244.883 82.9C244.656 83.14 244.376 83.26 244.043 83.26ZM244.923 85.04V96H243.103V85.04H244.923ZM253.364 84.84C254.698 84.84 255.778 85.2467 256.604 86.06C257.431 86.86 257.844 88.02 257.844 89.54V96H256.044V89.8C256.044 88.7067 255.771 87.8733 255.224 87.3C254.678 86.7133 253.931 86.42 252.984 86.42C252.024 86.42 251.258 86.72 250.684 87.32C250.124 87.92 249.844 88.7933 249.844 89.94V96H248.024V85.04H249.844V86.6C250.204 86.04 250.691 85.6067 251.304 85.3C251.931 84.9933 252.618 84.84 253.364 84.84Z" fill="#1D2939"/>
<line x1="332.5" y1="2.18557e-08" x2="332.5" y2="130" stroke="url(#paint0_linear_449_673)"/>
<path fill-rule="evenodd" clip-rule="evenodd" d="M426 87C438.15 87 448 77.1503 448 65C448 52.8497 438.15 43 426 43C413.85 43 404 52.8497 404 65C404 77.1503 413.85 87 426 87ZM432.863 53.2485C433.197 52.0619 432.046 51.3601 430.994 52.1094L416.312 62.5685C415.172 63.3811 415.351 65 416.582 65H420.448V64.9701H427.983L421.843 67.1363L419.137 76.7515C418.803 77.9382 419.954 78.6399 421.006 77.8906L435.688 67.4315C436.828 66.619 436.649 65 435.418 65H429.555L432.863 53.2485Z" fill="black"/>
<path d="M459.38 74.9093V71.4293H462.14V57.3893H459.38V53.9093H470.18C471.46 53.9093 472.57 54.1293 473.51 54.5693C474.47 54.9893 475.21 55.5993 475.73 56.3993C476.27 57.1793 476.54 58.1193 476.54 59.2193V59.5193C476.54 60.4793 476.36 61.2693 476 61.8893C475.64 62.4893 475.21 62.9593 474.71 63.2993C474.23 63.6193 473.77 63.8493 473.33 63.9893V64.5293C473.77 64.6493 474.25 64.8793 474.77 65.2193C475.29 65.5393 475.73 66.0093 476.09 66.6293C476.47 67.2493 476.66 68.0593 476.66 69.0593V69.3593C476.66 70.5193 476.39 71.5193 475.85 72.3593C475.31 73.1793 474.56 73.8093 473.6 74.2493C472.66 74.6893 471.56 74.9093 470.3 74.9093H459.38ZM466.1 71.3093H469.82C470.68 71.3093 471.37 71.0993 471.89 70.6793C472.43 70.2593 472.7 69.6593 472.7 68.8793V68.5793C472.7 67.7993 472.44 67.1993 471.92 66.7793C471.4 66.3593 470.7 66.1493 469.82 66.1493H466.1V71.3093ZM466.1 62.5493H469.76C470.58 62.5493 471.25 62.3393 471.77 61.9193C472.31 61.4993 472.58 60.9193 472.58 60.1793V59.8793C472.58 59.1193 472.32 58.5393 471.8 58.1393C471.28 57.7193 470.6 57.5093 469.76 57.5093H466.1V62.5493Z" fill="black"/>
<path d="M485.602 75.3293C484.122 75.3293 482.792 75.0293 481.612 74.4293C480.432 73.8293 479.502 72.9593 478.822 71.8193C478.142 70.6793 477.802 69.3093 477.802 67.7093V67.2293C477.802 65.6293 478.142 64.2593 478.822 63.1193C479.502 61.9793 480.432 61.1093 481.612 60.5093C482.792 59.9093 484.122 59.6093 485.602 59.6093C487.082 59.6093 488.412 59.9093 489.592 60.5093C490.772 61.1093 491.702 61.9793 492.382 63.1193C493.062 64.2593 493.402 65.6293 493.402 67.2293V67.7093C493.402 69.3093 493.062 70.6793 492.382 71.8193C491.702 72.9593 490.772 73.8293 489.592 74.4293C488.412 75.0293 487.082 75.3293 485.602 75.3293ZM485.602 71.9693C486.762 71.9693 487.722 71.5993 488.482 70.8593C489.242 70.0993 489.622 69.0193 489.622 67.6193V67.3193C489.622 65.9193 489.242 64.8493 488.482 64.1093C487.742 63.3493 486.782 62.9693 485.602 62.9693C484.442 62.9693 483.482 63.3493 482.722 64.1093C481.962 64.8493 481.582 65.9193 481.582 67.3193V67.6193C481.582 69.0193 481.962 70.0993 482.722 70.8593C483.482 71.5993 484.442 71.9693 485.602 71.9693Z" fill="black"/>
<path d="M495.391 74.9093V53.9093H499.171V74.9093H495.391Z" fill="black"/>
<path d="M507.56 74.9093C506.58 74.9093 505.78 74.6093 505.16 74.0093C504.56 73.3893 504.26 72.5693 504.26 71.5493V63.1493H500.54V60.0293H504.26V55.4093H508.04V60.0293H512.12V63.1493H508.04V70.8893C508.04 71.4893 508.32 71.7893 508.88 71.7893H511.76V74.9093H507.56Z" fill="black"/>
<path d="M520.221 75.3293C518.281 75.3293 516.691 74.9093 515.451 74.0693C514.211 73.2293 513.461 72.0293 513.201 70.4693L516.681 69.5693C516.821 70.2693 517.051 70.8193 517.371 71.2193C517.711 71.6193 518.121 71.9093 518.601 72.0893C519.101 72.2493 519.641 72.3293 520.221 72.3293C521.101 72.3293 521.751 72.1793 522.171 71.8793C522.591 71.5593 522.801 71.1693 522.801 70.7093C522.801 70.2493 522.601 69.8993 522.201 69.6593C521.801 69.3993 521.161 69.1893 520.281 69.0293L519.441 68.8793C518.401 68.6793 517.451 68.4093 516.591 68.0693C515.731 67.7093 515.041 67.2193 514.521 66.5993C514.001 65.9793 513.741 65.1793 513.741 64.1993C513.741 62.7193 514.281 61.5893 515.361 60.8093C516.441 60.0093 517.861 59.6093 519.621 59.6093C521.281 59.6093 522.661 59.9793 523.761 60.7193C524.861 61.4593 525.581 62.4293 525.921 63.6293L522.411 64.7093C522.251 63.9493 521.921 63.4093 521.421 63.0893C520.941 62.7693 520.341 62.6093 519.621 62.6093C518.901 62.6093 518.351 62.7393 517.971 62.9993C517.591 63.2393 517.401 63.5793 517.401 64.0193C517.401 64.4993 517.601 64.8593 518.001 65.0993C518.401 65.3193 518.941 65.4893 519.621 65.6093L520.461 65.7593C521.581 65.9593 522.591 66.2293 523.491 66.5693C524.411 66.8893 525.131 67.3593 525.651 67.9793C526.191 68.5793 526.461 69.3993 526.461 70.4393C526.461 71.9993 525.891 73.2093 524.751 74.0693C523.631 74.9093 522.121 75.3293 520.221 75.3293Z" fill="black"/>
<path d="M528.274 74.9093V53.9093H532.054V61.8593H532.594C532.754 61.5393 533.004 61.2193 533.344 60.8993C533.684 60.5793 534.134 60.3193 534.694 60.1193C535.274 59.8993 536.004 59.7893 536.884 59.7893C538.044 59.7893 539.054 60.0593 539.914 60.5993C540.794 61.1193 541.474 61.8493 541.954 62.7893C542.434 63.7093 542.674 64.7893 542.674 66.0293V74.9093H538.894V66.3293C538.894 65.2093 538.614 64.3693 538.054 63.8093C537.514 63.2493 536.734 62.9693 535.714 62.9693C534.554 62.9693 533.654 63.3593 533.014 64.1393C532.374 64.8993 532.054 65.9693 532.054 67.3493V74.9093H528.274Z" fill="black"/>
<path d="M545.26 74.9093V60.0293H549.04V74.9093H545.26ZM547.15 58.2893C546.47 58.2893 545.89 58.0693 545.41 57.6293C544.95 57.1893 544.72 56.6093 544.72 55.8893C544.72 55.1693 544.95 54.5893 545.41 54.1493C545.89 53.7093 546.47 53.4893 547.15 53.4893C547.85 53.4893 548.43 53.7093 548.89 54.1493C549.35 54.5893 549.58 55.1693 549.58 55.8893C549.58 56.6093 549.35 57.1893 548.89 57.6293C548.43 58.0693 547.85 58.2893 547.15 58.2893Z" fill="black"/>
<path d="M554.189 74.9093V63.1493H550.409V60.0293H554.189V57.2693C554.189 56.2493 554.489 55.4393 555.089 54.8393C555.709 54.2193 556.509 53.9093 557.489 53.9093H561.389V57.0293H558.809C558.249 57.0293 557.969 57.3293 557.969 57.9293V60.0293H561.869V63.1493H557.969V74.9093H554.189Z" fill="black"/>
<path d="M568.702 74.9093C567.722 74.9093 566.922 74.6093 566.302 74.0093C565.702 73.3893 565.402 72.5693 565.402 71.5493V63.1493H561.682V60.0293H565.402V55.4093H569.182V60.0293H573.262V63.1493H569.182V70.8893C569.182 71.4893 569.462 71.7893 570.022 71.7893H572.902V74.9093H568.702Z" fill="black"/>
<path fill-rule="evenodd" clip-rule="evenodd" d="M620.966 44.448C620.461 44.3441 619.94 44.3441 619.435 44.448C618.851 44.5681 618.329 44.8603 617.914 45.0927L617.801 45.1559L603.742 52.9667C603.703 52.9883 603.663 53.0103 603.622 53.033C603.183 53.2748 602.63 53.5789 602.206 54.0391C601.84 54.4369 601.562 54.9084 601.393 55.422C601.196 56.0161 601.199 56.6465 601.201 57.1478C601.201 57.1947 601.201 57.2404 601.201 57.2849V72.7068C601.201 72.7513 601.201 72.797 601.201 72.8438C601.199 73.3452 601.196 73.9755 601.393 74.5697C601.562 75.0833 601.84 75.5548 602.206 75.9526C602.63 76.4127 603.183 76.7168 603.622 76.9587C603.663 76.9813 603.703 77.0034 603.742 77.025L617.801 84.8358L617.914 84.899C618.329 85.1313 618.851 85.4236 619.435 85.5436C619.94 85.6475 620.461 85.6475 620.966 85.5436C621.549 85.4236 622.071 85.1313 622.486 84.899L622.599 84.8358L636.659 77.025C636.676 77.0154 636.693 77.0058 636.711 76.9961C636.733 76.9838 636.756 76.9713 636.779 76.9587C637.218 76.7169 637.77 76.4127 638.194 75.9526C638.561 75.5548 638.838 75.0833 639.008 74.5697C639.204 73.9755 639.202 73.3452 639.2 72.8438C639.2 72.797 639.199 72.7513 639.199 72.7068V57.2849C639.199 57.2404 639.2 57.1947 639.2 57.1478C639.202 56.6465 639.204 56.0161 639.008 55.422C638.838 54.9084 638.561 54.4369 638.194 54.0391C637.77 53.5789 637.218 53.2748 636.779 53.0329L636.777 53.0321C636.737 53.0098 636.697 52.988 636.659 52.9667L622.599 45.1559L622.486 45.0927C622.071 44.8603 621.549 44.5681 620.966 44.448ZM619.647 48.4775C619.935 48.3176 620.081 48.2368 620.191 48.1839L620.2 48.1795L620.209 48.1839C620.319 48.2368 620.466 48.3176 620.754 48.4775L633.387 55.4961L620.2 62.8223L607.013 55.4962L619.647 48.4775ZM605.001 58.7251L618.3 66.1137L618.3 80.7662L605.587 73.7033C605.283 73.5345 605.128 73.4474 605.019 73.378L605.01 73.3721L605.009 73.3612C605.002 73.2324 605.001 73.0545 605.001 72.7068V58.7251Z" fill="black"/>
<path d="M656.491 71.3452H662.539V74.9092H651.874V55.9552H656.491V71.3452Z" fill="black"/>
<path d="M666.793 58.2772C665.983 58.2772 665.317 58.0432 664.795 57.5752C664.291 57.0892 664.039 56.4952 664.039 55.7932C664.039 55.0732 664.291 54.4792 664.795 54.0112C665.317 53.5252 665.983 53.2822 666.793 53.2822C667.585 53.2822 668.233 53.5252 668.737 54.0112C669.259 54.4792 669.52 55.0732 669.52 55.7932C669.52 56.4952 669.259 57.0892 668.737 57.5752C668.233 58.0432 667.585 58.2772 666.793 58.2772ZM669.088 59.8432V74.9092H664.471V59.8432H669.088Z" fill="black"/>
<path d="M677.888 59.6272C678.95 59.6272 679.877 59.8432 680.669 60.2752C681.479 60.7072 682.1 61.2742 682.532 61.9762V59.8432H687.149V74.8822C687.149 76.2682 686.87 77.5192 686.312 78.6352C685.772 79.7692 684.935 80.6692 683.801 81.3352C682.685 82.0012 681.29 82.3342 679.616 82.3342C677.384 82.3342 675.575 81.8032 674.189 80.7412C672.803 79.6972 672.011 78.2752 671.813 76.4752H676.376C676.52 77.0512 676.862 77.5012 677.402 77.8252C677.942 78.1672 678.608 78.3382 679.4 78.3382C680.354 78.3382 681.11 78.0592 681.668 77.5012C682.244 76.9612 682.532 76.0882 682.532 74.8822V72.7492C682.082 73.4512 681.461 74.0272 680.669 74.4772C679.877 74.9092 678.95 75.1252 677.888 75.1252C676.646 75.1252 675.521 74.8102 674.513 74.1802C673.505 73.5322 672.704 72.6232 672.11 71.4532C671.534 70.2652 671.246 68.8972 671.246 67.3492C671.246 65.8012 671.534 64.4422 672.11 63.2722C672.704 62.1022 673.505 61.2022 674.513 60.5722C675.521 59.9422 676.646 59.6272 677.888 59.6272ZM682.532 67.3762C682.532 66.2242 682.208 65.3152 681.56 64.6492C680.93 63.9832 680.156 63.6502 679.238 63.6502C678.32 63.6502 677.537 63.9832 676.889 64.6492C676.259 65.2972 675.944 66.1972 675.944 67.3492C675.944 68.5012 676.259 69.4192 676.889 70.1032C677.537 70.7692 678.32 71.1022 679.238 71.1022C680.156 71.1022 680.93 70.7692 681.56 70.1032C682.208 69.4372 682.532 68.5282 682.532 67.3762Z" fill="black"/>
<path d="M699.48 59.6812C701.208 59.6812 702.594 60.2572 703.638 61.4092C704.682 62.5432 705.204 64.1092 705.204 66.1072V74.9092H700.614V66.7282C700.614 65.7202 700.353 64.9372 699.831 64.3792C699.309 63.8212 698.607 63.5422 697.725 63.5422C696.843 63.5422 696.141 63.8212 695.619 64.3792C695.097 64.9372 694.836 65.7202 694.836 66.7282V74.9092H690.219V54.9292H694.836V61.8682C695.304 61.2022 695.943 60.6712 696.753 60.2752C697.563 59.8792 698.472 59.6812 699.48 59.6812Z" fill="black"/>
<path d="M716.54 70.9942V74.9092H714.191C712.517 74.9092 711.212 74.5042 710.276 73.6942C709.34 72.8662 708.872 71.5252 708.872 69.6712V63.6772H707.036V59.8432H708.872V56.1712H713.489V59.8432H716.513V63.6772H713.489V69.7252C713.489 70.1752 713.597 70.4992 713.813 70.6972C714.029 70.8952 714.389 70.9942 714.893 70.9942H716.54Z" fill="black"/>
<path d="M723.458 61.9762C723.89 61.2742 724.511 60.7072 725.321 60.2752C726.131 59.8432 727.058 59.6272 728.102 59.6272C729.344 59.6272 730.469 59.9422 731.477 60.5722C732.485 61.2022 733.277 62.1022 733.853 63.2722C734.447 64.4422 734.744 65.8012 734.744 67.3492C734.744 68.8972 734.447 70.2652 733.853 71.4532C733.277 72.6232 732.485 73.5322 731.477 74.1802C730.469 74.8102 729.344 75.1252 728.102 75.1252C727.04 75.1252 726.113 74.9182 725.321 74.5042C724.529 74.0722 723.908 73.5052 723.458 72.8032V74.9092H718.841V54.9292H723.458V61.9762ZM730.046 67.3492C730.046 66.1972 729.722 65.2972 729.074 64.6492C728.444 63.9832 727.661 63.6502 726.725 63.6502C725.807 63.6502 725.024 63.9832 724.376 64.6492C723.746 65.3152 723.431 66.2242 723.431 67.3762C723.431 68.5282 723.746 69.4372 724.376 70.1032C725.024 70.7692 725.807 71.1022 726.725 71.1022C727.643 71.1022 728.426 70.7692 729.074 70.1032C729.722 69.4192 730.046 68.5012 730.046 67.3492Z" fill="black"/>
<path d="M743.755 75.1252C742.279 75.1252 740.947 74.8102 739.759 74.1802C738.589 73.5502 737.662 72.6502 736.978 71.4802C736.312 70.3102 735.979 68.9422 735.979 67.3762C735.979 65.8282 736.321 64.4692 737.005 63.2992C737.689 62.1112 738.625 61.2022 739.813 60.5722C741.001 59.9422 742.333 59.6272 743.809 59.6272C745.285 59.6272 746.617 59.9422 747.805 60.5722C748.993 61.2022 749.929 62.1112 750.613 63.2992C751.297 64.4692 751.639 65.8282 751.639 67.3762C751.639 68.9242 751.288 70.2922 750.586 71.4802C749.902 72.6502 748.957 73.5502 747.751 74.1802C746.563 74.8102 745.231 75.1252 743.755 75.1252ZM743.755 71.1292C744.637 71.1292 745.384 70.8052 745.996 70.1572C746.626 69.5092 746.941 68.5822 746.941 67.3762C746.941 66.1702 746.635 65.2432 746.023 64.5952C745.429 63.9472 744.691 63.6232 743.809 63.6232C742.909 63.6232 742.162 63.9472 741.568 64.5952C740.974 65.2252 740.677 66.1522 740.677 67.3762C740.677 68.5822 740.965 69.5092 741.541 70.1572C742.135 70.8052 742.873 71.1292 743.755 71.1292Z" fill="black"/>
<path d="M762.728 74.9092L759.839 70.7242L757.409 74.9092H752.414L757.382 67.2142L752.279 59.8432H757.463L760.352 64.0012L762.782 59.8432H767.777L762.728 67.4302L767.912 74.9092H762.728Z" fill="black"/>
<path opacity="0.8" d="M831.707 52.1631C831.274 51.7309 830.842 51.2986 830.41 50.8664C829.113 49.4833 827.73 48.1002 826.001 47.2358C824.013 46.1984 821.852 46.4578 819.691 46.4578C816.406 46.4578 808.194 46.4578 803.353 46.4578L806.638 50.8664C812.603 50.8664 821.938 50.8664 826.261 50.8664C828.076 50.8664 829.632 51.2122 831.102 52.1631C831.361 52.2495 831.62 52.2495 831.707 52.1631Z" fill="black"/>
<path opacity="0.9" d="M835.337 59.2517C834.905 58.8195 834.473 58.3873 834.04 57.955C832.744 56.5719 831.361 55.1888 829.632 54.3244C827.644 53.2871 825.483 53.5464 823.321 53.5464C820.469 53.5464 813.64 53.5464 808.799 53.5464L812.084 57.955C817.962 57.955 826.001 57.955 829.978 57.955C831.793 57.955 833.349 58.3008 834.818 59.2517C834.991 59.3381 835.164 59.3381 835.337 59.2517Z" fill="black"/>
<path d="M839.4 66.167C838.968 65.7348 838.535 65.3025 838.103 64.8703C836.807 63.4872 835.423 62.1041 833.695 61.2397C831.706 60.2023 829.545 60.4617 827.384 60.4617C824.704 60.4617 818.826 60.4617 814.072 60.4617L817.357 64.8703C823.062 64.8703 830.323 64.8703 833.954 64.8703C835.769 64.8703 837.325 65.2161 838.795 66.167C839.054 66.2534 839.227 66.3399 839.4 66.167Z" fill="black"/>
<path opacity="0.8" d="M803.007 77.8368C803.439 78.269 803.871 78.7012 804.303 79.1335C805.6 80.5166 806.983 81.8997 808.712 82.7641C810.7 83.8014 812.861 83.5421 815.023 83.5421H831.36L828.076 79.1335C822.111 79.1335 812.775 79.1335 808.453 79.1335C806.637 79.1335 805.081 78.7877 803.612 77.8368C803.353 77.7504 803.18 77.7504 803.007 77.8368Z" fill="black"/>
<path opacity="0.9" d="M799.376 70.7487C799.809 71.1809 800.241 71.6131 800.673 72.0453C801.97 73.4284 803.353 74.8116 805.082 75.676C807.07 76.7133 809.231 76.454 811.392 76.454H825.915L822.63 72.0453C816.752 72.0453 808.712 72.0453 804.736 72.0453C802.921 72.0453 801.365 71.6996 799.895 70.7487C799.722 70.6622 799.549 70.6622 799.376 70.7487Z" fill="black"/>
<path d="M795.4 63.7465C795.832 64.1787 796.264 64.6109 796.697 65.0431C797.993 66.4262 799.376 67.8094 801.105 68.6738C803.093 69.7111 805.255 69.4518 807.416 69.4518H820.728L817.443 65.0431C811.738 65.0431 804.477 65.0431 800.846 65.0431C799.031 65.0431 797.475 64.6974 796.005 63.7465C795.746 63.66 795.573 63.66 795.4 63.7465Z" fill="black"/>
<path d="M849.332 55.0081V75.0001H853.728V66.7401H862.1V63.3241H853.728V58.7041H863.388V55.0081H849.332Z" fill="black"/>
<path d="M874.414 66.2081H867.946C867.964 65.9281 868.02 65.6107 868.114 65.2561C868.226 64.9014 868.403 64.5654 868.646 64.2481C868.907 63.9307 869.243 63.6694 869.654 63.4641C870.083 63.2401 870.615 63.1281 871.25 63.1281C872.22 63.1281 872.939 63.3894 873.406 63.9121C873.891 64.4347 874.227 65.2001 874.414 66.2081ZM867.946 68.7281H878.39C878.464 67.6081 878.371 66.5347 878.11 65.5081C877.848 64.4814 877.419 63.5667 876.822 62.7641C876.243 61.9614 875.496 61.3267 874.582 60.8601C873.667 60.3747 872.594 60.1321 871.362 60.1321C870.26 60.1321 869.252 60.3281 868.338 60.7201C867.442 61.1121 866.667 61.6534 866.014 62.3441C865.36 63.0161 864.856 63.8187 864.502 64.7521C864.147 65.6854 863.97 66.6934 863.97 67.7761C863.97 68.8961 864.138 69.9227 864.474 70.8561C864.828 71.7894 865.323 72.5921 865.958 73.2641C866.592 73.9361 867.367 74.4587 868.282 74.8321C869.196 75.1867 870.223 75.3641 871.362 75.3641C873.004 75.3641 874.404 74.9907 875.562 74.2441C876.719 73.4974 877.578 72.2561 878.138 70.5201H874.638C874.507 70.9681 874.152 71.3974 873.574 71.8081C872.995 72.2001 872.304 72.3961 871.502 72.3961C870.382 72.3961 869.523 72.1067 868.926 71.5281C868.328 70.9494 868.002 70.0161 867.946 68.7281Z" fill="black"/>
<path d="M879.74 64.9761C879.796 64.0427 880.029 63.2681 880.44 62.6521C880.85 62.0361 881.373 61.5414 882.008 61.1681C882.642 60.7947 883.352 60.5334 884.136 60.3841C884.938 60.2161 885.741 60.1321 886.544 60.1321C887.272 60.1321 888.009 60.1881 888.756 60.3001C889.502 60.3934 890.184 60.5894 890.8 60.8881C891.416 61.1867 891.92 61.6067 892.312 62.1481C892.704 62.6707 892.9 63.3707 892.9 64.2481V71.7801C892.9 72.4334 892.937 73.0587 893.012 73.6561C893.086 74.2534 893.217 74.7014 893.404 75.0001H889.372C889.297 74.7761 889.232 74.5521 889.176 74.3281C889.138 74.0854 889.11 73.8427 889.092 73.6001C888.457 74.2534 887.71 74.7107 886.852 74.9721C885.993 75.2334 885.116 75.3641 884.22 75.3641C883.529 75.3641 882.885 75.2801 882.288 75.1121C881.69 74.9441 881.168 74.6827 880.72 74.3281C880.272 73.9734 879.917 73.5254 879.656 72.9841C879.413 72.4427 879.292 71.7987 879.292 71.0521C879.292 70.2307 879.432 69.5587 879.712 69.0361C880.01 68.4947 880.384 68.0654 880.832 67.7481C881.298 67.4307 881.821 67.1974 882.4 67.0481C882.997 66.8801 883.594 66.7494 884.192 66.6561C884.789 66.5627 885.377 66.4881 885.956 66.4321C886.534 66.3761 887.048 66.2921 887.496 66.1801C887.944 66.0681 888.298 65.9094 888.56 65.7041C888.821 65.4801 888.942 65.1627 888.924 64.7521C888.924 64.3227 888.849 63.9867 888.7 63.7441C888.569 63.4827 888.382 63.2867 888.14 63.1561C887.916 63.0067 887.645 62.9134 887.328 62.8761C887.029 62.8201 886.702 62.7921 886.348 62.7921C885.564 62.7921 884.948 62.9601 884.5 63.2961C884.052 63.6321 883.79 64.1921 883.716 64.9761H879.74ZM888.924 67.9161C888.756 68.0654 888.541 68.1867 888.28 68.2801C888.037 68.3547 887.766 68.4201 887.468 68.4761C887.188 68.5321 886.889 68.5787 886.572 68.6161C886.254 68.6534 885.937 68.7001 885.62 68.7561C885.321 68.8121 885.022 68.8867 884.724 68.9801C884.444 69.0734 884.192 69.2041 883.968 69.3721C883.762 69.5214 883.594 69.7174 883.464 69.9601C883.333 70.2027 883.268 70.5107 883.268 70.8841C883.268 71.2387 883.333 71.5374 883.464 71.7801C883.594 72.0227 883.772 72.2187 883.996 72.3681C884.22 72.4987 884.481 72.5921 884.78 72.6481C885.078 72.7041 885.386 72.7321 885.704 72.7321C886.488 72.7321 887.094 72.6014 887.524 72.3401C887.953 72.0787 888.27 71.7707 888.476 71.4161C888.681 71.0427 888.802 70.6694 888.84 70.2961C888.896 69.9227 888.924 69.6241 888.924 69.4001V67.9161Z" fill="black"/>
<path d="M900.186 60.5241V56.1841H896.21V60.5241H893.802V63.1841H896.21V71.7241C896.21 72.4521 896.331 73.0401 896.574 73.4881C896.817 73.9361 897.143 74.2814 897.554 74.5241C897.983 74.7667 898.469 74.9254 899.01 75.0001C899.57 75.0934 900.158 75.1401 900.774 75.1401C901.166 75.1401 901.567 75.1307 901.978 75.1121C902.389 75.0934 902.762 75.0561 903.098 75.0001V71.9201C902.911 71.9574 902.715 71.9854 902.51 72.0041C902.305 72.0227 902.09 72.0321 901.866 72.0321C901.194 72.0321 900.746 71.9201 900.522 71.6961C900.298 71.4721 900.186 71.0241 900.186 70.3521V63.1841H903.098V60.5241H900.186Z" fill="black"/>
<path d="M904.15 55.0081V75.0001H908.126V67.4121C908.126 65.9374 908.368 64.8827 908.854 64.2481C909.339 63.5947 910.123 63.2681 911.206 63.2681C912.158 63.2681 912.82 63.5667 913.194 64.1641C913.567 64.7427 913.754 65.6294 913.754 66.8241V75.0001H917.73V66.0961C917.73 65.2001 917.646 64.3881 917.478 63.6601C917.328 62.9134 917.058 62.2881 916.666 61.7841C916.274 61.2614 915.732 60.8601 915.042 60.5801C914.37 60.2814 913.502 60.1321 912.438 60.1321C911.691 60.1321 910.926 60.3281 910.142 60.7201C909.358 61.0934 908.714 61.7001 908.21 62.5401H908.126V55.0081H904.15Z" fill="black"/>
<path d="M929.651 66.2081H923.183C923.202 65.9281 923.258 65.6107 923.351 65.2561C923.463 64.9014 923.641 64.5654 923.883 64.2481C924.145 63.9307 924.481 63.6694 924.891 63.4641C925.321 63.2401 925.853 63.1281 926.487 63.1281C927.458 63.1281 928.177 63.3894 928.643 63.9121C929.129 64.4347 929.465 65.2001 929.651 66.2081ZM923.183 68.7281H933.627C933.702 67.6081 933.609 66.5347 933.347 65.5081C933.086 64.4814 932.657 63.5667 932.059 62.7641C931.481 61.9614 930.734 61.3267 929.819 60.8601C928.905 60.3747 927.831 60.1321 926.599 60.1321C925.498 60.1321 924.49 60.3281 923.575 60.7201C922.679 61.1121 921.905 61.6534 921.251 62.3441C920.598 63.0161 920.094 63.8187 919.739 64.7521C919.385 65.6854 919.207 66.6934 919.207 67.7761C919.207 68.8961 919.375 69.9227 919.711 70.8561C920.066 71.7894 920.561 72.5921 921.195 73.2641C921.83 73.9361 922.605 74.4587 923.519 74.8321C924.434 75.1867 925.461 75.3641 926.599 75.3641C928.242 75.3641 929.642 74.9907 930.799 74.2441C931.957 73.4974 932.815 72.2561 933.375 70.5201H929.875C929.745 70.9681 929.39 71.3974 928.811 71.8081C928.233 72.2001 927.542 72.3961 926.739 72.3961C925.619 72.3961 924.761 72.1067 924.163 71.5281C923.566 70.9494 923.239 70.0161 923.183 68.7281Z" fill="black"/>
<path d="M935.145 60.5241V75.0001H939.121V68.4761C939.121 67.8227 939.187 67.2161 939.317 66.6561C939.448 66.0961 939.663 65.6107 939.961 65.2001C940.279 64.7707 940.689 64.4347 941.193 64.1921C941.697 63.9494 942.313 63.8281 943.041 63.8281C943.284 63.8281 943.536 63.8467 943.797 63.8841C944.059 63.9027 944.283 63.9307 944.469 63.9681V60.2721C944.152 60.1787 943.863 60.1321 943.601 60.1321C943.097 60.1321 942.612 60.2067 942.145 60.3561C941.679 60.5054 941.24 60.7201 940.829 61.0001C940.419 61.2614 940.055 61.5881 939.737 61.9801C939.42 62.3534 939.168 62.7641 938.981 63.2121H938.925V60.5241H935.145Z" fill="black"/>
<path d="M950.004 71.3041V58.7041H953.14C954.223 58.7041 955.128 58.8627 955.856 59.1801C956.603 59.4787 957.2 59.9174 957.648 60.4961C958.096 61.0747 958.414 61.7747 958.6 62.5961C958.806 63.3987 958.908 64.3041 958.908 65.3121C958.908 66.4134 958.768 67.3467 958.488 68.1121C958.208 68.8774 957.835 69.5027 957.368 69.9881C956.902 70.4547 956.37 70.7907 955.772 70.9961C955.175 71.2014 954.559 71.3041 953.924 71.3041H950.004ZM945.608 55.0081V75.0001H954.232C955.763 75.0001 957.088 74.7481 958.208 74.2441C959.347 73.7214 960.29 73.0121 961.036 72.1161C961.802 71.2201 962.371 70.1561 962.744 68.9241C963.118 67.6921 963.304 66.3481 963.304 64.8921C963.304 63.2307 963.071 61.7841 962.604 60.5521C962.156 59.3201 961.522 58.2934 960.7 57.4721C959.898 56.6507 958.936 56.0347 957.816 55.6241C956.715 55.2134 955.52 55.0081 954.232 55.0081H945.608Z" fill="black"/>
<path d="M974.846 66.2081H968.378C968.397 65.9281 968.453 65.6107 968.546 65.2561C968.658 64.9014 968.836 64.5654 969.078 64.2481C969.34 63.9307 969.676 63.6694 970.086 63.4641C970.516 63.2401 971.048 63.1281 971.682 63.1281C972.653 63.1281 973.372 63.3894 973.838 63.9121C974.324 64.4347 974.66 65.2001 974.846 66.2081ZM968.378 68.7281H978.822C978.897 67.6081 978.804 66.5347 978.542 65.5081C978.281 64.4814 977.852 63.5667 977.254 62.7641C976.676 61.9614 975.929 61.3267 975.014 60.8601C974.1 60.3747 973.026 60.1321 971.794 60.1321C970.693 60.1321 969.685 60.3281 968.77 60.7201C967.874 61.1121 967.1 61.6534 966.446 62.3441C965.793 63.0161 965.289 63.8187 964.934 64.7521C964.58 65.6854 964.402 66.6934 964.402 67.7761C964.402 68.8961 964.57 69.9227 964.906 70.8561C965.261 71.7894 965.756 72.5921 966.39 73.2641C967.025 73.9361 967.8 74.4587 968.714 74.8321C969.629 75.1867 970.656 75.3641 971.794 75.3641C973.437 75.3641 974.837 74.9907 975.994 74.2441C977.152 73.4974 978.01 72.2561 978.57 70.5201H975.07C974.94 70.9681 974.585 71.3974 974.006 71.8081C973.428 72.2001 972.737 72.3961 971.934 72.3961C970.814 72.3961 969.956 72.1067 969.358 71.5281C968.761 70.9494 968.434 70.0161 968.378 68.7281Z" fill="black"/>
<path d="M988.348 75.0001L993.248 60.5241H989.3L986.248 70.4081H986.192L983.14 60.5241H978.968L983.924 75.0001H988.348Z" fill="black"/>
<circle cx="1042.6" cy="65.25" r="20.5" stroke="black" stroke-width="3"/>
<path d="M1050.73 73.3817C1046.59 77.5211 1041.9 80.2233 1037.73 81.2972C1033.51 82.3808 1030.12 81.7571 1028.1 79.7456C1026.09 77.7342 1025.47 74.3376 1026.55 70.1235C1027.63 65.9472 1030.33 61.2576 1034.47 57.1182C1038.61 52.9788 1043.3 50.2766 1047.47 49.2027C1051.69 48.1191 1055.08 48.7429 1057.1 50.7543C1059.11 52.7657 1059.73 56.1623 1058.65 60.3764C1057.57 64.5528 1054.87 69.2423 1050.73 73.3817Z" stroke="black" stroke-width="3"/>
<path d="M1050.73 57.1182C1054.87 61.2576 1057.57 65.9471 1058.65 70.1235C1059.73 74.3376 1059.11 77.7342 1057.1 79.7456C1055.08 81.757 1051.69 82.3808 1047.47 81.2972C1043.3 80.2233 1038.61 77.5211 1034.47 73.3817C1030.33 69.2423 1027.63 64.5528 1026.55 60.3764C1025.47 56.1623 1026.09 52.7657 1028.1 50.7543C1030.12 48.7429 1033.51 48.1191 1037.73 49.2027C1041.9 50.2766 1046.59 52.9788 1050.73 57.1182Z" stroke="black" stroke-width="3"/>
<path d="M1083.45 75.2401C1088.16 75.2401 1091.34 72.7801 1091.34 68.8501C1091.34 60.5401 1080.3 64.0801 1080.3 59.7001C1080.3 58.4701 1081.41 57.6301 1083.18 57.6301C1085.19 57.6301 1086.45 58.7101 1086.6 60.3601H1090.89C1090.77 56.3701 1087.71 53.7601 1083.18 53.7601C1078.92 53.7601 1075.92 56.2201 1075.92 59.7001C1075.92 67.9501 1086.81 64.8001 1086.81 68.9101C1086.81 70.5001 1085.46 71.3401 1083.45 71.3401C1081.23 71.3401 1079.82 69.9901 1079.64 67.8601H1075.32C1075.5 72.3301 1078.68 75.2401 1083.45 75.2401Z" fill="black"/>
<path d="M1092.36 81.1201H1096.53V73.6501C1097.34 74.6701 1098.81 75.2401 1100.52 75.2401C1104.87 75.2401 1107.81 72.1501 1107.81 67.4401C1107.81 62.7301 1105.11 59.6401 1100.88 59.6401C1098.93 59.6401 1097.43 60.3601 1096.53 61.5301V59.8801H1092.36V81.1201ZM1100.01 71.6401C1097.76 71.6401 1096.29 69.9601 1096.29 67.4401C1096.29 64.8901 1097.76 63.2101 1100.01 63.2101C1102.2 63.2101 1103.7 64.8901 1103.7 67.4401C1103.7 69.9601 1102.2 71.6401 1100.01 71.6401Z" fill="black"/>
<path d="M1108.82 75.0001H1112.99V66.7201C1112.99 64.7701 1114.28 63.3601 1116.11 63.3601C1117.85 63.3601 1119.05 64.6801 1119.05 66.5101V75.0001H1123.22V65.5801C1123.22 62.1001 1121 59.6401 1117.61 59.6401C1115.51 59.6401 1113.86 60.5101 1112.99 61.9801V53.3101H1108.82V75.0001Z" fill="black"/>
<path d="M1134.88 69.8701C1134.55 71.1601 1133.44 71.8201 1131.76 71.8201C1129.66 71.8201 1128.31 70.5001 1128.01 68.3701H1138.87C1138.9 68.0401 1138.93 67.5901 1138.93 67.0201C1138.93 63.5701 1136.8 59.6401 1131.46 59.6401C1126.33 59.6401 1123.99 63.5701 1123.99 67.4101C1123.99 71.2201 1126.63 75.2401 1131.76 75.2401C1135.48 75.2401 1138.36 73.1401 1138.96 69.8701H1134.88ZM1131.46 62.7001C1133.47 62.7001 1134.64 64.0501 1134.76 65.7301H1128.07C1128.43 63.6301 1129.57 62.7001 1131.46 62.7001Z" fill="black"/>
<path d="M1149.87 63.3601V59.8801H1147.72C1145.89 59.8801 1144.75 60.5101 1143.94 62.4001V59.8801H1139.74V75.0001H1143.94V67.6501C1143.94 65.0701 1144.87 63.3601 1146.94 63.3601H1149.87Z" fill="black"/>
<path d="M1164.27 59.8801H1160.07V68.1601C1160.07 70.0801 1158.78 71.5201 1156.95 71.5201C1155.24 71.5201 1154.04 70.2001 1154.04 68.3701V59.8801H1149.87V69.3001C1149.87 72.7501 1152.09 75.2401 1155.48 75.2401C1157.55 75.2401 1159.23 74.3401 1160.07 72.9001V75.0001H1164.27V59.8801Z" fill="black"/>
<path d="M1166.07 75.0001H1170.24V53.3101H1166.07V75.0001Z" fill="black"/>
<path d="M1182.15 69.8701C1181.82 71.1601 1180.71 71.8201 1179.03 71.8201C1176.93 71.8201 1175.58 70.5001 1175.28 68.3701H1186.14C1186.17 68.0401 1186.2 67.5901 1186.2 67.0201C1186.2 63.5701 1184.07 59.6401 1178.73 59.6401C1173.6 59.6401 1171.26 63.5701 1171.26 67.4101C1171.26 71.2201 1173.9 75.2401 1179.03 75.2401C1182.75 75.2401 1185.63 73.1401 1186.23 69.8701H1182.15ZM1178.73 62.7001C1180.74 62.7001 1181.91 64.0501 1182.03 65.7301H1175.34C1175.7 63.6301 1176.84 62.7001 1178.73 62.7001Z" fill="black"/>
<path d="M1244.23 43H1227.37L1213.8 56.5711V73.4289L1227.37 87H1244.23L1257.8 73.4289V56.5711L1244.23 43ZM1229.7 73.641L1221.01 64.947L1229.7 56.253C1232.99 52.9663 1238.4 52.9663 1241.68 56.253L1250.38 64.947L1241.68 73.641C1238.4 76.9277 1233.1 76.9277 1229.7 73.641Z" fill="black"/>
<path d="M1277.14 75.2401C1279.84 75.2401 1282.06 73.8601 1282.75 71.7901V75.0001H1286.74V66.9001C1286.74 65.0701 1285.3 63.5101 1283.35 63.5101H1277.65V66.9001H1281.7C1282.21 66.9001 1282.54 67.2301 1282.54 67.7401C1282.54 69.6901 1279.96 71.5801 1277.35 71.5801C1273.87 71.5801 1271.11 68.8501 1271.11 64.5001C1271.11 60.1501 1273.87 57.6301 1277.44 57.6301C1280.14 57.6301 1282 59.1001 1282.33 61.3501H1286.8C1286.53 56.8501 1282.75 53.7601 1277.47 53.7601C1271.92 53.7601 1266.82 57.3301 1266.82 64.5001C1266.82 71.6701 1271.77 75.2401 1277.14 75.2401Z" fill="black"/>
<path d="M1288.45 75.0001H1292.62V53.3101H1288.45V75.0001Z" fill="black"/>
<path d="M1301.62 75.2401C1306.27 75.2401 1309.6 71.9401 1309.6 67.4401C1309.6 62.9401 1306.27 59.6401 1301.62 59.6401C1296.97 59.6401 1293.64 62.9401 1293.64 67.4401C1293.64 71.9401 1296.97 75.2401 1301.62 75.2401ZM1301.62 71.6401C1299.37 71.6401 1297.84 69.9301 1297.84 67.4401C1297.84 64.9201 1299.37 63.2101 1301.62 63.2101C1303.87 63.2101 1305.4 64.9201 1305.4 67.4401C1305.4 69.9301 1303.87 71.6401 1301.62 71.6401Z" fill="black"/>
<path d="M1318.93 75.2401C1323.4 75.2401 1326.07 72.1501 1326.07 67.4401C1326.07 62.7301 1323.4 59.6401 1318.99 59.6401C1317.1 59.6401 1315.63 60.3601 1314.79 61.4701V53.3101H1310.62V75.0001H1314.79V73.3501C1315.63 74.5201 1317.19 75.2401 1318.93 75.2401ZM1318.27 71.6401C1316.02 71.6401 1314.55 69.9601 1314.55 67.4401C1314.55 64.8901 1316.02 63.2101 1318.27 63.2101C1320.46 63.2101 1321.96 64.8901 1321.96 67.4401C1321.96 69.9601 1320.46 71.6401 1318.27 71.6401Z" fill="black"/>
<path d="M1333.05 59.6401C1328.91 59.6401 1326.45 62.0701 1326.27 65.1001H1329.99C1330.05 63.8401 1330.98 62.7001 1332.81 62.7001C1334.52 62.7001 1335.51 63.5701 1335.51 64.8301C1335.51 65.4601 1335.12 65.9401 1334.37 65.9401H1331.82C1328.52 65.9401 1326.3 67.7401 1326.3 70.7101C1326.3 73.2901 1328.31 75.2401 1331.25 75.2401C1333.32 75.2401 1335 74.3101 1335.51 72.9001V75.0001H1339.65V65.2801C1339.65 61.8601 1336.86 59.6401 1333.05 59.6401ZM1332.3 72.2101C1331.13 72.2101 1330.29 71.5201 1330.29 70.5301C1330.29 69.3601 1331.19 68.5801 1332.45 68.5801H1335.51V68.7901C1335.51 70.7101 1334.34 72.2101 1332.3 72.2101Z" fill="black"/>
<path d="M1341.25 75.0001H1345.42V53.3101H1341.25V75.0001Z" fill="black"/>
<path d="M1347.64 75.0001H1356.22C1360.66 75.0001 1363.72 72.7201 1363.72 68.7301C1363.72 65.9701 1362.1 64.2901 1360.18 63.5401C1361.41 62.8801 1362.64 61.3801 1362.64 59.4001C1362.64 55.8901 1359.79 54.0001 1355.98 54.0001H1347.64V75.0001ZM1352.08 62.0101V57.5701H1355.56C1357.57 57.5701 1358.47 58.3801 1358.47 59.7901C1358.47 61.2001 1357.57 62.0101 1355.65 62.0101H1352.08ZM1352.08 71.1001V65.8201H1355.83C1358.32 65.8201 1359.43 66.7801 1359.43 68.4901C1359.43 70.2001 1358.32 71.1001 1355.83 71.1001H1352.08Z" fill="black"/>
<path d="M1370.97 59.6401C1366.83 59.6401 1364.37 62.0701 1364.19 65.1001H1367.91C1367.97 63.8401 1368.9 62.7001 1370.73 62.7001C1372.44 62.7001 1373.43 63.5701 1373.43 64.8301C1373.43 65.4601 1373.04 65.9401 1372.29 65.9401H1369.74C1366.44 65.9401 1364.22 67.7401 1364.22 70.7101C1364.22 73.2901 1366.23 75.2401 1369.17 75.2401C1371.24 75.2401 1372.92 74.3101 1373.43 72.9001V75.0001H1377.57V65.2801C1377.57 61.8601 1374.78 59.6401 1370.97 59.6401ZM1370.22 72.2101C1369.05 72.2101 1368.21 71.5201 1368.21 70.5301C1368.21 69.3601 1369.11 68.5801 1370.37 68.5801H1373.43V68.7901C1373.43 70.7101 1372.26 72.2101 1370.22 72.2101Z" fill="black"/>
<path d="M1378.93 75.0001H1383.13V66.7201C1383.13 64.7701 1384.42 63.3601 1386.25 63.3601C1387.99 63.3601 1389.16 64.6801 1389.16 66.5101V75.0001H1393.36V65.5801C1393.36 62.1001 1391.14 59.6401 1387.72 59.6401C1385.65 59.6401 1383.97 60.5101 1383.13 61.9801V59.8801H1378.93V75.0001Z" fill="black"/>
<path d="M1405.33 75.0001H1410.37L1403.86 65.8201L1409.89 59.8801H1404.61L1399.36 65.0401V53.3101H1395.16V75.0001H1399.36V70.2601L1401.04 68.6101L1405.33 75.0001Z" fill="black"/>
<defs>
<linearGradient id="paint0_linear_449_673" x1="331.5" y1="-2.18557e-08" x2="331.5" y2="130" gradientUnits="userSpaceOnUse">
<stop stop-opacity="0"/>
<stop offset="0.494416"/>
<stop offset="1" stop-color="#666666" stop-opacity="0"/>
</linearGradient>
</defs>
</svg>
