<svg width="230" height="27" viewBox="0 0 230 27" fill="none" xmlns="http://www.w3.org/2000/svg">
<circle cx="9" cy="13.5" r="9" fill="#1E9500"/>
<g clip-path="url(#clip0_449_943)">
<path d="M12.375 9.28125L7.14375 15.0341L5.625 13.8838H4.78125L7.14375 17.7188L13.2188 9.28125H12.375Z" fill="white"/>
</g>
<path d="M33.402 18.344H37.632V20H31.35V7.49H33.402V18.344ZM43.65 20.162C42.714 20.162 41.868 19.952 41.112 19.532C40.356 19.1 39.762 18.5 39.33 17.732C38.898 16.952 38.682 16.052 38.682 15.032C38.682 14.024 38.904 13.13 39.348 12.35C39.792 11.57 40.398 10.97 41.166 10.55C41.934 10.13 42.792 9.92 43.74 9.92C44.688 9.92 45.546 10.13 46.314 10.55C47.082 10.97 47.688 11.57 48.132 12.35C48.576 13.13 48.798 14.024 48.798 15.032C48.798 16.04 48.57 16.934 48.114 17.714C47.658 18.494 47.034 19.1 46.242 19.532C45.462 19.952 44.598 20.162 43.65 20.162ZM43.65 18.38C44.178 18.38 44.67 18.254 45.126 18.002C45.594 17.75 45.972 17.372 46.26 16.868C46.548 16.364 46.692 15.752 46.692 15.032C46.692 14.312 46.554 13.706 46.278 13.214C46.002 12.71 45.636 12.332 45.18 12.08C44.724 11.828 44.232 11.702 43.704 11.702C43.176 11.702 42.684 11.828 42.228 12.08C41.784 12.332 41.43 12.71 41.166 13.214C40.902 13.706 40.77 14.312 40.77 15.032C40.77 16.1 41.04 16.928 41.58 17.516C42.132 18.092 42.822 18.38 43.65 18.38ZM64.1466 10.082L61.0686 20H58.9086L56.9106 12.674L54.9126 20H52.7526L49.6566 10.082H51.7446L53.8146 18.056L55.9206 10.082H58.0626L60.0786 18.02L62.1306 10.082H64.1466ZM73.2941 12.62V14.348H65.8961V12.62H73.2941ZM75.5254 15.032C75.5254 14.012 75.7294 13.118 76.1374 12.35C76.5574 11.57 77.1334 10.97 77.8654 10.55C78.5974 10.13 79.4374 9.92 80.3854 9.92C81.5854 9.92 82.5754 10.208 83.3554 10.784C84.1474 11.348 84.6814 12.158 84.9574 13.214H82.7434C82.5634 12.722 82.2754 12.338 81.8794 12.062C81.4834 11.786 80.9854 11.648 80.3854 11.648C79.5454 11.648 78.8734 11.948 78.3694 12.548C77.8774 13.136 77.6314 13.964 77.6314 15.032C77.6314 16.1 77.8774 16.934 78.3694 17.534C78.8734 18.134 79.5454 18.434 80.3854 18.434C81.5734 18.434 82.3594 17.912 82.7434 16.868H84.9574C84.6694 17.876 84.1294 18.68 83.3374 19.28C82.5454 19.868 81.5614 20.162 80.3854 20.162C79.4374 20.162 78.5974 19.952 77.8654 19.532C77.1334 19.1 76.5574 18.5 76.1374 17.732C75.7294 16.952 75.5254 16.052 75.5254 15.032ZM91.3043 20.162C90.3683 20.162 89.5223 19.952 88.7663 19.532C88.0103 19.1 87.4163 18.5 86.9843 17.732C86.5523 16.952 86.3363 16.052 86.3363 15.032C86.3363 14.024 86.5583 13.13 87.0023 12.35C87.4463 11.57 88.0523 10.97 88.8203 10.55C89.5883 10.13 90.4463 9.92 91.3943 9.92C92.3423 9.92 93.2003 10.13 93.9683 10.55C94.7363 10.97 95.3423 11.57 95.7863 12.35C96.2303 13.13 96.4523 14.024 96.4523 15.032C96.4523 16.04 96.2243 16.934 95.7683 17.714C95.3123 18.494 94.6883 19.1 93.8963 19.532C93.1163 19.952 92.2523 20.162 91.3043 20.162ZM91.3043 18.38C91.8323 18.38 92.3243 18.254 92.7803 18.002C93.2483 17.75 93.6263 17.372 93.9143 16.868C94.2023 16.364 94.3463 15.752 94.3463 15.032C94.3463 14.312 94.2083 13.706 93.9323 13.214C93.6563 12.71 93.2903 12.332 92.8343 12.08C92.3783 11.828 91.8863 11.702 91.3583 11.702C90.8303 11.702 90.3383 11.828 89.8823 12.08C89.4383 12.332 89.0843 12.71 88.8203 13.214C88.5563 13.706 88.4243 14.312 88.4243 15.032C88.4243 16.1 88.6943 16.928 89.2343 17.516C89.7863 18.092 90.4763 18.38 91.3043 18.38ZM102.081 20.162C101.301 20.162 100.599 20.024 99.9749 19.748C99.3629 19.46 98.8769 19.076 98.5169 18.596C98.1569 18.104 97.9649 17.558 97.9409 16.958H100.065C100.101 17.378 100.299 17.732 100.659 18.02C101.031 18.296 101.493 18.434 102.045 18.434C102.621 18.434 103.065 18.326 103.377 18.11C103.701 17.882 103.863 17.594 103.863 17.246C103.863 16.874 103.683 16.598 103.323 16.418C102.975 16.238 102.417 16.04 101.649 15.824C100.905 15.62 100.299 15.422 99.8309 15.23C99.3629 15.038 98.9549 14.744 98.6069 14.348C98.2709 13.952 98.1029 13.43 98.1029 12.782C98.1029 12.254 98.2589 11.774 98.5709 11.342C98.8829 10.898 99.3269 10.55 99.9029 10.298C100.491 10.046 101.163 9.92 101.919 9.92C103.047 9.92 103.953 10.208 104.637 10.784C105.333 11.348 105.705 12.122 105.753 13.106H103.701C103.665 12.662 103.485 12.308 103.161 12.044C102.837 11.78 102.399 11.648 101.847 11.648C101.307 11.648 100.893 11.75 100.605 11.954C100.317 12.158 100.173 12.428 100.173 12.764C100.173 13.028 100.269 13.25 100.461 13.43C100.653 13.61 100.887 13.754 101.163 13.862C101.439 13.958 101.847 14.084 102.387 14.24C103.107 14.432 103.695 14.63 104.151 14.834C104.619 15.026 105.021 15.314 105.357 15.698C105.693 16.082 105.867 16.592 105.879 17.228C105.879 17.792 105.723 18.296 105.411 18.74C105.099 19.184 104.655 19.532 104.079 19.784C103.515 20.036 102.849 20.162 102.081 20.162ZM110.49 11.756V17.246C110.49 17.618 110.574 17.888 110.742 18.056C110.922 18.212 111.222 18.29 111.642 18.29H112.902V20H111.282C110.358 20 109.65 19.784 109.158 19.352C108.666 18.92 108.42 18.218 108.42 17.246V11.756H107.25V10.082H108.42V7.616H110.49V10.082H112.902V11.756H110.49ZM117.043 17.534L114.865 22.502H113.533L114.811 17.534H117.043ZM128.642 9.92C129.398 9.92 130.07 10.082 130.658 10.406C131.258 10.73 131.726 11.21 132.062 11.846C132.41 12.482 132.584 13.25 132.584 14.15V20H130.55V14.456C130.55 13.568 130.328 12.89 129.884 12.422C129.44 11.942 128.834 11.702 128.066 11.702C127.298 11.702 126.686 11.942 126.23 12.422C125.786 12.89 125.564 13.568 125.564 14.456V20H123.512V6.68H125.564V11.234C125.912 10.814 126.35 10.49 126.878 10.262C127.418 10.034 128.006 9.92 128.642 9.92ZM136.246 8.768C135.874 8.768 135.562 8.642 135.31 8.39C135.058 8.138 134.932 7.826 134.932 7.454C134.932 7.082 135.058 6.77 135.31 6.518C135.562 6.266 135.874 6.14 136.246 6.14C136.606 6.14 136.912 6.266 137.164 6.518C137.416 6.77 137.542 7.082 137.542 7.454C137.542 7.826 137.416 8.138 137.164 8.39C136.912 8.642 136.606 8.768 136.246 8.768ZM137.254 10.082V20H135.202V10.082H137.254ZM143.944 9.92C144.712 9.92 145.39 10.076 145.978 10.388C146.578 10.688 147.046 11.066 147.382 11.522V10.082H149.452V20.162C149.452 21.074 149.26 21.884 148.876 22.592C148.492 23.312 147.934 23.876 147.202 24.284C146.482 24.692 145.618 24.896 144.61 24.896C143.266 24.896 142.15 24.578 141.262 23.942C140.374 23.318 139.87 22.466 139.75 21.386H141.784C141.94 21.902 142.27 22.316 142.774 22.628C143.29 22.952 143.902 23.114 144.61 23.114C145.438 23.114 146.104 22.862 146.608 22.358C147.124 21.854 147.382 21.122 147.382 20.162V18.506C147.034 18.974 146.56 19.37 145.96 19.694C145.372 20.006 144.7 20.162 143.944 20.162C143.08 20.162 142.288 19.946 141.568 19.514C140.86 19.07 140.296 18.458 139.876 17.678C139.468 16.886 139.264 15.992 139.264 14.996C139.264 14 139.468 13.118 139.876 12.35C140.296 11.582 140.86 10.988 141.568 10.568C142.288 10.136 143.08 9.92 143.944 9.92ZM147.382 15.032C147.382 14.348 147.238 13.754 146.95 13.25C146.674 12.746 146.308 12.362 145.852 12.098C145.396 11.834 144.904 11.702 144.376 11.702C143.848 11.702 143.356 11.834 142.9 12.098C142.444 12.35 142.072 12.728 141.784 13.232C141.508 13.724 141.37 14.312 141.37 14.996C141.37 15.68 141.508 16.28 141.784 16.796C142.072 17.312 142.444 17.708 142.9 17.984C143.368 18.248 143.86 18.38 144.376 18.38C144.904 18.38 145.396 18.248 145.852 17.984C146.308 17.72 146.674 17.336 146.95 16.832C147.238 16.316 147.382 15.716 147.382 15.032ZM157.277 9.92C158.033 9.92 158.705 10.082 159.293 10.406C159.893 10.73 160.361 11.21 160.697 11.846C161.045 12.482 161.219 13.25 161.219 14.15V20H159.185V14.456C159.185 13.568 158.963 12.89 158.519 12.422C158.075 11.942 157.469 11.702 156.701 11.702C155.933 11.702 155.321 11.942 154.865 12.422C154.421 12.89 154.199 13.568 154.199 14.456V20H152.147V6.68H154.199V11.234C154.547 10.814 154.985 10.49 155.513 10.262C156.053 10.034 156.641 9.92 157.277 9.92ZM167.828 14.996C167.828 14 168.032 13.118 168.44 12.35C168.86 11.582 169.424 10.988 170.132 10.568C170.852 10.136 171.65 9.92 172.526 9.92C173.294 9.92 173.972 10.076 174.56 10.388C175.16 10.7 175.622 11.078 175.946 11.522V10.082H178.016V24.716H175.946V18.56C175.622 19.004 175.154 19.382 174.542 19.694C173.93 20.006 173.234 20.162 172.454 20.162C171.602 20.162 170.822 19.946 170.114 19.514C169.418 19.07 168.86 18.458 168.44 17.678C168.032 16.886 167.828 15.992 167.828 14.996ZM175.946 15.032C175.946 14.348 175.802 13.754 175.514 13.25C175.238 12.746 174.872 12.362 174.416 12.098C173.96 11.834 173.468 11.702 172.94 11.702C172.412 11.702 171.92 11.834 171.464 12.098C171.008 12.35 170.636 12.728 170.348 13.232C170.072 13.724 169.934 14.312 169.934 14.996C169.934 15.68 170.072 16.28 170.348 16.796C170.636 17.312 171.008 17.708 171.464 17.984C171.932 18.248 172.424 18.38 172.94 18.38C173.468 18.38 173.96 18.248 174.416 17.984C174.872 17.72 175.238 17.336 175.514 16.832C175.802 16.316 175.946 15.716 175.946 15.032ZM189.693 10.082V20H187.641V18.83C187.317 19.238 186.891 19.562 186.363 19.802C185.847 20.03 185.295 20.144 184.707 20.144C183.927 20.144 183.225 19.982 182.601 19.658C181.989 19.334 181.503 18.854 181.143 18.218C180.795 17.582 180.621 16.814 180.621 15.914V10.082H182.655V15.608C182.655 16.496 182.877 17.18 183.321 17.66C183.765 18.128 184.371 18.362 185.139 18.362C185.907 18.362 186.513 18.128 186.957 17.66C187.413 17.18 187.641 16.496 187.641 15.608V10.082H189.693ZM191.717 14.996C191.717 14 191.921 13.118 192.329 12.35C192.749 11.582 193.313 10.988 194.021 10.568C194.741 10.136 195.533 9.92 196.397 9.92C197.177 9.92 197.855 10.076 198.431 10.388C199.019 10.688 199.487 11.066 199.835 11.522V10.082H201.905V20H199.835V18.524C199.487 18.992 199.013 19.382 198.413 19.694C197.813 20.006 197.129 20.162 196.361 20.162C195.509 20.162 194.729 19.946 194.021 19.514C193.313 19.07 192.749 18.458 192.329 17.678C191.921 16.886 191.717 15.992 191.717 14.996ZM199.835 15.032C199.835 14.348 199.691 13.754 199.403 13.25C199.127 12.746 198.761 12.362 198.305 12.098C197.849 11.834 197.357 11.702 196.829 11.702C196.301 11.702 195.809 11.834 195.353 12.098C194.897 12.35 194.525 12.728 194.237 13.232C193.961 13.724 193.823 14.312 193.823 14.996C193.823 15.68 193.961 16.28 194.237 16.796C194.525 17.312 194.897 17.708 195.353 17.984C195.821 18.248 196.313 18.38 196.829 18.38C197.357 18.38 197.849 18.248 198.305 17.984C198.761 17.72 199.127 17.336 199.403 16.832C199.691 16.316 199.835 15.716 199.835 15.032ZM206.652 6.68V20H204.6V6.68H206.652ZM210.39 8.768C210.018 8.768 209.706 8.642 209.454 8.39C209.202 8.138 209.076 7.826 209.076 7.454C209.076 7.082 209.202 6.77 209.454 6.518C209.706 6.266 210.018 6.14 210.39 6.14C210.75 6.14 211.056 6.266 211.308 6.518C211.56 6.77 211.686 7.082 211.686 7.454C211.686 7.826 211.56 8.138 211.308 8.39C211.056 8.642 210.75 8.768 210.39 8.768ZM211.398 10.082V20H209.346V10.082H211.398ZM216.486 11.756V17.246C216.486 17.618 216.57 17.888 216.738 18.056C216.918 18.212 217.218 18.29 217.638 18.29H218.898V20H217.278C216.354 20 215.646 19.784 215.154 19.352C214.662 18.92 214.416 18.218 214.416 17.246V11.756H213.246V10.082H214.416V7.616H216.486V10.082H218.898V11.756H216.486ZM229.717 10.082L223.633 24.662H221.509L223.525 19.838L219.619 10.082H221.905L224.695 17.642L227.593 10.082H229.717Z" fill="#101828"/>
<defs>
<clipPath id="clip0_449_943">
<rect width="9" height="9" fill="white" transform="translate(4.5 9)"/>
</clipPath>
</defs>
</svg>
