<svg width="175" height="27" viewBox="0 0 175 27" fill="none" xmlns="http://www.w3.org/2000/svg">
<circle cx="9" cy="13.5" r="9" fill="#1E9500"/>
<g clip-path="url(#clip0_449_963)">
<path d="M12.375 9.28125L7.14375 15.0341L5.625 13.8838H4.78125L7.14375 17.7188L13.2188 9.28125H12.375Z" fill="white"/>
</g>
<path d="M30.666 13.718C30.666 12.494 30.948 11.396 31.512 10.424C32.088 9.452 32.862 8.696 33.834 8.156C34.818 7.604 35.892 7.328 37.056 7.328C38.388 7.328 39.57 7.658 40.602 8.318C41.646 8.966 42.402 9.89 42.87 11.09H40.404C40.08 10.43 39.63 9.938 39.054 9.614C38.478 9.29 37.812 9.128 37.056 9.128C36.228 9.128 35.49 9.314 34.842 9.686C34.194 10.058 33.684 10.592 33.312 11.288C32.952 11.984 32.772 12.794 32.772 13.718C32.772 14.642 32.952 15.452 33.312 16.148C33.684 16.844 34.194 17.384 34.842 17.768C35.49 18.14 36.228 18.326 37.056 18.326C37.812 18.326 38.478 18.164 39.054 17.84C39.63 17.516 40.08 17.024 40.404 16.364H42.87C42.402 17.564 41.646 18.488 40.602 19.136C39.57 19.784 38.388 20.108 37.056 20.108C35.88 20.108 34.806 19.838 33.834 19.298C32.862 18.746 32.088 17.984 31.512 17.012C30.948 16.04 30.666 14.942 30.666 13.718ZM44.5879 14.996C44.5879 14 44.7919 13.118 45.1999 12.35C45.6199 11.582 46.1839 10.988 46.8919 10.568C47.6119 10.136 48.4039 9.92 49.2679 9.92C50.0479 9.92 50.7259 10.076 51.3019 10.388C51.8899 10.688 52.3579 11.066 52.7059 11.522V10.082H54.7759V20H52.7059V18.524C52.3579 18.992 51.8839 19.382 51.2839 19.694C50.6839 20.006 49.9999 20.162 49.2319 20.162C48.3799 20.162 47.5999 19.946 46.8919 19.514C46.1839 19.07 45.6199 18.458 45.1999 17.678C44.7919 16.886 44.5879 15.992 44.5879 14.996ZM52.7059 15.032C52.7059 14.348 52.5619 13.754 52.2739 13.25C51.9979 12.746 51.6319 12.362 51.1759 12.098C50.7199 11.834 50.2279 11.702 49.6999 11.702C49.1719 11.702 48.6799 11.834 48.2239 12.098C47.7679 12.35 47.3959 12.728 47.1079 13.232C46.8319 13.724 46.6939 14.312 46.6939 14.996C46.6939 15.68 46.8319 16.28 47.1079 16.796C47.3959 17.312 47.7679 17.708 48.2239 17.984C48.6919 18.248 49.1839 18.38 49.6999 18.38C50.2279 18.38 50.7199 18.248 51.1759 17.984C51.6319 17.72 51.9979 17.336 52.2739 16.832C52.5619 16.316 52.7059 15.716 52.7059 15.032ZM62.4751 9.92C63.2551 9.92 63.9511 10.082 64.5631 10.406C65.1871 10.73 65.6731 11.21 66.0211 11.846C66.3691 12.482 66.5431 13.25 66.5431 14.15V20H64.5091V14.456C64.5091 13.568 64.2871 12.89 63.8431 12.422C63.3991 11.942 62.7931 11.702 62.0251 11.702C61.2571 11.702 60.6451 11.942 60.1891 12.422C59.7451 12.89 59.5231 13.568 59.5231 14.456V20H57.4711V10.082H59.5231V11.216C59.8591 10.808 60.2851 10.49 60.8011 10.262C61.3291 10.034 61.8871 9.92 62.4751 9.92ZM68.4765 15.032C68.4765 14.012 68.6805 13.118 69.0885 12.35C69.5085 11.57 70.0845 10.97 70.8165 10.55C71.5485 10.13 72.3885 9.92 73.3365 9.92C74.5365 9.92 75.5265 10.208 76.3065 10.784C77.0985 11.348 77.6325 12.158 77.9085 13.214H75.6945C75.5145 12.722 75.2265 12.338 74.8305 12.062C74.4345 11.786 73.9365 11.648 73.3365 11.648C72.4965 11.648 71.8245 11.948 71.3205 12.548C70.8285 13.136 70.5825 13.964 70.5825 15.032C70.5825 16.1 70.8285 16.934 71.3205 17.534C71.8245 18.134 72.4965 18.434 73.3365 18.434C74.5245 18.434 75.3105 17.912 75.6945 16.868H77.9085C77.6205 17.876 77.0805 18.68 76.2885 19.28C75.4965 19.868 74.5125 20.162 73.3365 20.162C72.3885 20.162 71.5485 19.952 70.8165 19.532C70.0845 19.1 69.5085 18.5 69.0885 17.732C68.6805 16.952 68.4765 16.052 68.4765 15.032ZM89.0435 14.798C89.0435 15.17 89.0195 15.506 88.9715 15.806H81.3935C81.4535 16.598 81.7475 17.234 82.2755 17.714C82.8035 18.194 83.4515 18.434 84.2195 18.434C85.3235 18.434 86.1035 17.972 86.5595 17.048H88.7735C88.4735 17.96 87.9275 18.71 87.1355 19.298C86.3555 19.874 85.3835 20.162 84.2195 20.162C83.2715 20.162 82.4195 19.952 81.6635 19.532C80.9195 19.1 80.3315 18.5 79.8995 17.732C79.4795 16.952 79.2695 16.052 79.2695 15.032C79.2695 14.012 79.4735 13.118 79.8815 12.35C80.3015 11.57 80.8835 10.97 81.6275 10.55C82.3835 10.13 83.2475 9.92 84.2195 9.92C85.1555 9.92 85.9895 10.124 86.7215 10.532C87.4535 10.94 88.0235 11.516 88.4315 12.26C88.8395 12.992 89.0435 13.838 89.0435 14.798ZM86.9015 14.15C86.8895 13.394 86.6195 12.788 86.0915 12.332C85.5635 11.876 84.9095 11.648 84.1295 11.648C83.4215 11.648 82.8155 11.876 82.3115 12.332C81.8075 12.776 81.5075 13.382 81.4115 14.15H86.9015ZM93.1149 6.68V20H91.0629V6.68H93.1149ZM99.8008 14.996C99.8008 14 100.005 13.118 100.413 12.35C100.833 11.582 101.397 10.988 102.105 10.568C102.825 10.136 103.617 9.92 104.481 9.92C105.261 9.92 105.939 10.076 106.515 10.388C107.103 10.688 107.571 11.066 107.919 11.522V10.082H109.989V20H107.919V18.524C107.571 18.992 107.097 19.382 106.497 19.694C105.897 20.006 105.213 20.162 104.445 20.162C103.593 20.162 102.813 19.946 102.105 19.514C101.397 19.07 100.833 18.458 100.413 17.678C100.005 16.886 99.8008 15.992 99.8008 14.996ZM107.919 15.032C107.919 14.348 107.775 13.754 107.487 13.25C107.211 12.746 106.845 12.362 106.389 12.098C105.933 11.834 105.441 11.702 104.913 11.702C104.385 11.702 103.893 11.834 103.437 12.098C102.981 12.35 102.609 12.728 102.321 13.232C102.045 13.724 101.907 14.312 101.907 14.996C101.907 15.68 102.045 16.28 102.321 16.796C102.609 17.312 102.981 17.708 103.437 17.984C103.905 18.248 104.397 18.38 104.913 18.38C105.441 18.38 105.933 18.248 106.389 17.984C106.845 17.72 107.211 17.336 107.487 16.832C107.775 16.316 107.919 15.716 107.919 15.032ZM117.688 9.92C118.468 9.92 119.164 10.082 119.776 10.406C120.4 10.73 120.886 11.21 121.234 11.846C121.582 12.482 121.756 13.25 121.756 14.15V20H119.722V14.456C119.722 13.568 119.5 12.89 119.056 12.422C118.612 11.942 118.006 11.702 117.238 11.702C116.47 11.702 115.858 11.942 115.402 12.422C114.958 12.89 114.736 13.568 114.736 14.456V20H112.684V10.082H114.736V11.216C115.072 10.808 115.498 10.49 116.014 10.262C116.542 10.034 117.1 9.92 117.688 9.92ZM133.301 10.082L127.217 24.662H125.093L127.109 19.838L123.203 10.082H125.489L128.279 17.642L131.177 10.082H133.301ZM137.244 11.756V17.246C137.244 17.618 137.328 17.888 137.496 18.056C137.676 18.212 137.976 18.29 138.396 18.29H139.656V20H138.036C137.112 20 136.404 19.784 135.912 19.352C135.42 18.92 135.174 18.218 135.174 17.246V11.756H134.004V10.082H135.174V7.616H137.244V10.082H139.656V11.756H137.244ZM142.591 8.768C142.219 8.768 141.907 8.642 141.655 8.39C141.403 8.138 141.277 7.826 141.277 7.454C141.277 7.082 141.403 6.77 141.655 6.518C141.907 6.266 142.219 6.14 142.591 6.14C142.951 6.14 143.257 6.266 143.509 6.518C143.761 6.77 143.887 7.082 143.887 7.454C143.887 7.826 143.761 8.138 143.509 8.39C143.257 8.642 142.951 8.768 142.591 8.768ZM143.599 10.082V20H141.547V10.082H143.599ZM158.299 9.92C159.079 9.92 159.775 10.082 160.387 10.406C161.011 10.73 161.497 11.21 161.845 11.846C162.205 12.482 162.385 13.25 162.385 14.15V20H160.351V14.456C160.351 13.568 160.129 12.89 159.685 12.422C159.241 11.942 158.635 11.702 157.867 11.702C157.099 11.702 156.487 11.942 156.031 12.422C155.587 12.89 155.365 13.568 155.365 14.456V20H153.331V14.456C153.331 13.568 153.109 12.89 152.665 12.422C152.221 11.942 151.615 11.702 150.847 11.702C150.079 11.702 149.467 11.942 149.011 12.422C148.567 12.89 148.345 13.568 148.345 14.456V20H146.293V10.082H148.345V11.216C148.681 10.808 149.107 10.49 149.623 10.262C150.139 10.034 150.691 9.92 151.279 9.92C152.071 9.92 152.779 10.088 153.403 10.424C154.027 10.76 154.507 11.246 154.843 11.882C155.143 11.282 155.611 10.808 156.247 10.46C156.883 10.1 157.567 9.92 158.299 9.92ZM174.086 14.798C174.086 15.17 174.062 15.506 174.014 15.806H166.436C166.496 16.598 166.79 17.234 167.318 17.714C167.846 18.194 168.494 18.434 169.262 18.434C170.366 18.434 171.146 17.972 171.602 17.048H173.816C173.516 17.96 172.97 18.71 172.178 19.298C171.398 19.874 170.426 20.162 169.262 20.162C168.314 20.162 167.462 19.952 166.706 19.532C165.962 19.1 165.374 18.5 164.942 17.732C164.522 16.952 164.312 16.052 164.312 15.032C164.312 14.012 164.516 13.118 164.924 12.35C165.344 11.57 165.926 10.97 166.67 10.55C167.426 10.13 168.29 9.92 169.262 9.92C170.198 9.92 171.032 10.124 171.764 10.532C172.496 10.94 173.066 11.516 173.474 12.26C173.882 12.992 174.086 13.838 174.086 14.798ZM171.944 14.15C171.932 13.394 171.662 12.788 171.134 12.332C170.606 11.876 169.952 11.648 169.172 11.648C168.464 11.648 167.858 11.876 167.354 12.332C166.85 12.776 166.55 13.382 166.454 14.15H171.944Z" fill="#101828"/>
<defs>
<clipPath id="clip0_449_963">
<rect width="9" height="9" fill="white" transform="translate(4.5 9)"/>
</clipPath>
</defs>
</svg>
