<svg width="334" height="66" viewBox="0 0 334 66" fill="none" xmlns="http://www.w3.org/2000/svg">
<path d="M61.6 10.1L57.48 24H54.9L51.98 13.48L48.88 24L46.32 24.02L42.38 10.1H44.8L47.68 21.42L50.8 10.1H53.36L56.26 21.36L59.16 10.1H61.6ZM73.5805 18.22C73.5805 18.6333 73.5538 19.0067 73.5005 19.34H65.0805C65.1471 20.22 65.4738 20.9267 66.0605 21.46C66.6471 21.9933 67.3671 22.26 68.2205 22.26C69.4471 22.26 70.3138 21.7467 70.8205 20.72H73.2805C72.9471 21.7333 72.3405 22.5667 71.4605 23.22C70.5938 23.86 69.5138 24.18 68.2205 24.18C67.1671 24.18 66.2205 23.9467 65.3805 23.48C64.5538 23 63.9005 22.3333 63.4205 21.48C62.9538 20.6133 62.7205 19.6133 62.7205 18.48C62.7205 17.3467 62.9471 16.3533 63.4005 15.5C63.8671 14.6333 64.5138 13.9667 65.3405 13.5C66.1805 13.0333 67.1405 12.8 68.2205 12.8C69.2605 12.8 70.1871 13.0267 71.0005 13.48C71.8138 13.9333 72.4471 14.5733 72.9005 15.4C73.3538 16.2133 73.5805 17.1533 73.5805 18.22ZM71.2005 17.5C71.1871 16.66 70.8871 15.9867 70.3005 15.48C69.7138 14.9733 68.9871 14.72 68.1205 14.72C67.3338 14.72 66.6605 14.9733 66.1005 15.48C65.5405 15.9733 65.2071 16.6467 65.1005 17.5H71.2005ZM80.2595 18.48C80.2595 17.3467 80.4862 16.3533 80.9395 15.5C81.4062 14.6333 82.0462 13.9667 82.8595 13.5C83.6729 13.0333 84.6062 12.8 85.6595 12.8C86.9929 12.8 88.0929 13.12 88.9595 13.76C89.8395 14.3867 90.4329 15.2867 90.7395 16.46H88.2795C88.0795 15.9133 87.7595 15.4867 87.3195 15.18C86.8795 14.8733 86.3262 14.72 85.6595 14.72C84.7262 14.72 83.9795 15.0533 83.4195 15.72C82.8729 16.3733 82.5995 17.2933 82.5995 18.48C82.5995 19.6667 82.8729 20.5933 83.4195 21.26C83.9795 21.9267 84.7262 22.26 85.6595 22.26C86.9795 22.26 87.8529 21.68 88.2795 20.52H90.7395C90.4195 21.64 89.8195 22.5333 88.9395 23.2C88.0595 23.8533 86.9662 24.18 85.6595 24.18C84.6062 24.18 83.6729 23.9467 82.8595 23.48C82.0462 23 81.4062 22.3333 80.9395 21.48C80.4862 20.6133 80.2595 19.6133 80.2595 18.48ZM95.2917 14.58C95.6251 14.02 96.0651 13.5867 96.6117 13.28C97.1717 12.96 97.8317 12.8 98.5917 12.8V15.16H98.0117C97.1184 15.16 96.4384 15.3867 95.9717 15.84C95.5184 16.2933 95.2917 17.08 95.2917 18.2V24H93.0117V12.98H95.2917V14.58ZM110.788 18.22C110.788 18.6333 110.761 19.0067 110.708 19.34H102.288C102.354 20.22 102.681 20.9267 103.268 21.46C103.854 21.9933 104.574 22.26 105.428 22.26C106.654 22.26 107.521 21.7467 108.028 20.72H110.487C110.154 21.7333 109.548 22.5667 108.668 23.22C107.801 23.86 106.721 24.18 105.428 24.18C104.374 24.18 103.428 23.9467 102.588 23.48C101.761 23 101.108 22.3333 100.628 21.48C100.161 20.6133 99.9275 19.6133 99.9275 18.48C99.9275 17.3467 100.154 16.3533 100.608 15.5C101.074 14.6333 101.721 13.9667 102.548 13.5C103.388 13.0333 104.348 12.8 105.428 12.8C106.468 12.8 107.394 13.0267 108.208 13.48C109.021 13.9333 109.654 14.5733 110.108 15.4C110.561 16.2133 110.788 17.1533 110.788 18.22ZM108.408 17.5C108.394 16.66 108.094 15.9867 107.508 15.48C106.921 14.9733 106.194 14.72 105.328 14.72C104.541 14.72 103.868 14.9733 103.308 15.48C102.748 15.9733 102.414 16.6467 102.308 17.5H108.408ZM112.271 18.44C112.271 17.3333 112.498 16.3533 112.951 15.5C113.418 14.6467 114.045 13.9867 114.831 13.52C115.631 13.04 116.511 12.8 117.471 12.8C118.338 12.8 119.091 12.9733 119.731 13.32C120.385 13.6533 120.905 14.0733 121.291 14.58V12.98H123.591V24H121.291V22.36C120.905 22.88 120.378 23.3133 119.711 23.66C119.045 24.0067 118.285 24.18 117.431 24.18C116.485 24.18 115.618 23.94 114.831 23.46C114.045 22.9667 113.418 22.2867 112.951 21.42C112.498 20.54 112.271 19.5467 112.271 18.44ZM121.291 18.48C121.291 17.72 121.131 17.06 120.811 16.5C120.505 15.94 120.098 15.5133 119.591 15.22C119.085 14.9267 118.538 14.78 117.951 14.78C117.365 14.78 116.818 14.9267 116.311 15.22C115.805 15.5 115.391 15.92 115.071 16.48C114.765 17.0267 114.611 17.68 114.611 18.44C114.611 19.2 114.765 19.8667 115.071 20.44C115.391 21.0133 115.805 21.4533 116.311 21.76C116.831 22.0533 117.378 22.2 117.951 22.2C118.538 22.2 119.085 22.0533 119.591 21.76C120.098 21.4667 120.505 21.04 120.811 20.48C121.131 19.9067 121.291 19.24 121.291 18.48ZM129.246 14.84V20.94C129.246 21.3533 129.339 21.6533 129.526 21.84C129.726 22.0133 130.059 22.1 130.526 22.1H131.926V24H130.126C129.099 24 128.313 23.76 127.766 23.28C127.219 22.8 126.946 22.02 126.946 20.94V14.84H125.646V12.98H126.946V10.24H129.246V12.98H131.926V14.84H129.246ZM144.127 18.22C144.127 18.6333 144.101 19.0067 144.047 19.34H135.627C135.694 20.22 136.021 20.9267 136.607 21.46C137.194 21.9933 137.914 22.26 138.767 22.26C139.994 22.26 140.861 21.7467 141.367 20.72H143.827C143.494 21.7333 142.887 22.5667 142.007 23.22C141.141 23.86 140.061 24.18 138.767 24.18C137.714 24.18 136.767 23.9467 135.927 23.48C135.101 23 134.447 22.3333 133.967 21.48C133.501 20.6133 133.267 19.6133 133.267 18.48C133.267 17.3467 133.494 16.3533 133.947 15.5C134.414 14.6333 135.061 13.9667 135.887 13.5C136.727 13.0333 137.687 12.8 138.767 12.8C139.807 12.8 140.734 13.0267 141.547 13.48C142.361 13.9333 142.994 14.5733 143.447 15.4C143.901 16.2133 144.127 17.1533 144.127 18.22ZM141.747 17.5C141.734 16.66 141.434 15.9867 140.847 15.48C140.261 14.9733 139.534 14.72 138.667 14.72C137.881 14.72 137.207 14.9733 136.647 15.48C136.087 15.9733 135.754 16.6467 135.647 17.5H141.747ZM161.486 12.98L154.726 29.18H152.366L154.606 23.82L150.266 12.98H152.806L155.906 21.38L159.126 12.98H161.486ZM167.987 24.18C166.947 24.18 166.007 23.9467 165.167 23.48C164.327 23 163.667 22.3333 163.187 21.48C162.707 20.6133 162.467 19.6133 162.467 18.48C162.467 17.36 162.714 16.3667 163.207 15.5C163.7 14.6333 164.374 13.9667 165.227 13.5C166.08 13.0333 167.034 12.8 168.087 12.8C169.14 12.8 170.094 13.0333 170.947 13.5C171.8 13.9667 172.474 14.6333 172.967 15.5C173.46 16.3667 173.707 17.36 173.707 18.48C173.707 19.6 173.454 20.5933 172.947 21.46C172.44 22.3267 171.747 23 170.867 23.48C170 23.9467 169.04 24.18 167.987 24.18ZM167.987 22.2C168.574 22.2 169.12 22.06 169.627 21.78C170.147 21.5 170.567 21.08 170.887 20.52C171.207 19.96 171.367 19.28 171.367 18.48C171.367 17.68 171.214 17.0067 170.907 16.46C170.6 15.9 170.194 15.48 169.687 15.2C169.18 14.92 168.634 14.78 168.047 14.78C167.46 14.78 166.914 14.92 166.407 15.2C165.914 15.48 165.52 15.9 165.227 16.46C164.934 17.0067 164.787 17.68 164.787 18.48C164.787 19.6667 165.087 20.5867 165.687 21.24C166.3 21.88 167.067 22.2 167.987 22.2ZM185.941 12.98V24H183.661V22.7C183.301 23.1533 182.828 23.5133 182.241 23.78C181.668 24.0333 181.054 24.16 180.401 24.16C179.534 24.16 178.754 23.98 178.061 23.62C177.381 23.26 176.841 22.7267 176.441 22.02C176.054 21.3133 175.861 20.46 175.861 19.46V12.98H178.121V19.12C178.121 20.1067 178.368 20.8667 178.861 21.4C179.354 21.92 180.028 22.18 180.881 22.18C181.734 22.18 182.408 21.92 182.901 21.4C183.408 20.8667 183.661 20.1067 183.661 19.12V12.98H185.941ZM191.229 14.58C191.563 14.02 192.003 13.5867 192.549 13.28C193.109 12.96 193.769 12.8 194.529 12.8V15.16H193.949C193.056 15.16 192.376 15.3867 191.909 15.84C191.456 16.2933 191.229 17.08 191.229 18.2V24H188.949V12.98H191.229V14.58ZM211.8 12.98V24H209.52V22.7C209.16 23.1533 208.687 23.5133 208.1 23.78C207.527 24.0333 206.914 24.16 206.26 24.16C205.394 24.16 204.614 23.98 203.92 23.62C203.24 23.26 202.7 22.7267 202.3 22.02C201.914 21.3133 201.72 20.46 201.72 19.46V12.98H203.98V19.12C203.98 20.1067 204.227 20.8667 204.72 21.4C205.214 21.92 205.887 22.18 206.74 22.18C207.594 22.18 208.267 21.92 208.76 21.4C209.267 20.8667 209.52 20.1067 209.52 19.12V12.98H211.8ZM220.369 12.8C221.235 12.8 222.009 12.98 222.689 13.34C223.382 13.7 223.922 14.2333 224.309 14.94C224.695 15.6467 224.889 16.5 224.889 17.5V24H222.629V17.84C222.629 16.8533 222.382 16.1 221.889 15.58C221.395 15.0467 220.722 14.78 219.869 14.78C219.015 14.78 218.335 15.0467 217.829 15.58C217.335 16.1 217.089 16.8533 217.089 17.84V24H214.809V12.98H217.089V14.24C217.462 13.7867 217.935 13.4333 218.509 13.18C219.095 12.9267 219.715 12.8 220.369 12.8ZM228.957 11.52C228.544 11.52 228.197 11.38 227.917 11.1C227.637 10.82 227.497 10.4733 227.497 10.06C227.497 9.64667 227.637 9.3 227.917 9.02C228.197 8.74 228.544 8.6 228.957 8.6C229.357 8.6 229.697 8.74 229.977 9.02C230.257 9.3 230.397 9.64667 230.397 10.06C230.397 10.4733 230.257 10.82 229.977 11.1C229.697 11.38 229.357 11.52 228.957 11.52ZM230.077 12.98V24H227.797V12.98H230.077ZM232.31 18.44C232.31 17.3333 232.537 16.3533 232.99 15.5C233.457 14.6467 234.084 13.9867 234.87 13.52C235.67 13.04 236.557 12.8 237.53 12.8C238.384 12.8 239.137 12.9733 239.79 13.32C240.457 13.6667 240.97 14.0867 241.33 14.58V12.98H243.63V29.24H241.33V22.4C240.97 22.8933 240.45 23.3133 239.77 23.66C239.09 24.0067 238.317 24.18 237.45 24.18C236.504 24.18 235.637 23.94 234.85 23.46C234.077 22.9667 233.457 22.2867 232.99 21.42C232.537 20.54 232.31 19.5467 232.31 18.44ZM241.33 18.48C241.33 17.72 241.17 17.06 240.85 16.5C240.544 15.94 240.137 15.5133 239.63 15.22C239.124 14.9267 238.577 14.78 237.99 14.78C237.404 14.78 236.857 14.9267 236.35 15.22C235.844 15.5 235.43 15.92 235.11 16.48C234.804 17.0267 234.65 17.68 234.65 18.44C234.65 19.2 234.804 19.8667 235.11 20.44C235.43 21.0133 235.844 21.4533 236.35 21.76C236.87 22.0533 237.417 22.2 237.99 22.2C238.577 22.2 239.124 22.0533 239.63 21.76C240.137 21.4667 240.544 21.04 240.85 20.48C241.17 19.9067 241.33 19.24 241.33 18.48ZM256.605 12.98V24H254.325V22.7C253.965 23.1533 253.492 23.5133 252.905 23.78C252.332 24.0333 251.718 24.16 251.065 24.16C250.198 24.16 249.418 23.98 248.725 23.62C248.045 23.26 247.505 22.7267 247.105 22.02C246.718 21.3133 246.525 20.46 246.525 19.46V12.98H248.785V19.12C248.785 20.1067 249.032 20.8667 249.525 21.4C250.018 21.92 250.692 22.18 251.545 22.18C252.398 22.18 253.072 21.92 253.565 21.4C254.072 20.8667 254.325 20.1067 254.325 19.12V12.98H256.605ZM269.713 18.22C269.713 18.6333 269.687 19.0067 269.633 19.34H261.213C261.28 20.22 261.607 20.9267 262.193 21.46C262.78 21.9933 263.5 22.26 264.353 22.26C265.58 22.26 266.447 21.7467 266.953 20.72H269.413C269.08 21.7333 268.473 22.5667 267.593 23.22C266.727 23.86 265.647 24.18 264.353 24.18C263.3 24.18 262.353 23.9467 261.513 23.48C260.687 23 260.033 22.3333 259.553 21.48C259.087 20.6133 258.853 19.6133 258.853 18.48C258.853 17.3467 259.08 16.3533 259.533 15.5C260 14.6333 260.647 13.9667 261.473 13.5C262.313 13.0333 263.273 12.8 264.353 12.8C265.393 12.8 266.32 13.0267 267.133 13.48C267.947 13.9333 268.58 14.5733 269.033 15.4C269.487 16.2133 269.713 17.1533 269.713 18.22ZM267.333 17.5C267.32 16.66 267.02 15.9867 266.433 15.48C265.847 14.9733 265.12 14.72 264.253 14.72C263.467 14.72 262.793 14.9733 262.233 15.48C261.673 15.9733 261.34 16.6467 261.233 17.5H267.333ZM281.152 24.18C280.286 24.18 279.506 24.0267 278.812 23.72C278.132 23.4 277.592 22.9733 277.192 22.44C276.792 21.8933 276.579 21.2867 276.552 20.62H278.912C278.952 21.0867 279.172 21.48 279.572 21.8C279.986 22.1067 280.499 22.26 281.112 22.26C281.752 22.26 282.246 22.14 282.592 21.9C282.952 21.6467 283.132 21.3267 283.132 20.94C283.132 20.5267 282.932 20.22 282.532 20.02C282.146 19.82 281.526 19.6 280.672 19.36C279.846 19.1333 279.172 18.9133 278.652 18.7C278.132 18.4867 277.679 18.16 277.292 17.72C276.919 17.28 276.732 16.7 276.732 15.98C276.732 15.3933 276.906 14.86 277.252 14.38C277.599 13.8867 278.092 13.5 278.732 13.22C279.386 12.94 280.132 12.8 280.972 12.8C282.226 12.8 283.232 13.12 283.992 13.76C284.766 14.3867 285.179 15.2467 285.232 16.34H282.952C282.912 15.8467 282.712 15.4533 282.352 15.16C281.992 14.8667 281.506 14.72 280.892 14.72C280.292 14.72 279.832 14.8333 279.512 15.06C279.192 15.2867 279.032 15.5867 279.032 15.96C279.032 16.2533 279.139 16.5 279.352 16.7C279.566 16.9 279.826 17.06 280.132 17.18C280.439 17.2867 280.892 17.4267 281.492 17.6C282.292 17.8133 282.946 18.0333 283.452 18.26C283.972 18.4733 284.419 18.7933 284.792 19.22C285.166 19.6467 285.359 20.2133 285.372 20.92C285.372 21.5467 285.199 22.1067 284.852 22.6C284.506 23.0933 284.012 23.48 283.372 23.76C282.746 24.04 282.006 24.18 281.152 24.18ZM290.496 14.84V20.94C290.496 21.3533 290.589 21.6533 290.776 21.84C290.976 22.0133 291.309 22.1 291.776 22.1H293.176V24H291.376C290.349 24 289.563 23.76 289.016 23.28C288.469 22.8 288.196 22.02 288.196 20.94V14.84H286.896V12.98H288.196V10.24H290.496V12.98H293.176V14.84H290.496ZM305.197 12.98L298.437 29.18H296.077L298.317 23.82L293.977 12.98H296.517L299.617 21.38L302.837 12.98H305.197ZM309.198 9.2V24H306.918V9.2H309.198ZM322.291 18.22C322.291 18.6333 322.265 19.0067 322.211 19.34H313.791C313.858 20.22 314.185 20.9267 314.771 21.46C315.358 21.9933 316.078 22.26 316.931 22.26C318.158 22.26 319.025 21.7467 319.531 20.72H321.991C321.658 21.7333 321.051 22.5667 320.171 23.22C319.305 23.86 318.225 24.18 316.931 24.18C315.878 24.18 314.931 23.9467 314.091 23.48C313.265 23 312.611 22.3333 312.131 21.48C311.665 20.6133 311.431 19.6133 311.431 18.48C311.431 17.3467 311.658 16.3533 312.111 15.5C312.578 14.6333 313.225 13.9667 314.051 13.5C314.891 13.0333 315.851 12.8 316.931 12.8C317.971 12.8 318.898 13.0267 319.711 13.48C320.525 13.9333 321.158 14.5733 321.611 15.4C322.065 16.2133 322.291 17.1533 322.291 18.22ZM319.911 17.5C319.898 16.66 319.598 15.9867 319.011 15.48C318.425 14.9733 317.698 14.72 316.831 14.72C316.045 14.72 315.371 14.9733 314.811 15.48C314.251 15.9733 313.918 16.6467 313.811 17.5H319.911ZM42.74 51.44C42.74 50.3333 42.9667 49.3533 43.42 48.5C43.8867 47.6467 44.5133 46.9867 45.3 46.52C46.1 46.04 46.98 45.8 47.94 45.8C48.8067 45.8 49.56 45.9733 50.2 46.32C50.8533 46.6533 51.3733 47.0733 51.76 47.58V45.98H54.06V57H51.76V55.36C51.3733 55.88 50.8467 56.3133 50.18 56.66C49.5133 57.0067 48.7533 57.18 47.9 57.18C46.9533 57.18 46.0867 56.94 45.3 56.46C44.5133 55.9667 43.8867 55.2867 43.42 54.42C42.9667 53.54 42.74 52.5467 42.74 51.44ZM51.76 51.48C51.76 50.72 51.6 50.06 51.28 49.5C50.9733 48.94 50.5667 48.5133 50.06 48.22C49.5533 47.9267 49.0067 47.78 48.42 47.78C47.8333 47.78 47.2867 47.9267 46.78 48.22C46.2733 48.5 45.86 48.92 45.54 49.48C45.2333 50.0267 45.08 50.68 45.08 51.44C45.08 52.2 45.2333 52.8667 45.54 53.44C45.86 54.0133 46.2733 54.4533 46.78 54.76C47.3 55.0533 47.8467 55.2 48.42 55.2C49.0067 55.2 49.5533 55.0533 50.06 54.76C50.5667 54.4667 50.9733 54.04 51.28 53.48C51.6 52.9067 51.76 52.24 51.76 51.48ZM62.6147 45.8C63.4814 45.8 64.2547 45.98 64.9347 46.34C65.628 46.7 66.168 47.2333 66.5547 47.94C66.9414 48.6467 67.1347 49.5 67.1347 50.5V57H64.8747V50.84C64.8747 49.8533 64.628 49.1 64.1347 48.58C63.6414 48.0467 62.968 47.78 62.1147 47.78C61.2614 47.78 60.5814 48.0467 60.0747 48.58C59.5814 49.1 59.3347 49.8533 59.3347 50.84V57H57.0547V45.98H59.3347V47.24C59.708 46.7867 60.1814 46.4333 60.7547 46.18C61.3414 45.9267 61.9614 45.8 62.6147 45.8ZM69.283 51.44C69.283 50.3333 69.5096 49.3533 69.963 48.5C70.4296 47.6467 71.0563 46.9867 71.843 46.52C72.643 46.04 73.5296 45.8 74.503 45.8C75.223 45.8 75.9296 45.96 76.623 46.28C77.3296 46.5867 77.8896 47 78.303 47.52V42.2H80.603V57H78.303V55.34C77.9296 55.8733 77.4096 56.3133 76.743 56.66C76.0896 57.0067 75.3363 57.18 74.483 57.18C73.523 57.18 72.643 56.94 71.843 56.46C71.0563 55.9667 70.4296 55.2867 69.963 54.42C69.5096 53.54 69.283 52.5467 69.283 51.44ZM78.303 51.48C78.303 50.72 78.143 50.06 77.823 49.5C77.5163 48.94 77.1096 48.5133 76.603 48.22C76.0963 47.9267 75.5496 47.78 74.963 47.78C74.3763 47.78 73.8296 47.9267 73.323 48.22C72.8163 48.5 72.403 48.92 72.083 49.48C71.7763 50.0267 71.623 50.68 71.623 51.44C71.623 52.2 71.7763 52.8667 72.083 53.44C72.403 54.0133 72.8163 54.4533 73.323 54.76C73.843 55.0533 74.3896 55.2 74.963 55.2C75.5496 55.2 76.0963 55.0533 76.603 54.76C77.1096 54.4667 77.5163 54.04 77.823 53.48C78.143 52.9067 78.303 52.24 78.303 51.48ZM91.453 47.84V53.94C91.453 54.3533 91.5463 54.6533 91.733 54.84C91.933 55.0133 92.2663 55.1 92.733 55.1H94.133V57H92.333C91.3063 57 90.5196 56.76 89.973 56.28C89.4263 55.8 89.153 55.02 89.153 53.94V47.84H87.853V45.98H89.153V43.24H91.453V45.98H94.133V47.84H91.453ZM101.934 45.8C102.774 45.8 103.521 45.98 104.174 46.34C104.841 46.7 105.361 47.2333 105.734 47.94C106.121 48.6467 106.314 49.5 106.314 50.5V57H104.054V50.84C104.054 49.8533 103.808 49.1 103.314 48.58C102.821 48.0467 102.148 47.78 101.294 47.78C100.441 47.78 99.761 48.0467 99.2544 48.58C98.761 49.1 98.5144 49.8533 98.5144 50.84V57H96.2344V42.2H98.5144V47.26C98.901 46.7933 99.3877 46.4333 99.9744 46.18C100.574 45.9267 101.228 45.8 101.934 45.8ZM119.323 51.22C119.323 51.6333 119.296 52.0067 119.243 52.34H110.823C110.889 53.22 111.216 53.9267 111.803 54.46C112.389 54.9933 113.109 55.26 113.963 55.26C115.189 55.26 116.056 54.7467 116.563 53.72H119.023C118.689 54.7333 118.083 55.5667 117.203 56.22C116.336 56.86 115.256 57.18 113.963 57.18C112.909 57.18 111.963 56.9467 111.123 56.48C110.296 56 109.643 55.3333 109.163 54.48C108.696 53.6133 108.463 52.6133 108.463 51.48C108.463 50.3467 108.689 49.3533 109.143 48.5C109.609 47.6333 110.256 46.9667 111.083 46.5C111.923 46.0333 112.883 45.8 113.963 45.8C115.003 45.8 115.929 46.0267 116.743 46.48C117.556 46.9333 118.189 47.5733 118.643 48.4C119.096 49.2133 119.323 50.1533 119.323 51.22ZM116.943 50.5C116.929 49.66 116.629 48.9867 116.043 48.48C115.456 47.9733 114.729 47.72 113.863 47.72C113.076 47.72 112.403 47.9733 111.843 48.48C111.283 48.9733 110.949 49.6467 110.843 50.5H116.943ZM134.906 45.8C135.773 45.8 136.546 45.98 137.226 46.34C137.92 46.7 138.46 47.2333 138.846 47.94C139.246 48.6467 139.446 49.5 139.446 50.5V57H137.186V50.84C137.186 49.8533 136.94 49.1 136.446 48.58C135.953 48.0467 135.28 47.78 134.426 47.78C133.573 47.78 132.893 48.0467 132.386 48.58C131.893 49.1 131.646 49.8533 131.646 50.84V57H129.386V50.84C129.386 49.8533 129.14 49.1 128.646 48.58C128.153 48.0467 127.48 47.78 126.626 47.78C125.773 47.78 125.093 48.0467 124.586 48.58C124.093 49.1 123.846 49.8533 123.846 50.84V57H121.566V45.98H123.846V47.24C124.22 46.7867 124.693 46.4333 125.266 46.18C125.84 45.9267 126.453 45.8 127.106 45.8C127.986 45.8 128.773 45.9867 129.466 46.36C130.16 46.7333 130.693 47.2733 131.066 47.98C131.4 47.3133 131.92 46.7867 132.626 46.4C133.333 46 134.093 45.8 134.906 45.8ZM152.448 51.22C152.448 51.6333 152.421 52.0067 152.368 52.34H143.948C144.014 53.22 144.341 53.9267 144.928 54.46C145.514 54.9933 146.234 55.26 147.088 55.26C148.314 55.26 149.181 54.7467 149.688 53.72H152.148C151.814 54.7333 151.208 55.5667 150.328 56.22C149.461 56.86 148.381 57.18 147.088 57.18C146.034 57.18 145.088 56.9467 144.248 56.48C143.421 56 142.768 55.3333 142.288 54.48C141.821 53.6133 141.588 52.6133 141.588 51.48C141.588 50.3467 141.814 49.3533 142.268 48.5C142.734 47.6333 143.381 46.9667 144.208 46.5C145.048 46.0333 146.008 45.8 147.088 45.8C148.128 45.8 149.054 46.0267 149.868 46.48C150.681 46.9333 151.314 47.5733 151.768 48.4C152.221 49.2133 152.448 50.1533 152.448 51.22ZM150.068 50.5C150.054 49.66 149.754 48.9867 149.168 48.48C148.581 47.9733 147.854 47.72 146.988 47.72C146.201 47.72 145.528 47.9733 144.968 48.48C144.408 48.9733 144.074 49.6467 143.968 50.5H150.068Z" fill="black"/>
<circle cx="11" cy="18" r="11" fill="#A554E6"/>
<g clip-path="url(#clip0_449_1030)">
<path d="M15.125 12.8438L8.73125 19.875L6.875 18.469H5.84375L8.73125 23.1562L16.1562 12.8438H15.125Z" fill="white"/>
</g>
<defs>
<clipPath id="clip0_449_1030">
<rect width="11" height="11" fill="white" transform="translate(5.5 12.5)"/>
</clipPath>
</defs>
</svg>
