<svg width="334" height="66" viewBox="0 0 334 66" fill="none" xmlns="http://www.w3.org/2000/svg">
<path d="M61.6 10.1L57.48 24H54.9L51.98 13.48L48.88 24L46.32 24.02L42.38 10.1H44.8L47.68 21.42L50.8 10.1H53.36L56.26 21.36L59.16 10.1H61.6ZM73.5805 18.22C73.5805 18.6333 73.5538 19.0067 73.5005 19.34H65.0805C65.1471 20.22 65.4738 20.9267 66.0605 21.46C66.6471 21.9933 67.3671 22.26 68.2205 22.26C69.4471 22.26 70.3138 21.7467 70.8205 20.72H73.2805C72.9471 21.7333 72.3405 22.5667 71.4605 23.22C70.5938 23.86 69.5138 24.18 68.2205 24.18C67.1671 24.18 66.2205 23.9467 65.3805 23.48C64.5538 23 63.9005 22.3333 63.4205 21.48C62.9538 20.6133 62.7205 19.6133 62.7205 18.48C62.7205 17.3467 62.9471 16.3533 63.4005 15.5C63.8671 14.6333 64.5138 13.9667 65.3405 13.5C66.1805 13.0333 67.1405 12.8 68.2205 12.8C69.2605 12.8 70.1871 13.0267 71.0005 13.48C71.8138 13.9333 72.4471 14.5733 72.9005 15.4C73.3538 16.2133 73.5805 17.1533 73.5805 18.22ZM71.2005 17.5C71.1871 16.66 70.8871 15.9867 70.3005 15.48C69.7138 14.9733 68.9871 14.72 68.1205 14.72C67.3338 14.72 66.6605 14.9733 66.1005 15.48C65.5405 15.9733 65.2071 16.6467 65.1005 17.5H71.2005ZM85.0195 24.18C84.1529 24.18 83.3729 24.0267 82.6795 23.72C81.9995 23.4 81.4595 22.9733 81.0595 22.44C80.6595 21.8933 80.4462 21.2867 80.4195 20.62H82.7795C82.8195 21.0867 83.0395 21.48 83.4395 21.8C83.8529 22.1067 84.3662 22.26 84.9795 22.26C85.6195 22.26 86.1129 22.14 86.4595 21.9C86.8195 21.6467 86.9995 21.3267 86.9995 20.94C86.9995 20.5267 86.7995 20.22 86.3995 20.02C86.0129 19.82 85.3929 19.6 84.5395 19.36C83.7129 19.1333 83.0395 18.9133 82.5195 18.7C81.9995 18.4867 81.5462 18.16 81.1595 17.72C80.7862 17.28 80.5995 16.7 80.5995 15.98C80.5995 15.3933 80.7729 14.86 81.1195 14.38C81.4662 13.8867 81.9595 13.5 82.5995 13.22C83.2529 12.94 83.9995 12.8 84.8395 12.8C86.0929 12.8 87.0995 13.12 87.8595 13.76C88.6329 14.3867 89.0462 15.2467 89.0995 16.34H86.8195C86.7795 15.8467 86.5795 15.4533 86.2195 15.16C85.8595 14.8667 85.3729 14.72 84.7595 14.72C84.1595 14.72 83.6995 14.8333 83.3795 15.06C83.0595 15.2867 82.8995 15.5867 82.8995 15.96C82.8995 16.2533 83.0062 16.5 83.2195 16.7C83.4329 16.9 83.6929 17.06 83.9995 17.18C84.3062 17.2867 84.7595 17.4267 85.3595 17.6C86.1595 17.8133 86.8129 18.0333 87.3195 18.26C87.8395 18.4733 88.2862 18.7933 88.6595 19.22C89.0329 19.6467 89.2262 20.2133 89.2395 20.92C89.2395 21.5467 89.0662 22.1067 88.7195 22.6C88.3729 23.0933 87.8795 23.48 87.2395 23.76C86.6129 24.04 85.8729 24.18 85.0195 24.18ZM94.3631 14.84V20.94C94.3631 21.3533 94.4565 21.6533 94.6431 21.84C94.8431 22.0133 95.1765 22.1 95.6431 22.1H97.0431V24H95.2431C94.2165 24 93.4298 23.76 92.8831 23.28C92.3365 22.8 92.0631 22.02 92.0631 20.94V14.84H90.7631V12.98H92.0631V10.24H94.3631V12.98H97.0431V14.84H94.3631ZM101.425 14.58C101.758 14.02 102.198 13.5867 102.745 13.28C103.305 12.96 103.965 12.8 104.725 12.8V15.16H104.145C103.251 15.16 102.571 15.3867 102.105 15.84C101.651 16.2933 101.425 17.08 101.425 18.2V24H99.1445V12.98H101.425V14.58ZM116.8 12.98V24H114.52V22.7C114.16 23.1533 113.687 23.5133 113.1 23.78C112.527 24.0333 111.914 24.16 111.26 24.16C110.394 24.16 109.614 23.98 108.92 23.62C108.24 23.26 107.7 22.7267 107.3 22.02C106.914 21.3133 106.72 20.46 106.72 19.46V12.98H108.98V19.12C108.98 20.1067 109.227 20.8667 109.72 21.4C110.214 21.92 110.887 22.18 111.74 22.18C112.594 22.18 113.267 21.92 113.76 21.4C114.267 20.8667 114.52 20.1067 114.52 19.12V12.98H116.8ZM119.049 18.48C119.049 17.3467 119.275 16.3533 119.729 15.5C120.195 14.6333 120.835 13.9667 121.649 13.5C122.462 13.0333 123.395 12.8 124.449 12.8C125.782 12.8 126.882 13.12 127.749 13.76C128.629 14.3867 129.222 15.2867 129.529 16.46H127.069C126.869 15.9133 126.549 15.4867 126.109 15.18C125.669 14.8733 125.115 14.72 124.449 14.72C123.515 14.72 122.769 15.0533 122.209 15.72C121.662 16.3733 121.389 17.2933 121.389 18.48C121.389 19.6667 121.662 20.5933 122.209 21.26C122.769 21.9267 123.515 22.26 124.449 22.26C125.769 22.26 126.642 21.68 127.069 20.52H129.529C129.209 21.64 128.609 22.5333 127.729 23.2C126.849 23.8533 125.755 24.18 124.449 24.18C123.395 24.18 122.462 23.9467 121.649 23.48C120.835 23 120.195 22.3333 119.729 21.48C119.275 20.6133 119.049 19.6133 119.049 18.48ZM134.461 14.84V20.94C134.461 21.3533 134.554 21.6533 134.741 21.84C134.941 22.0133 135.274 22.1 135.741 22.1H137.141V24H135.341C134.314 24 133.527 23.76 132.981 23.28C132.434 22.8 132.161 22.02 132.161 20.94V14.84H130.861V12.98H132.161V10.24H134.461V12.98H137.141V14.84H134.461ZM149.222 12.98V24H146.942V22.7C146.582 23.1533 146.109 23.5133 145.522 23.78C144.949 24.0333 144.336 24.16 143.682 24.16C142.816 24.16 142.036 23.98 141.342 23.62C140.662 23.26 140.122 22.7267 139.722 22.02C139.336 21.3133 139.142 20.46 139.142 19.46V12.98H141.402V19.12C141.402 20.1067 141.649 20.8667 142.142 21.4C142.636 21.92 143.309 22.18 144.162 22.18C145.016 22.18 145.689 21.92 146.182 21.4C146.689 20.8667 146.942 20.1067 146.942 19.12V12.98H149.222ZM154.51 14.58C154.844 14.02 155.284 13.5867 155.83 13.28C156.39 12.96 157.05 12.8 157.81 12.8V15.16H157.23C156.337 15.16 155.657 15.3867 155.19 15.84C154.737 16.2933 154.51 17.08 154.51 18.2V24H152.23V12.98H154.51V14.58ZM170.006 18.22C170.006 18.6333 169.98 19.0067 169.926 19.34H161.506C161.573 20.22 161.9 20.9267 162.486 21.46C163.073 21.9933 163.793 22.26 164.646 22.26C165.873 22.26 166.74 21.7467 167.246 20.72H169.706C169.373 21.7333 168.766 22.5667 167.886 23.22C167.02 23.86 165.94 24.18 164.646 24.18C163.593 24.18 162.646 23.9467 161.806 23.48C160.98 23 160.326 22.3333 159.846 21.48C159.38 20.6133 159.146 19.6133 159.146 18.48C159.146 17.3467 159.373 16.3533 159.826 15.5C160.293 14.6333 160.94 13.9667 161.766 13.5C162.606 13.0333 163.566 12.8 164.646 12.8C165.686 12.8 166.613 13.0267 167.426 13.48C168.24 13.9333 168.873 14.5733 169.326 15.4C169.78 16.2133 170.006 17.1533 170.006 18.22ZM167.626 17.5C167.613 16.66 167.313 15.9867 166.726 15.48C166.14 14.9733 165.413 14.72 164.546 14.72C163.76 14.72 163.086 14.9733 162.526 15.48C161.966 15.9733 161.633 16.6467 161.526 17.5H167.626ZM178.605 11.52C178.192 11.52 177.845 11.38 177.565 11.1C177.285 10.82 177.145 10.4733 177.145 10.06C177.145 9.64667 177.285 9.3 177.565 9.02C177.845 8.74 178.192 8.6 178.605 8.6C179.005 8.6 179.345 8.74 179.625 9.02C179.905 9.3 180.045 9.64667 180.045 10.06C180.045 10.4733 179.905 10.82 179.625 11.1C179.345 11.38 179.005 11.52 178.605 11.52ZM179.725 12.98V24H177.445V12.98H179.725ZM185.379 14.84V20.94C185.379 21.3533 185.472 21.6533 185.659 21.84C185.859 22.0133 186.192 22.1 186.659 22.1H188.059V24H186.259C185.232 24 184.445 23.76 183.899 23.28C183.352 22.8 183.079 22.02 183.079 20.94V14.84H181.779V12.98H183.079V10.24H185.379V12.98H188.059V14.84H185.379ZM199.975 14.84H197.935V24H195.635V14.84H194.335V12.98H195.635V12.2C195.635 10.9333 195.969 10.0133 196.635 9.44C197.315 8.85333 198.375 8.56 199.815 8.56V10.46C199.122 10.46 198.635 10.5933 198.355 10.86C198.075 11.1133 197.935 11.56 197.935 12.2V12.98H199.975V14.84ZM206.776 24.18C205.736 24.18 204.796 23.9467 203.956 23.48C203.116 23 202.456 22.3333 201.976 21.48C201.496 20.6133 201.256 19.6133 201.256 18.48C201.256 17.36 201.503 16.3667 201.996 15.5C202.489 14.6333 203.163 13.9667 204.016 13.5C204.869 13.0333 205.823 12.8 206.876 12.8C207.929 12.8 208.883 13.0333 209.736 13.5C210.589 13.9667 211.263 14.6333 211.756 15.5C212.249 16.3667 212.496 17.36 212.496 18.48C212.496 19.6 212.243 20.5933 211.736 21.46C211.229 22.3267 210.536 23 209.656 23.48C208.789 23.9467 207.829 24.18 206.776 24.18ZM206.776 22.2C207.363 22.2 207.909 22.06 208.416 21.78C208.936 21.5 209.356 21.08 209.676 20.52C209.996 19.96 210.156 19.28 210.156 18.48C210.156 17.68 210.003 17.0067 209.696 16.46C209.389 15.9 208.983 15.48 208.476 15.2C207.969 14.92 207.423 14.78 206.836 14.78C206.249 14.78 205.703 14.92 205.196 15.2C204.703 15.48 204.309 15.9 204.016 16.46C203.723 17.0067 203.576 17.68 203.576 18.48C203.576 19.6667 203.876 20.5867 204.476 21.24C205.089 21.88 205.856 22.2 206.776 22.2ZM217.03 14.58C217.363 14.02 217.803 13.5867 218.35 13.28C218.91 12.96 219.57 12.8 220.33 12.8V15.16H219.75C218.857 15.16 218.177 15.3867 217.71 15.84C217.257 16.2933 217.03 17.08 217.03 18.2V24H214.75V12.98H217.03V14.58ZM231.881 21.96L235.001 12.98H237.421L233.221 24H230.501L226.321 12.98H228.761L231.881 21.96ZM240.305 11.52C239.891 11.52 239.545 11.38 239.265 11.1C238.985 10.82 238.845 10.4733 238.845 10.06C238.845 9.64667 238.985 9.3 239.265 9.02C239.545 8.74 239.891 8.6 240.305 8.6C240.705 8.6 241.045 8.74 241.325 9.02C241.605 9.3 241.745 9.64667 241.745 10.06C241.745 10.4733 241.605 10.82 241.325 11.1C241.045 11.38 240.705 11.52 240.305 11.52ZM241.425 12.98V24H239.145V12.98H241.425ZM254.518 18.22C254.518 18.6333 254.491 19.0067 254.438 19.34H246.018C246.085 20.22 246.411 20.9267 246.998 21.46C247.585 21.9933 248.305 22.26 249.158 22.26C250.385 22.26 251.251 21.7467 251.758 20.72H254.218C253.885 21.7333 253.278 22.5667 252.398 23.22C251.531 23.86 250.451 24.18 249.158 24.18C248.105 24.18 247.158 23.9467 246.318 23.48C245.491 23 244.838 22.3333 244.358 21.48C243.891 20.6133 243.658 19.6133 243.658 18.48C243.658 17.3467 243.885 16.3533 244.338 15.5C244.805 14.6333 245.451 13.9667 246.278 13.5C247.118 13.0333 248.078 12.8 249.158 12.8C250.198 12.8 251.125 13.0267 251.938 13.48C252.751 13.9333 253.385 14.5733 253.838 15.4C254.291 16.2133 254.518 17.1533 254.518 18.22ZM252.138 17.5C252.125 16.66 251.825 15.9867 251.238 15.48C250.651 14.9733 249.925 14.72 249.058 14.72C248.271 14.72 247.598 14.9733 247.038 15.48C246.478 15.9733 246.145 16.6467 246.038 17.5H252.138ZM271.562 12.98L268.142 24H265.742L263.522 15.86L261.302 24H258.902L255.462 12.98H257.782L260.082 21.84L262.422 12.98H264.802L267.042 21.8L269.322 12.98H271.562ZM277.266 24.18C276.399 24.18 275.619 24.0267 274.926 23.72C274.246 23.4 273.706 22.9733 273.306 22.44C272.906 21.8933 272.692 21.2867 272.666 20.62H275.026C275.066 21.0867 275.286 21.48 275.686 21.8C276.099 22.1067 276.612 22.26 277.226 22.26C277.866 22.26 278.359 22.14 278.706 21.9C279.066 21.6467 279.246 21.3267 279.246 20.94C279.246 20.5267 279.046 20.22 278.646 20.02C278.259 19.82 277.639 19.6 276.786 19.36C275.959 19.1333 275.286 18.9133 274.766 18.7C274.246 18.4867 273.792 18.16 273.406 17.72C273.032 17.28 272.846 16.7 272.846 15.98C272.846 15.3933 273.019 14.86 273.366 14.38C273.712 13.8867 274.206 13.5 274.846 13.22C275.499 12.94 276.246 12.8 277.086 12.8C278.339 12.8 279.346 13.12 280.106 13.76C280.879 14.3867 281.292 15.2467 281.346 16.34H279.066C279.026 15.8467 278.826 15.4533 278.466 15.16C278.106 14.8667 277.619 14.72 277.006 14.72C276.406 14.72 275.946 14.8333 275.626 15.06C275.306 15.2867 275.146 15.5867 275.146 15.96C275.146 16.2533 275.252 16.5 275.466 16.7C275.679 16.9 275.939 17.06 276.246 17.18C276.552 17.2867 277.006 17.4267 277.606 17.6C278.406 17.8133 279.059 18.0333 279.566 18.26C280.086 18.4733 280.532 18.7933 280.906 19.22C281.279 19.6467 281.472 20.2133 281.486 20.92C281.486 21.5467 281.312 22.1067 280.966 22.6C280.619 23.0933 280.126 23.48 279.486 23.76C278.859 24.04 278.119 24.18 277.266 24.18ZM288.385 18.44C288.385 17.3333 288.611 16.3533 289.065 15.5C289.531 14.6467 290.158 13.9867 290.945 13.52C291.745 13.04 292.625 12.8 293.585 12.8C294.451 12.8 295.205 12.9733 295.845 13.32C296.498 13.6533 297.018 14.0733 297.405 14.58V12.98H299.705V24H297.405V22.36C297.018 22.88 296.491 23.3133 295.825 23.66C295.158 24.0067 294.398 24.18 293.545 24.18C292.598 24.18 291.731 23.94 290.945 23.46C290.158 22.9667 289.531 22.2867 289.065 21.42C288.611 20.54 288.385 19.5467 288.385 18.44ZM297.405 18.48C297.405 17.72 297.245 17.06 296.925 16.5C296.618 15.94 296.211 15.5133 295.705 15.22C295.198 14.9267 294.651 14.78 294.065 14.78C293.478 14.78 292.931 14.9267 292.425 15.22C291.918 15.5 291.505 15.92 291.185 16.48C290.878 17.0267 290.725 17.68 290.725 18.44C290.725 19.2 290.878 19.8667 291.185 20.44C291.505 21.0133 291.918 21.4533 292.425 21.76C292.945 22.0533 293.491 22.2 294.065 22.2C294.651 22.2 295.198 22.0533 295.705 21.76C296.211 21.4667 296.618 21.04 296.925 20.48C297.245 19.9067 297.405 19.24 297.405 18.48ZM308.259 12.8C309.126 12.8 309.899 12.98 310.579 13.34C311.273 13.7 311.813 14.2333 312.199 14.94C312.586 15.6467 312.779 16.5 312.779 17.5V24H310.519V17.84C310.519 16.8533 310.273 16.1 309.779 15.58C309.286 15.0467 308.613 14.78 307.759 14.78C306.906 14.78 306.226 15.0467 305.719 15.58C305.226 16.1 304.979 16.8533 304.979 17.84V24H302.699V12.98H304.979V14.24C305.353 13.7867 305.826 13.4333 306.399 13.18C306.986 12.9267 307.606 12.8 308.259 12.8ZM314.928 18.44C314.928 17.3333 315.154 16.3533 315.608 15.5C316.074 14.6467 316.701 13.9867 317.488 13.52C318.288 13.04 319.174 12.8 320.148 12.8C320.868 12.8 321.574 12.96 322.268 13.28C322.974 13.5867 323.534 14 323.948 14.52V9.2H326.248V24H323.948V22.34C323.574 22.8733 323.054 23.3133 322.388 23.66C321.734 24.0067 320.981 24.18 320.128 24.18C319.168 24.18 318.288 23.94 317.488 23.46C316.701 22.9667 316.074 22.2867 315.608 21.42C315.154 20.54 314.928 19.5467 314.928 18.44ZM323.948 18.48C323.948 17.72 323.788 17.06 323.468 16.5C323.161 15.94 322.754 15.5133 322.248 15.22C321.741 14.9267 321.194 14.78 320.608 14.78C320.021 14.78 319.474 14.9267 318.968 15.22C318.461 15.5 318.048 15.92 317.728 16.48C317.421 17.0267 317.268 17.68 317.268 18.44C317.268 19.2 317.421 19.8667 317.728 20.44C318.048 21.0133 318.461 21.4533 318.968 21.76C319.488 22.0533 320.034 22.2 320.608 22.2C321.194 22.2 321.741 22.0533 322.248 21.76C322.754 21.4667 323.161 21.04 323.468 20.48C323.788 19.9067 323.948 19.24 323.948 18.48ZM58.3 45.98L54.88 57H52.48L50.26 48.86L48.04 57H45.64L42.2 45.98H44.52L46.82 54.84L49.16 45.98H51.54L53.78 54.8L56.06 45.98H58.3ZM59.2439 51.44C59.2439 50.3333 59.4706 49.3533 59.9239 48.5C60.3906 47.6467 61.0172 46.9867 61.8039 46.52C62.6039 46.04 63.4839 45.8 64.4439 45.8C65.3106 45.8 66.0639 45.9733 66.7039 46.32C67.3572 46.6533 67.8772 47.0733 68.2639 47.58V45.98H70.5639V57H68.2639V55.36C67.8772 55.88 67.3506 56.3133 66.6839 56.66C66.0172 57.0067 65.2572 57.18 64.4039 57.18C63.4572 57.18 62.5906 56.94 61.8039 56.46C61.0172 55.9667 60.3906 55.2867 59.9239 54.42C59.4706 53.54 59.2439 52.5467 59.2439 51.44ZM68.2639 51.48C68.2639 50.72 68.1039 50.06 67.7839 49.5C67.4772 48.94 67.0706 48.5133 66.5639 48.22C66.0572 47.9267 65.5106 47.78 64.9239 47.78C64.3372 47.78 63.7906 47.9267 63.2839 48.22C62.7772 48.5 62.3639 48.92 62.0439 49.48C61.7372 50.0267 61.5839 50.68 61.5839 51.44C61.5839 52.2 61.7372 52.8667 62.0439 53.44C62.3639 54.0133 62.7772 54.4533 63.2839 54.76C63.8039 55.0533 64.3506 55.2 64.9239 55.2C65.5106 55.2 66.0572 55.0533 66.5639 54.76C67.0706 54.4667 67.4772 54.04 67.7839 53.48C68.1039 52.9067 68.2639 52.24 68.2639 51.48ZM76.2186 47.84V53.94C76.2186 54.3533 76.3119 54.6533 76.4986 54.84C76.6986 55.0133 77.0319 55.1 77.4986 55.1H78.8986V57H77.0986C76.0719 57 75.2853 56.76 74.7386 56.28C74.1919 55.8 73.9186 55.02 73.9186 53.94V47.84H72.6186V45.98H73.9186V43.24H76.2186V45.98H78.8986V47.84H76.2186ZM80.24 51.48C80.24 50.3467 80.4667 49.3533 80.92 48.5C81.3867 47.6333 82.0267 46.9667 82.84 46.5C83.6533 46.0333 84.5867 45.8 85.64 45.8C86.9733 45.8 88.0733 46.12 88.94 46.76C89.82 47.3867 90.4133 48.2867 90.72 49.46H88.26C88.06 48.9133 87.74 48.4867 87.3 48.18C86.86 47.8733 86.3067 47.72 85.64 47.72C84.7067 47.72 83.96 48.0533 83.4 48.72C82.8533 49.3733 82.58 50.2933 82.58 51.48C82.58 52.6667 82.8533 53.5933 83.4 54.26C83.96 54.9267 84.7067 55.26 85.64 55.26C86.96 55.26 87.8333 54.68 88.26 53.52H90.72C90.4 54.64 89.8 55.5333 88.92 56.2C88.04 56.8533 86.9467 57.18 85.64 57.18C84.5867 57.18 83.6533 56.9467 82.84 56.48C82.0267 56 81.3867 55.3333 80.92 54.48C80.4667 53.6133 80.24 52.6133 80.24 51.48ZM98.6922 45.8C99.5322 45.8 100.279 45.98 100.932 46.34C101.599 46.7 102.119 47.2333 102.492 47.94C102.879 48.6467 103.072 49.5 103.072 50.5V57H100.812V50.84C100.812 49.8533 100.566 49.1 100.072 48.58C99.5789 48.0467 98.9055 47.78 98.0522 47.78C97.1989 47.78 96.5189 48.0467 96.0122 48.58C95.5189 49.1 95.2722 49.8533 95.2722 50.84V57H92.9922V42.2H95.2722V47.26C95.6589 46.7933 96.1455 46.4333 96.7322 46.18C97.3322 45.9267 97.9855 45.8 98.6922 45.8ZM114.44 48.8V50.72H106.22V48.8H114.44ZM120.34 47.84V53.94C120.34 54.3533 120.433 54.6533 120.62 54.84C120.82 55.0133 121.153 55.1 121.62 55.1H123.02V57H121.22C120.193 57 119.406 56.76 118.86 56.28C118.313 55.8 118.04 55.02 118.04 53.94V47.84H116.74V45.98H118.04V43.24H120.34V45.98H123.02V47.84H120.34ZM126.281 44.52C125.868 44.52 125.521 44.38 125.241 44.1C124.961 43.82 124.821 43.4733 124.821 43.06C124.821 42.6467 124.961 42.3 125.241 42.02C125.521 41.74 125.868 41.6 126.281 41.6C126.681 41.6 127.021 41.74 127.301 42.02C127.581 42.3 127.721 42.6467 127.721 43.06C127.721 43.4733 127.581 43.82 127.301 44.1C127.021 44.38 126.681 44.52 126.281 44.52ZM127.401 45.98V57H125.121V45.98H127.401ZM143.735 45.8C144.601 45.8 145.375 45.98 146.055 46.34C146.748 46.7 147.288 47.2333 147.675 47.94C148.075 48.6467 148.275 49.5 148.275 50.5V57H146.015V50.84C146.015 49.8533 145.768 49.1 145.275 48.58C144.781 48.0467 144.108 47.78 143.255 47.78C142.401 47.78 141.721 48.0467 141.215 48.58C140.721 49.1 140.475 49.8533 140.475 50.84V57H138.215V50.84C138.215 49.8533 137.968 49.1 137.475 48.58C136.981 48.0467 136.308 47.78 135.455 47.78C134.601 47.78 133.921 48.0467 133.415 48.58C132.921 49.1 132.675 49.8533 132.675 50.84V57H130.395V45.98H132.675V47.24C133.048 46.7867 133.521 46.4333 134.095 46.18C134.668 45.9267 135.281 45.8 135.935 45.8C136.815 45.8 137.601 45.9867 138.295 46.36C138.988 46.7333 139.521 47.2733 139.895 47.98C140.228 47.3133 140.748 46.7867 141.455 46.4C142.161 46 142.921 45.8 143.735 45.8ZM161.276 51.22C161.276 51.6333 161.249 52.0067 161.196 52.34H152.776C152.842 53.22 153.169 53.9267 153.756 54.46C154.342 54.9933 155.062 55.26 155.916 55.26C157.142 55.26 158.009 54.7467 158.516 53.72H160.976C160.642 54.7333 160.036 55.5667 159.156 56.22C158.289 56.86 157.209 57.18 155.916 57.18C154.862 57.18 153.916 56.9467 153.076 56.48C152.249 56 151.596 55.3333 151.116 54.48C150.649 53.6133 150.416 52.6133 150.416 51.48C150.416 50.3467 150.642 49.3533 151.096 48.5C151.562 47.6333 152.209 46.9667 153.036 46.5C153.876 46.0333 154.836 45.8 155.916 45.8C156.956 45.8 157.882 46.0267 158.696 46.48C159.509 46.9333 160.142 47.5733 160.596 48.4C161.049 49.2133 161.276 50.1533 161.276 51.22ZM158.896 50.5C158.882 49.66 158.582 48.9867 157.996 48.48C157.409 47.9733 156.682 47.72 155.816 47.72C155.029 47.72 154.356 47.9733 153.796 48.48C153.236 48.9733 152.902 49.6467 152.796 50.5H158.896Z" fill="black"/>
<circle cx="11" cy="18" r="11" fill="#A554E6"/>
<g clip-path="url(#clip0_449_1018)">
<path d="M15.125 12.8438L8.73125 19.875L6.875 18.469H5.84375L8.73125 23.1562L16.1562 12.8438H15.125Z" fill="white"/>
</g>
<defs>
<clipPath id="clip0_449_1018">
<rect width="11" height="11" fill="white" transform="translate(5.5 12.5)"/>
</clipPath>
</defs>
</svg>
