<svg width="334" height="66" viewBox="0 0 334 66" fill="none" xmlns="http://www.w3.org/2000/svg">
<path d="M61.6 10.1L57.48 24H54.9L51.98 13.48L48.88 24L46.32 24.02L42.38 10.1H44.8L47.68 21.42L50.8 10.1H53.36L56.26 21.36L59.16 10.1H61.6ZM73.5805 18.22C73.5805 18.6333 73.5538 19.0067 73.5005 19.34H65.0805C65.1471 20.22 65.4738 20.9267 66.0605 21.46C66.6471 21.9933 67.3671 22.26 68.2205 22.26C69.4471 22.26 70.3138 21.7467 70.8205 20.72H73.2805C72.9471 21.7333 72.3405 22.5667 71.4605 23.22C70.5938 23.86 69.5138 24.18 68.2205 24.18C67.1671 24.18 66.2205 23.9467 65.3805 23.48C64.5538 23 63.9005 22.3333 63.4205 21.48C62.9538 20.6133 62.7205 19.6133 62.7205 18.48C62.7205 17.3467 62.9471 16.3533 63.4005 15.5C63.8671 14.6333 64.5138 13.9667 65.3405 13.5C66.1805 13.0333 67.1405 12.8 68.2205 12.8C69.2605 12.8 70.1871 13.0267 71.0005 13.48C71.8138 13.9333 72.4471 14.5733 72.9005 15.4C73.3538 16.2133 73.5805 17.1533 73.5805 18.22ZM71.2005 17.5C71.1871 16.66 70.8871 15.9867 70.3005 15.48C69.7138 14.9733 68.9871 14.72 68.1205 14.72C67.3338 14.72 66.6605 14.9733 66.1005 15.48C65.5405 15.9733 65.2071 16.6467 65.1005 17.5H71.2005ZM83.6795 14.84V20.94C83.6795 21.3533 83.7729 21.6533 83.9595 21.84C84.1595 22.0133 84.4929 22.1 84.9595 22.1H86.3595V24H84.5595C83.5329 24 82.7462 23.76 82.1995 23.28C81.6529 22.8 81.3795 22.02 81.3795 20.94V14.84H80.0795V12.98H81.3795V10.24H83.6795V12.98H86.3595V14.84H83.6795ZM87.7009 18.44C87.7009 17.3333 87.9276 16.3533 88.3809 15.5C88.8476 14.6467 89.4743 13.9867 90.2609 13.52C91.0609 13.04 91.9409 12.8 92.9009 12.8C93.7676 12.8 94.5209 12.9733 95.1609 13.32C95.8143 13.6533 96.3343 14.0733 96.7209 14.58V12.98H99.0209V24H96.7209V22.36C96.3343 22.88 95.8076 23.3133 95.1409 23.66C94.4743 24.0067 93.7143 24.18 92.8609 24.18C91.9143 24.18 91.0476 23.94 90.2609 23.46C89.4743 22.9667 88.8476 22.2867 88.3809 21.42C87.9276 20.54 87.7009 19.5467 87.7009 18.44ZM96.7209 18.48C96.7209 17.72 96.5609 17.06 96.2409 16.5C95.9343 15.94 95.5276 15.5133 95.0209 15.22C94.5143 14.9267 93.9676 14.78 93.3809 14.78C92.7943 14.78 92.2476 14.9267 91.7409 15.22C91.2343 15.5 90.8209 15.92 90.5009 16.48C90.1943 17.0267 90.0409 17.68 90.0409 18.44C90.0409 19.2 90.1943 19.8667 90.5009 20.44C90.8209 21.0133 91.2343 21.4533 91.7409 21.76C92.2609 22.0533 92.8076 22.2 93.3809 22.2C93.9676 22.2 94.5143 22.0533 95.0209 21.76C95.5276 21.4667 95.9343 21.04 96.2409 20.48C96.5609 19.9067 96.7209 19.24 96.7209 18.48ZM106.376 18.5L111.456 24H108.376L104.296 19.26V24H102.016V9.2H104.296V17.8L108.296 12.98H111.456L106.376 18.5ZM123.19 18.22C123.19 18.6333 123.163 19.0067 123.11 19.34H114.69C114.757 20.22 115.083 20.9267 115.67 21.46C116.257 21.9933 116.977 22.26 117.83 22.26C119.057 22.26 119.923 21.7467 120.43 20.72H122.89C122.557 21.7333 121.95 22.5667 121.07 23.22C120.203 23.86 119.123 24.18 117.83 24.18C116.777 24.18 115.83 23.9467 114.99 23.48C114.163 23 113.51 22.3333 113.03 21.48C112.563 20.6133 112.33 19.6133 112.33 18.48C112.33 17.3467 112.557 16.3533 113.01 15.5C113.477 14.6333 114.123 13.9667 114.95 13.5C115.79 13.0333 116.75 12.8 117.83 12.8C118.87 12.8 119.797 13.0267 120.61 13.48C121.423 13.9333 122.057 14.5733 122.51 15.4C122.963 16.2133 123.19 17.1533 123.19 18.22ZM120.81 17.5C120.797 16.66 120.497 15.9867 119.91 15.48C119.323 14.9733 118.597 14.72 117.73 14.72C116.943 14.72 116.27 14.9733 115.71 15.48C115.15 15.9733 114.817 16.6467 114.71 17.5H120.81ZM132.909 14.58C133.242 14.02 133.682 13.5867 134.229 13.28C134.789 12.96 135.449 12.8 136.209 12.8V15.16H135.629C134.736 15.16 134.056 15.3867 133.589 15.84C133.136 16.2933 132.909 17.08 132.909 18.2V24H130.629V12.98H132.909V14.58ZM137.545 18.44C137.545 17.3333 137.771 16.3533 138.225 15.5C138.691 14.6467 139.318 13.9867 140.105 13.52C140.905 13.04 141.785 12.8 142.745 12.8C143.611 12.8 144.365 12.9733 145.005 13.32C145.658 13.6533 146.178 14.0733 146.565 14.58V12.98H148.865V24H146.565V22.36C146.178 22.88 145.651 23.3133 144.985 23.66C144.318 24.0067 143.558 24.18 142.705 24.18C141.758 24.18 140.891 23.94 140.105 23.46C139.318 22.9667 138.691 22.2867 138.225 21.42C137.771 20.54 137.545 19.5467 137.545 18.44ZM146.565 18.48C146.565 17.72 146.405 17.06 146.085 16.5C145.778 15.94 145.371 15.5133 144.865 15.22C144.358 14.9267 143.811 14.78 143.225 14.78C142.638 14.78 142.091 14.9267 141.585 15.22C141.078 15.5 140.665 15.92 140.345 16.48C140.038 17.0267 139.885 17.68 139.885 18.44C139.885 19.2 140.038 19.8667 140.345 20.44C140.665 21.0133 141.078 21.4533 141.585 21.76C142.105 22.0533 142.651 22.2 143.225 22.2C143.811 22.2 144.358 22.0533 144.865 21.76C145.371 21.4667 145.778 21.04 146.085 20.48C146.405 19.9067 146.565 19.24 146.565 18.48ZM166.659 12.98L163.239 24H160.839L158.619 15.86L156.399 24H153.999L150.559 12.98H152.879L155.179 21.84L157.519 12.98H159.899L162.139 21.8L164.419 12.98H166.659ZM177.819 21.96L180.939 12.98H183.359L179.159 24H176.439L172.259 12.98H174.699L177.819 21.96ZM186.242 11.52C185.829 11.52 185.482 11.38 185.202 11.1C184.922 10.82 184.782 10.4733 184.782 10.06C184.782 9.64667 184.922 9.3 185.202 9.02C185.482 8.74 185.829 8.6 186.242 8.6C186.642 8.6 186.982 8.74 187.262 9.02C187.542 9.3 187.682 9.64667 187.682 10.06C187.682 10.4733 187.542 10.82 187.262 11.1C186.982 11.38 186.642 11.52 186.242 11.52ZM187.362 12.98V24H185.082V12.98H187.362ZM189.595 18.44C189.595 17.3333 189.822 16.3533 190.275 15.5C190.742 14.6467 191.369 13.9867 192.155 13.52C192.955 13.04 193.842 12.8 194.815 12.8C195.535 12.8 196.242 12.96 196.935 13.28C197.642 13.5867 198.202 14 198.615 14.52V9.2H200.915V24H198.615V22.34C198.242 22.8733 197.722 23.3133 197.055 23.66C196.402 24.0067 195.649 24.18 194.795 24.18C193.835 24.18 192.955 23.94 192.155 23.46C191.369 22.9667 190.742 22.2867 190.275 21.42C189.822 20.54 189.595 19.5467 189.595 18.44ZM198.615 18.48C198.615 17.72 198.455 17.06 198.135 16.5C197.829 15.94 197.422 15.5133 196.915 15.22C196.409 14.9267 195.862 14.78 195.275 14.78C194.689 14.78 194.142 14.9267 193.635 15.22C193.129 15.5 192.715 15.92 192.395 16.48C192.089 17.0267 191.935 17.68 191.935 18.44C191.935 19.2 192.089 19.8667 192.395 20.44C192.715 21.0133 193.129 21.4533 193.635 21.76C194.155 22.0533 194.702 22.2 195.275 22.2C195.862 22.2 196.409 22.0533 196.915 21.76C197.422 21.4667 197.829 21.04 198.135 20.48C198.455 19.9067 198.615 19.24 198.615 18.48ZM214.01 18.22C214.01 18.6333 213.983 19.0067 213.93 19.34H205.51C205.577 20.22 205.903 20.9267 206.49 21.46C207.077 21.9933 207.797 22.26 208.65 22.26C209.877 22.26 210.743 21.7467 211.25 20.72H213.71C213.377 21.7333 212.77 22.5667 211.89 23.22C211.023 23.86 209.943 24.18 208.65 24.18C207.597 24.18 206.65 23.9467 205.81 23.48C204.983 23 204.33 22.3333 203.85 21.48C203.383 20.6133 203.15 19.6133 203.15 18.48C203.15 17.3467 203.377 16.3533 203.83 15.5C204.297 14.6333 204.943 13.9667 205.77 13.5C206.61 13.0333 207.57 12.8 208.65 12.8C209.69 12.8 210.617 13.0267 211.43 13.48C212.243 13.9333 212.877 14.5733 213.33 15.4C213.783 16.2133 214.01 17.1533 214.01 18.22ZM211.63 17.5C211.617 16.66 211.317 15.9867 210.73 15.48C210.143 14.9733 209.417 14.72 208.55 14.72C207.763 14.72 207.09 14.9733 206.53 15.48C205.97 15.9733 205.637 16.6467 205.53 17.5H211.63ZM221.034 24.18C219.994 24.18 219.054 23.9467 218.214 23.48C217.374 23 216.714 22.3333 216.234 21.48C215.754 20.6133 215.514 19.6133 215.514 18.48C215.514 17.36 215.761 16.3667 216.254 15.5C216.747 14.6333 217.421 13.9667 218.274 13.5C219.127 13.0333 220.081 12.8 221.134 12.8C222.187 12.8 223.141 13.0333 223.994 13.5C224.847 13.9667 225.521 14.6333 226.014 15.5C226.507 16.3667 226.754 17.36 226.754 18.48C226.754 19.6 226.501 20.5933 225.994 21.46C225.487 22.3267 224.794 23 223.914 23.48C223.047 23.9467 222.087 24.18 221.034 24.18ZM221.034 22.2C221.621 22.2 222.167 22.06 222.674 21.78C223.194 21.5 223.614 21.08 223.934 20.52C224.254 19.96 224.414 19.28 224.414 18.48C224.414 17.68 224.261 17.0067 223.954 16.46C223.647 15.9 223.241 15.48 222.734 15.2C222.227 14.92 221.681 14.78 221.094 14.78C220.507 14.78 219.961 14.92 219.454 15.2C218.961 15.48 218.567 15.9 218.274 16.46C217.981 17.0067 217.834 17.68 217.834 18.48C217.834 19.6667 218.134 20.5867 218.734 21.24C219.347 21.88 220.114 22.2 221.034 22.2ZM233.443 18.44C233.443 17.3333 233.67 16.3533 234.123 15.5C234.59 14.6467 235.216 13.9867 236.003 13.52C236.803 13.04 237.683 12.8 238.643 12.8C239.51 12.8 240.263 12.9733 240.903 13.32C241.556 13.6533 242.076 14.0733 242.463 14.58V12.98H244.763V24H242.463V22.36C242.076 22.88 241.55 23.3133 240.883 23.66C240.216 24.0067 239.456 24.18 238.603 24.18C237.656 24.18 236.79 23.94 236.003 23.46C235.216 22.9667 234.59 22.2867 234.123 21.42C233.67 20.54 233.443 19.5467 233.443 18.44ZM242.463 18.48C242.463 17.72 242.303 17.06 241.983 16.5C241.676 15.94 241.27 15.5133 240.763 15.22C240.256 14.9267 239.71 14.78 239.123 14.78C238.536 14.78 237.99 14.9267 237.483 15.22C236.976 15.5 236.563 15.92 236.243 16.48C235.936 17.0267 235.783 17.68 235.783 18.44C235.783 19.2 235.936 19.8667 236.243 20.44C236.563 21.0133 236.976 21.4533 237.483 21.76C238.003 22.0533 238.55 22.2 239.123 22.2C239.71 22.2 240.256 22.0533 240.763 21.76C241.27 21.4667 241.676 21.04 241.983 20.48C242.303 19.9067 242.463 19.24 242.463 18.48ZM253.318 12.8C254.184 12.8 254.958 12.98 255.638 13.34C256.331 13.7 256.871 14.2333 257.258 14.94C257.644 15.6467 257.838 16.5 257.838 17.5V24H255.578V17.84C255.578 16.8533 255.331 16.1 254.838 15.58C254.344 15.0467 253.671 14.78 252.818 14.78C251.964 14.78 251.284 15.0467 250.778 15.58C250.284 16.1 250.038 16.8533 250.038 17.84V24H247.758V12.98H250.038V14.24C250.411 13.7867 250.884 13.4333 251.458 13.18C252.044 12.9267 252.664 12.8 253.318 12.8ZM259.986 18.44C259.986 17.3333 260.213 16.3533 260.666 15.5C261.133 14.6467 261.759 13.9867 262.546 13.52C263.346 13.04 264.233 12.8 265.206 12.8C265.926 12.8 266.633 12.96 267.326 13.28C268.033 13.5867 268.593 14 269.006 14.52V9.2H271.306V24H269.006V22.34C268.633 22.8733 268.113 23.3133 267.446 23.66C266.793 24.0067 266.039 24.18 265.186 24.18C264.226 24.18 263.346 23.94 262.546 23.46C261.759 22.9667 261.133 22.2867 260.666 21.42C260.213 20.54 259.986 19.5467 259.986 18.44ZM269.006 18.48C269.006 17.72 268.846 17.06 268.526 16.5C268.219 15.94 267.813 15.5133 267.306 15.22C266.799 14.9267 266.253 14.78 265.666 14.78C265.079 14.78 264.533 14.9267 264.026 15.22C263.519 15.5 263.106 15.92 262.786 16.48C262.479 17.0267 262.326 17.68 262.326 18.44C262.326 19.2 262.479 19.8667 262.786 20.44C263.106 21.0133 263.519 21.4533 264.026 21.76C264.546 22.0533 265.093 22.2 265.666 22.2C266.253 22.2 266.799 22.0533 267.306 21.76C267.813 21.4667 268.219 21.04 268.526 20.48C268.846 19.9067 269.006 19.24 269.006 18.48ZM281.701 5.12L276.261 27.5H274.021L279.441 5.12H281.701ZM289.354 24.18C288.314 24.18 287.374 23.9467 286.534 23.48C285.694 23 285.034 22.3333 284.554 21.48C284.074 20.6133 283.834 19.6133 283.834 18.48C283.834 17.36 284.081 16.3667 284.574 15.5C285.068 14.6333 285.741 13.9667 286.594 13.5C287.448 13.0333 288.401 12.8 289.454 12.8C290.508 12.8 291.461 13.0333 292.314 13.5C293.168 13.9667 293.841 14.6333 294.334 15.5C294.828 16.3667 295.074 17.36 295.074 18.48C295.074 19.6 294.821 20.5933 294.314 21.46C293.808 22.3267 293.114 23 292.234 23.48C291.368 23.9467 290.408 24.18 289.354 24.18ZM289.354 22.2C289.941 22.2 290.488 22.06 290.994 21.78C291.514 21.5 291.934 21.08 292.254 20.52C292.574 19.96 292.734 19.28 292.734 18.48C292.734 17.68 292.581 17.0067 292.274 16.46C291.968 15.9 291.561 15.48 291.054 15.2C290.548 14.92 290.001 14.78 289.414 14.78C288.828 14.78 288.281 14.92 287.774 15.2C287.281 15.48 286.888 15.9 286.594 16.46C286.301 17.0067 286.154 17.68 286.154 18.48C286.154 19.6667 286.454 20.5867 287.054 21.24C287.668 21.88 288.434 22.2 289.354 22.2ZM299.608 14.58C299.941 14.02 300.381 13.5867 300.928 13.28C301.488 12.96 302.148 12.8 302.908 12.8V15.16H302.328C301.435 15.16 300.755 15.3867 300.288 15.84C299.835 16.2933 299.608 17.08 299.608 18.2V24H297.328V12.98H299.608V14.58ZM45.78 47.6C46.1667 47.0933 46.6933 46.6667 47.36 46.32C48.0267 45.9733 48.78 45.8 49.62 45.8C50.58 45.8 51.4533 46.04 52.24 46.52C53.04 46.9867 53.6667 47.6467 54.12 48.5C54.5733 49.3533 54.8 50.3333 54.8 51.44C54.8 52.5467 54.5733 53.54 54.12 54.42C53.6667 55.2867 53.04 55.9667 52.24 56.46C51.4533 56.94 50.58 57.18 49.62 57.18C48.78 57.18 48.0333 57.0133 47.38 56.68C46.7267 56.3333 46.1933 55.9067 45.78 55.4V62.24H43.5V45.98H45.78V47.6ZM52.48 51.44C52.48 50.68 52.32 50.0267 52 49.48C51.6933 48.92 51.28 48.5 50.76 48.22C50.2533 47.9267 49.7067 47.78 49.12 47.78C48.5467 47.78 48 47.9267 47.48 48.22C46.9733 48.5133 46.56 48.94 46.24 49.5C45.9333 50.06 45.78 50.72 45.78 51.48C45.78 52.24 45.9333 52.9067 46.24 53.48C46.56 54.04 46.9733 54.4667 47.48 54.76C48 55.0533 48.5467 55.2 49.12 55.2C49.7067 55.2 50.2533 55.0533 50.76 54.76C51.28 54.4533 51.6933 54.0133 52 53.44C52.32 52.8667 52.48 52.2 52.48 51.44ZM59.3347 47.58C59.668 47.02 60.108 46.5867 60.6547 46.28C61.2147 45.96 61.8747 45.8 62.6347 45.8V48.16H62.0547C61.1614 48.16 60.4814 48.3867 60.0147 48.84C59.5614 49.2933 59.3347 50.08 59.3347 51.2V57H57.0547V45.98H59.3347V47.58ZM74.8305 51.22C74.8305 51.6333 74.8038 52.0067 74.7505 52.34H66.3305C66.3971 53.22 66.7238 53.9267 67.3105 54.46C67.8971 54.9933 68.6171 55.26 69.4705 55.26C70.6971 55.26 71.5638 54.7467 72.0705 53.72H74.5305C74.1971 54.7333 73.5905 55.5667 72.7105 56.22C71.8438 56.86 70.7638 57.18 69.4705 57.18C68.4171 57.18 67.4705 56.9467 66.6305 56.48C65.8038 56 65.1505 55.3333 64.6705 54.48C64.2038 53.6133 63.9705 52.6133 63.9705 51.48C63.9705 50.3467 64.1971 49.3533 64.6505 48.5C65.1171 47.6333 65.7638 46.9667 66.5905 46.5C67.4305 46.0333 68.3905 45.8 69.4705 45.8C70.5105 45.8 71.4371 46.0267 72.2505 46.48C73.0638 46.9333 73.6971 47.5733 74.1505 48.4C74.6038 49.2133 74.8305 50.1533 74.8305 51.22ZM72.4505 50.5C72.4371 49.66 72.1371 48.9867 71.5505 48.48C70.9638 47.9733 70.2371 47.72 69.3705 47.72C68.5838 47.72 67.9105 47.9733 67.3505 48.48C66.7905 48.9733 66.4571 49.6467 66.3505 50.5H72.4505ZM90.4142 45.8C91.2809 45.8 92.0542 45.98 92.7342 46.34C93.4276 46.7 93.9676 47.2333 94.3542 47.94C94.7542 48.6467 94.9542 49.5 94.9542 50.5V57H92.6942V50.84C92.6942 49.8533 92.4476 49.1 91.9542 48.58C91.4609 48.0467 90.7876 47.78 89.9342 47.78C89.0809 47.78 88.4009 48.0467 87.8942 48.58C87.4009 49.1 87.1542 49.8533 87.1542 50.84V57H84.8942V50.84C84.8942 49.8533 84.6476 49.1 84.1542 48.58C83.6609 48.0467 82.9876 47.78 82.1342 47.78C81.2809 47.78 80.6009 48.0467 80.0942 48.58C79.6009 49.1 79.3542 49.8533 79.3542 50.84V57H77.0742V45.98H79.3542V47.24C79.7276 46.7867 80.2009 46.4333 80.7742 46.18C81.3476 45.9267 81.9609 45.8 82.6142 45.8C83.4942 45.8 84.2809 45.9867 84.9742 46.36C85.6676 46.7333 86.2009 47.2733 86.5742 47.98C86.9076 47.3133 87.4276 46.7867 88.1342 46.4C88.8409 46 89.6009 45.8 90.4142 45.8ZM99.0155 44.52C98.6021 44.52 98.2555 44.38 97.9755 44.1C97.6955 43.82 97.5555 43.4733 97.5555 43.06C97.5555 42.6467 97.6955 42.3 97.9755 42.02C98.2555 41.74 98.6021 41.6 99.0155 41.6C99.4155 41.6 99.7555 41.74 100.035 42.02C100.315 42.3 100.455 42.6467 100.455 43.06C100.455 43.4733 100.315 43.82 100.035 44.1C99.7555 44.38 99.4155 44.52 99.0155 44.52ZM100.135 45.98V57H97.8555V45.98H100.135ZM113.109 45.98V57H110.829V55.7C110.469 56.1533 109.996 56.5133 109.409 56.78C108.836 57.0333 108.222 57.16 107.569 57.16C106.702 57.16 105.922 56.98 105.229 56.62C104.549 56.26 104.009 55.7267 103.609 55.02C103.222 54.3133 103.029 53.46 103.029 52.46V45.98H105.289V52.12C105.289 53.1067 105.536 53.8667 106.029 54.4C106.522 54.92 107.196 55.18 108.049 55.18C108.902 55.18 109.576 54.92 110.069 54.4C110.576 53.8667 110.829 53.1067 110.829 52.12V45.98H113.109ZM129.457 45.8C130.324 45.8 131.097 45.98 131.777 46.34C132.471 46.7 133.011 47.2333 133.397 47.94C133.797 48.6467 133.997 49.5 133.997 50.5V57H131.737V50.84C131.737 49.8533 131.491 49.1 130.997 48.58C130.504 48.0467 129.831 47.78 128.977 47.78C128.124 47.78 127.444 48.0467 126.937 48.58C126.444 49.1 126.197 49.8533 126.197 50.84V57H123.937V50.84C123.937 49.8533 123.691 49.1 123.197 48.58C122.704 48.0467 122.031 47.78 121.177 47.78C120.324 47.78 119.644 48.0467 119.137 48.58C118.644 49.1 118.397 49.8533 118.397 50.84V57H116.117V45.98H118.397V47.24C118.771 46.7867 119.244 46.4333 119.817 46.18C120.391 45.9267 121.004 45.8 121.657 45.8C122.537 45.8 123.324 45.9867 124.017 46.36C124.711 46.7333 125.244 47.2733 125.617 47.98C125.951 47.3133 126.471 46.7867 127.177 46.4C127.884 46 128.644 45.8 129.457 45.8ZM146.094 57.18C145.227 57.18 144.447 57.0267 143.754 56.72C143.074 56.4 142.534 55.9733 142.134 55.44C141.734 54.8933 141.52 54.2867 141.494 53.62H143.854C143.894 54.0867 144.114 54.48 144.514 54.8C144.927 55.1067 145.44 55.26 146.054 55.26C146.694 55.26 147.187 55.14 147.534 54.9C147.894 54.6467 148.074 54.3267 148.074 53.94C148.074 53.5267 147.874 53.22 147.474 53.02C147.087 52.82 146.467 52.6 145.614 52.36C144.787 52.1333 144.114 51.9133 143.594 51.7C143.074 51.4867 142.62 51.16 142.234 50.72C141.86 50.28 141.674 49.7 141.674 48.98C141.674 48.3933 141.847 47.86 142.194 47.38C142.54 46.8867 143.034 46.5 143.674 46.22C144.327 45.94 145.074 45.8 145.914 45.8C147.167 45.8 148.174 46.12 148.934 46.76C149.707 47.3867 150.12 48.2467 150.174 49.34H147.894C147.854 48.8467 147.654 48.4533 147.294 48.16C146.934 47.8667 146.447 47.72 145.834 47.72C145.234 47.72 144.774 47.8333 144.454 48.06C144.134 48.2867 143.974 48.5867 143.974 48.96C143.974 49.2533 144.08 49.5 144.294 49.7C144.507 49.9 144.767 50.06 145.074 50.18C145.38 50.2867 145.834 50.4267 146.434 50.6C147.234 50.8133 147.887 51.0333 148.394 51.26C148.914 51.4733 149.36 51.7933 149.734 52.22C150.107 52.6467 150.3 53.2133 150.314 53.92C150.314 54.5467 150.14 55.1067 149.794 55.6C149.447 56.0933 148.954 56.48 148.314 56.76C147.687 57.04 146.947 57.18 146.094 57.18ZM155.437 47.84V53.94C155.437 54.3533 155.531 54.6533 155.717 54.84C155.917 55.0133 156.251 55.1 156.717 55.1H158.117V57H156.317C155.291 57 154.504 56.76 153.957 56.28C153.411 55.8 153.137 55.02 153.137 53.94V47.84H151.837V45.98H153.137V43.24H155.437V45.98H158.117V47.84H155.437ZM164.999 57.18C163.959 57.18 163.019 56.9467 162.179 56.48C161.339 56 160.679 55.3333 160.199 54.48C159.719 53.6133 159.479 52.6133 159.479 51.48C159.479 50.36 159.725 49.3667 160.219 48.5C160.712 47.6333 161.385 46.9667 162.239 46.5C163.092 46.0333 164.045 45.8 165.099 45.8C166.152 45.8 167.105 46.0333 167.959 46.5C168.812 46.9667 169.485 47.6333 169.979 48.5C170.472 49.3667 170.719 50.36 170.719 51.48C170.719 52.6 170.465 53.5933 169.959 54.46C169.452 55.3267 168.759 56 167.879 56.48C167.012 56.9467 166.052 57.18 164.999 57.18ZM164.999 55.2C165.585 55.2 166.132 55.06 166.639 54.78C167.159 54.5 167.579 54.08 167.899 53.52C168.219 52.96 168.379 52.28 168.379 51.48C168.379 50.68 168.225 50.0067 167.919 49.46C167.612 48.9 167.205 48.48 166.699 48.2C166.192 47.92 165.645 47.78 165.059 47.78C164.472 47.78 163.925 47.92 163.419 48.2C162.925 48.48 162.532 48.9 162.239 49.46C161.945 50.0067 161.799 50.68 161.799 51.48C161.799 52.6667 162.099 53.5867 162.699 54.24C163.312 54.88 164.079 55.2 164.999 55.2ZM172.213 51.48C172.213 50.3467 172.439 49.3533 172.893 48.5C173.359 47.6333 173.999 46.9667 174.813 46.5C175.626 46.0333 176.559 45.8 177.613 45.8C178.946 45.8 180.046 46.12 180.913 46.76C181.793 47.3867 182.386 48.2867 182.693 49.46H180.233C180.033 48.9133 179.713 48.4867 179.273 48.18C178.833 47.8733 178.279 47.72 177.613 47.72C176.679 47.72 175.933 48.0533 175.373 48.72C174.826 49.3733 174.553 50.2933 174.553 51.48C174.553 52.6667 174.826 53.5933 175.373 54.26C175.933 54.9267 176.679 55.26 177.613 55.26C178.933 55.26 179.806 54.68 180.233 53.52H182.693C182.373 54.64 181.773 55.5333 180.893 56.2C180.013 56.8533 178.919 57.18 177.613 57.18C176.559 57.18 175.626 56.9467 174.813 56.48C173.999 56 173.359 55.3333 172.893 54.48C172.439 53.6133 172.213 52.6133 172.213 51.48ZM189.325 51.5L194.405 57H191.325L187.245 52.26V57H184.965V42.2H187.245V50.8L191.245 45.98H194.405L189.325 51.5ZM205.854 47.84H203.814V57H201.514V47.84H200.214V45.98H201.514V45.2C201.514 43.9333 201.848 43.0133 202.514 42.44C203.194 41.8533 204.254 41.56 205.694 41.56V43.46C205.001 43.46 204.514 43.5933 204.234 43.86C203.954 44.1133 203.814 44.56 203.814 45.2V45.98H205.854V47.84ZM212.655 57.18C211.615 57.18 210.675 56.9467 209.835 56.48C208.995 56 208.335 55.3333 207.855 54.48C207.375 53.6133 207.135 52.6133 207.135 51.48C207.135 50.36 207.382 49.3667 207.875 48.5C208.368 47.6333 209.042 46.9667 209.895 46.5C210.748 46.0333 211.702 45.8 212.755 45.8C213.808 45.8 214.762 46.0333 215.615 46.5C216.468 46.9667 217.142 47.6333 217.635 48.5C218.128 49.3667 218.375 50.36 218.375 51.48C218.375 52.6 218.122 53.5933 217.615 54.46C217.108 55.3267 216.415 56 215.535 56.48C214.668 56.9467 213.708 57.18 212.655 57.18ZM212.655 55.2C213.242 55.2 213.788 55.06 214.295 54.78C214.815 54.5 215.235 54.08 215.555 53.52C215.875 52.96 216.035 52.28 216.035 51.48C216.035 50.68 215.882 50.0067 215.575 49.46C215.268 48.9 214.862 48.48 214.355 48.2C213.848 47.92 213.302 47.78 212.715 47.78C212.128 47.78 211.582 47.92 211.075 48.2C210.582 48.48 210.188 48.9 209.895 49.46C209.602 50.0067 209.455 50.68 209.455 51.48C209.455 52.6667 209.755 53.5867 210.355 54.24C210.968 54.88 211.735 55.2 212.655 55.2ZM225.409 57.18C224.369 57.18 223.429 56.9467 222.589 56.48C221.749 56 221.089 55.3333 220.609 54.48C220.129 53.6133 219.889 52.6133 219.889 51.48C219.889 50.36 220.136 49.3667 220.629 48.5C221.122 47.6333 221.796 46.9667 222.649 46.5C223.502 46.0333 224.456 45.8 225.509 45.8C226.562 45.8 227.516 46.0333 228.369 46.5C229.222 46.9667 229.896 47.6333 230.389 48.5C230.882 49.3667 231.129 50.36 231.129 51.48C231.129 52.6 230.876 53.5933 230.369 54.46C229.862 55.3267 229.169 56 228.289 56.48C227.422 56.9467 226.462 57.18 225.409 57.18ZM225.409 55.2C225.996 55.2 226.542 55.06 227.049 54.78C227.569 54.5 227.989 54.08 228.309 53.52C228.629 52.96 228.789 52.28 228.789 51.48C228.789 50.68 228.636 50.0067 228.329 49.46C228.022 48.9 227.616 48.48 227.109 48.2C226.602 47.92 226.056 47.78 225.469 47.78C224.882 47.78 224.336 47.92 223.829 48.2C223.336 48.48 222.942 48.9 222.649 49.46C222.356 50.0067 222.209 50.68 222.209 51.48C222.209 52.6667 222.509 53.5867 223.109 54.24C223.722 54.88 224.489 55.2 225.409 55.2ZM236.043 47.84V53.94C236.043 54.3533 236.136 54.6533 236.323 54.84C236.523 55.0133 236.856 55.1 237.323 55.1H238.723V57H236.923C235.896 57 235.109 56.76 234.563 56.28C234.016 55.8 233.743 55.02 233.743 53.94V47.84H232.443V45.98H233.743V43.24H236.043V45.98H238.723V47.84H236.043ZM240.064 51.44C240.064 50.3333 240.291 49.3533 240.744 48.5C241.211 47.6467 241.838 46.9867 242.624 46.52C243.424 46.04 244.304 45.8 245.264 45.8C246.131 45.8 246.884 45.9733 247.524 46.32C248.178 46.6533 248.698 47.0733 249.084 47.58V45.98H251.384V57H249.084V55.36C248.698 55.88 248.171 56.3133 247.504 56.66C246.838 57.0067 246.078 57.18 245.224 57.18C244.278 57.18 243.411 56.94 242.624 56.46C241.838 55.9667 241.211 55.2867 240.744 54.42C240.291 53.54 240.064 52.5467 240.064 51.44ZM249.084 51.48C249.084 50.72 248.924 50.06 248.604 49.5C248.298 48.94 247.891 48.5133 247.384 48.22C246.878 47.9267 246.331 47.78 245.744 47.78C245.158 47.78 244.611 47.9267 244.104 48.22C243.598 48.5 243.184 48.92 242.864 49.48C242.558 50.0267 242.404 50.68 242.404 51.44C242.404 52.2 242.558 52.8667 242.864 53.44C243.184 54.0133 243.598 54.4533 244.104 54.76C244.624 55.0533 245.171 55.2 245.744 55.2C246.331 55.2 246.878 55.0533 247.384 54.76C247.891 54.4667 248.298 54.04 248.604 53.48C248.924 52.9067 249.084 52.24 249.084 51.48ZM258.819 45.8C259.672 45.8 260.426 45.9733 261.079 46.32C261.746 46.6533 262.266 47.0733 262.639 47.58V45.98H264.939V57.18C264.939 58.1933 264.726 59.0933 264.299 59.88C263.872 60.68 263.252 61.3067 262.439 61.76C261.639 62.2133 260.679 62.44 259.559 62.44C258.066 62.44 256.826 62.0867 255.839 61.38C254.852 60.6867 254.292 59.74 254.159 58.54H256.419C256.592 59.1133 256.959 59.5733 257.519 59.92C258.092 60.28 258.772 60.46 259.559 60.46C260.479 60.46 261.219 60.18 261.779 59.62C262.352 59.06 262.639 58.2467 262.639 57.18V55.34C262.252 55.86 261.726 56.3 261.059 56.66C260.406 57.0067 259.659 57.18 258.819 57.18C257.859 57.18 256.979 56.94 256.179 56.46C255.392 55.9667 254.766 55.2867 254.299 54.42C253.846 53.54 253.619 52.5467 253.619 51.44C253.619 50.3333 253.846 49.3533 254.299 48.5C254.766 47.6467 255.392 46.9867 256.179 46.52C256.979 46.04 257.859 45.8 258.819 45.8ZM262.639 51.48C262.639 50.72 262.479 50.06 262.159 49.5C261.852 48.94 261.446 48.5133 260.939 48.22C260.432 47.9267 259.886 47.78 259.299 47.78C258.712 47.78 258.166 47.9267 257.659 48.22C257.152 48.5 256.739 48.92 256.419 49.48C256.112 50.0267 255.959 50.68 255.959 51.44C255.959 52.2 256.112 52.8667 256.419 53.44C256.739 54.0133 257.152 54.4533 257.659 54.76C258.179 55.0533 258.726 55.2 259.299 55.2C259.886 55.2 260.432 55.0533 260.939 54.76C261.446 54.4667 261.852 54.04 262.159 53.48C262.479 52.9067 262.639 52.24 262.639 51.48ZM278.034 51.22C278.034 51.6333 278.007 52.0067 277.954 52.34H269.534C269.6 53.22 269.927 53.9267 270.514 54.46C271.1 54.9933 271.82 55.26 272.674 55.26C273.9 55.26 274.767 54.7467 275.274 53.72H277.734C277.4 54.7333 276.794 55.5667 275.914 56.22C275.047 56.86 273.967 57.18 272.674 57.18C271.62 57.18 270.674 56.9467 269.834 56.48C269.007 56 268.354 55.3333 267.874 54.48C267.407 53.6133 267.174 52.6133 267.174 51.48C267.174 50.3467 267.4 49.3533 267.854 48.5C268.32 47.6333 268.967 46.9667 269.794 46.5C270.634 46.0333 271.594 45.8 272.674 45.8C273.714 45.8 274.64 46.0267 275.454 46.48C276.267 46.9333 276.9 47.5733 277.354 48.4C277.807 49.2133 278.034 50.1533 278.034 51.22ZM275.654 50.5C275.64 49.66 275.34 48.9867 274.754 48.48C274.167 47.9733 273.44 47.72 272.574 47.72C271.787 47.72 271.114 47.9733 270.554 48.48C269.994 48.9733 269.66 49.6467 269.554 50.5H275.654Z" fill="black"/>
<circle cx="11" cy="18" r="11" fill="#A554E6"/>
<g clip-path="url(#clip0_449_1006)">
<path d="M15.125 12.8438L8.73125 19.875L6.875 18.469H5.84375L8.73125 23.1562L16.1562 12.8438H15.125Z" fill="white"/>
</g>
<defs>
<clipPath id="clip0_449_1006">
<rect width="11" height="11" fill="white" transform="translate(5.5 12.5)"/>
</clipPath>
</defs>
</svg>
